{"glyphs":{"0":{"ha":788,"x_min":57,"x_max":732,"o":"m 340 -13 q 125 95 193 -13 q 77 400 57 202 l 98 605 q 211 915 120 807 q 449 1023 302 1023 q 664 915 596 1023 q 711 605 732 807 l 689 400 q 578 95 669 202 q 340 -13 487 -13 m 354 122 q 472 187 433 122 q 528 409 511 251 l 548 596 q 539 823 564 758 q 434 888 514 888 q 316 823 355 888 q 261 596 278 758 l 241 409 q 249 187 225 251 q 354 122 274 122 m 384 403 q 330 417 350 403 q 314 470 311 431 l 322 539 q 348 592 326 577 q 404 606 370 606 q 458 592 438 606 q 473 539 477 577 l 466 470 q 439 417 462 431 q 384 403 417 403 z "},"1":{"ha":788,"x_min":73,"x_max":673,"o":"m 73 0 l 88 140 l 306 140 l 378 832 l 347 832 q 259 720 318 760 q 131 686 201 681 l 136 832 q 288 881 216 831 q 400 1010 360 931 l 574 1010 l 484 140 l 673 140 l 658 0 l 73 0 z "},"2":{"ha":788,"x_min":35,"x_max":730,"o":"m 35 0 l 58 212 q 119 395 71 331 q 288 511 168 458 l 408 562 q 501 620 475 592 q 534 708 528 648 l 538 750 q 522 855 545 822 q 434 888 499 888 q 343 848 371 888 q 295 693 314 809 l 120 706 q 222 949 146 876 q 447 1023 297 1023 q 664 956 597 1023 q 716 758 730 889 l 708 686 q 647 533 698 588 q 486 428 596 479 l 365 378 q 268 314 294 346 q 235 215 242 283 l 227 140 l 663 140 l 648 0 l 35 0 z "},"3":{"ha":788,"x_min":45,"x_max":721,"o":"m 338 -13 q 109 61 173 -13 q 53 282 45 134 l 232 294 q 256 160 231 194 q 352 125 280 125 q 457 158 424 125 q 497 269 490 191 l 504 319 q 484 431 511 398 q 386 465 457 465 l 278 465 l 292 604 l 400 604 q 491 627 463 604 q 524 715 518 650 l 530 768 q 514 859 537 832 q 431 885 491 885 q 344 853 372 885 q 299 739 316 821 l 125 751 q 223 958 146 894 q 438 1023 299 1023 q 651 963 581 1023 q 708 777 721 904 l 703 735 q 647 610 696 658 q 527 554 598 563 l 523 518 q 645 449 602 509 q 679 304 688 389 l 676 266 q 579 58 662 129 q 338 -13 496 -13 z "},"4":{"ha":788,"x_min":52,"x_max":741,"o":"m 225 394 l 438 394 l 480 792 l 225 394 m 727 259 l 601 259 l 573 0 l 396 0 l 424 259 l 52 259 l 66 394 l 455 1010 l 679 1010 l 615 394 l 741 394 l 727 259 z "},"5":{"ha":788,"x_min":44,"x_max":718,"o":"m 336 -13 q 106 54 168 -13 q 54 292 44 120 l 234 304 q 254 158 231 193 q 351 122 277 122 q 458 159 426 122 q 499 278 490 196 l 506 346 q 488 460 514 424 q 385 496 462 496 l 107 496 l 162 1010 l 718 1010 l 705 875 l 326 875 l 301 640 l 452 640 q 641 574 582 640 q 687 369 701 508 l 676 264 q 577 61 662 135 q 336 -13 492 -13 z "},"6":{"ha":788,"x_min":53,"x_max":720,"o":"m 340 -13 q 119 77 186 -13 q 71 340 53 167 l 106 672 q 210 934 124 846 q 451 1023 297 1023 q 653 966 591 1023 q 720 778 715 909 l 529 749 q 506 859 527 830 q 427 888 485 888 q 328 840 361 888 q 284 679 295 793 l 269 538 l 282 538 q 362 607 316 583 q 480 631 409 631 q 648 554 597 631 q 683 340 698 476 l 678 294 q 577 65 663 143 q 340 -13 491 -13 m 352 122 q 455 164 420 122 q 497 294 489 206 l 501 327 q 486 461 511 418 q 393 504 461 504 q 290 461 324 504 q 246 327 256 418 l 242 294 q 259 163 234 203 q 352 122 284 122 z "},"7":{"ha":788,"x_min":126,"x_max":754,"o":"m 199 0 q 364 506 298 345 q 561 862 431 668 l 126 862 l 141 1010 l 754 1010 l 739 862 q 529 458 601 636 q 390 0 457 280 l 199 0 z "},"8":{"ha":788,"x_min":48,"x_max":721,"o":"m 340 -13 q 116 54 183 -13 q 63 259 48 120 l 67 295 q 128 446 76 386 q 263 514 179 505 l 266 551 q 163 606 202 558 q 133 734 124 654 l 138 783 q 227 964 150 905 q 448 1023 303 1023 q 658 964 595 1023 q 708 783 721 905 l 703 734 q 646 606 694 654 q 533 551 597 558 l 529 514 q 648 445 609 505 q 679 295 688 385 l 676 259 q 579 54 660 120 q 340 -13 497 -13 m 404 598 q 491 625 463 598 q 525 718 518 652 l 530 768 q 515 859 537 833 q 434 885 494 885 q 348 859 376 885 q 314 768 321 833 l 309 718 q 324 625 302 652 q 404 598 346 598 m 354 125 q 458 159 427 125 q 499 274 490 193 l 503 311 q 487 428 511 394 q 389 462 462 462 q 285 428 316 462 q 245 311 254 394 l 241 274 q 256 159 232 193 q 354 125 280 125 z "},"9":{"ha":788,"x_min":68,"x_max":736,"o":"m 395 506 q 497 549 463 506 q 542 683 532 592 l 545 716 q 529 847 554 807 q 436 888 504 888 q 333 846 367 888 q 290 716 299 804 l 287 683 q 302 549 277 592 q 395 506 327 506 m 337 -13 q 136 45 198 -13 q 68 232 74 102 l 259 261 q 282 150 261 178 q 364 122 303 122 q 460 171 428 122 q 505 335 492 220 l 519 472 l 505 472 q 427 404 475 428 q 312 380 379 380 q 143 454 194 380 q 106 670 91 528 l 111 716 q 211 945 126 867 q 448 1023 297 1023 q 669 933 602 1023 q 718 670 736 843 l 683 338 q 579 76 665 165 q 337 -13 492 -13 z "},"\u0000":{"ha":0,"x_min":0,"x_max":0,"o":""},"\r":{"ha":0,"x_min":0,"x_max":0,"o":""}," ":{"ha":788,"x_min":0,"x_max":0,"o":""}," ":{"ha":788,"x_min":0,"x_max":0,"o":""},"A":{"ha":788,"x_min":-8,"x_max":691,"o":"m 480 408 l 434 857 l 289 408 l 480 408 m 520 0 l 492 269 l 244 269 l 157 0 l -8 0 l 342 1010 l 553 1010 l 691 0 l 520 0 z "},"À":{"ha":788,"x_min":-8,"x_max":691,"o":"m 480 408 l 434 857 l 289 408 l 480 408 m 520 0 l 492 269 l 244 269 l 157 0 l -8 0 l 342 1010 l 553 1010 l 691 0 l 520 0 m 446 1136 l 246 1389 l 476 1389 l 571 1136 l 446 1136 z "},"Á":{"ha":788,"x_min":-8,"x_max":703,"o":"m 480 408 l 434 857 l 289 408 l 480 408 m 520 0 l 492 269 l 244 269 l 157 0 l -8 0 l 342 1010 l 553 1010 l 691 0 l 520 0 m 324 1136 l 473 1389 l 703 1389 l 449 1136 l 324 1136 z "},"Â":{"ha":788,"x_min":-8,"x_max":731,"o":"m 480 408 l 434 857 l 289 408 l 480 408 m 520 0 l 492 269 l 244 269 l 157 0 l -8 0 l 342 1010 l 553 1010 l 691 0 l 520 0 m 259 1136 l 206 1222 l 420 1414 l 554 1414 l 731 1222 l 662 1138 l 472 1275 l 259 1136 z "},"Ã":{"ha":788,"x_min":-8,"x_max":739,"o":"m 480 408 l 434 857 l 289 408 l 480 408 m 520 0 l 492 269 l 244 269 l 157 0 l -8 0 l 342 1010 l 553 1010 l 691 0 l 520 0 m 556 1149 q 486 1169 511 1149 q 443 1217 461 1189 q 417 1263 429 1242 q 385 1284 405 1284 q 350 1262 365 1284 q 330 1182 335 1240 l 328 1162 l 211 1162 l 212 1181 q 272 1346 223 1282 q 396 1410 321 1410 q 465 1391 439 1410 q 508 1342 490 1371 q 533 1295 521 1317 q 563 1274 545 1274 q 598 1297 583 1274 q 620 1378 614 1319 l 621 1398 l 739 1398 l 737 1379 q 678 1213 726 1277 q 556 1149 630 1149 z "},"Ä":{"ha":788,"x_min":-8,"x_max":699,"o":"m 480 408 l 434 857 l 289 408 l 480 408 m 520 0 l 492 269 l 244 269 l 157 0 l -8 0 l 342 1010 l 553 1010 l 691 0 l 520 0 m 327 1140 q 263 1157 287 1140 q 244 1221 239 1174 l 245 1234 q 278 1299 250 1280 q 346 1317 306 1317 q 411 1299 388 1317 q 429 1234 434 1280 l 428 1221 q 395 1157 423 1174 q 327 1140 367 1140 m 592 1140 q 527 1157 551 1140 q 509 1221 504 1174 l 510 1234 q 542 1299 515 1280 q 611 1317 569 1317 q 676 1299 652 1317 q 694 1234 699 1280 l 693 1221 q 660 1157 688 1174 q 592 1140 631 1140 z "},"Å":{"ha":788,"x_min":-8,"x_max":696,"o":"m 480 408 l 434 857 l 289 408 l 480 408 m 520 0 l 492 269 l 244 269 l 157 0 l -8 0 l 342 1010 l 553 1010 l 691 0 l 520 0 m 457 1114 q 314 1159 366 1114 q 271 1301 261 1205 l 277 1341 q 348 1485 287 1438 q 500 1532 409 1532 q 644 1485 592 1532 q 686 1341 696 1438 l 681 1301 q 609 1159 670 1205 q 457 1114 548 1114 m 467 1211 q 528 1232 506 1211 q 556 1301 551 1253 l 561 1341 q 547 1411 564 1388 q 490 1434 529 1434 q 428 1411 451 1434 q 402 1341 405 1388 l 396 1301 q 410 1232 391 1253 q 467 1211 428 1211 z "},"Ā":{"ha":788,"x_min":-8,"x_max":708,"o":"m 480 408 l 434 857 l 289 408 l 480 408 m 520 0 l 492 269 l 244 269 l 157 0 l -8 0 l 342 1010 l 553 1010 l 691 0 l 520 0 m 236 1193 l 251 1332 l 708 1332 l 693 1193 l 236 1193 z "},"Ă":{"ha":788,"x_min":-8,"x_max":758,"o":"m 480 408 l 434 857 l 289 408 l 480 408 m 520 0 l 492 269 l 244 269 l 157 0 l -8 0 l 342 1010 l 553 1010 l 691 0 l 520 0 m 458 1128 q 265 1195 327 1128 q 217 1405 203 1263 l 366 1405 q 382 1280 357 1316 q 471 1245 407 1245 q 566 1280 535 1245 q 609 1405 597 1316 l 758 1405 q 665 1195 741 1263 q 458 1128 590 1128 z "},"Ą":{"ha":788,"x_min":-8,"x_max":730,"o":"m 480 408 l 434 857 l 289 408 l 480 408 m 520 0 l 492 269 l 244 269 l 157 0 l -8 0 l 342 1010 l 553 1010 l 691 0 l 520 0 m 588 -275 q 461 -235 505 -275 q 424 -121 417 -194 q 484 -3 431 -56 q 602 72 537 49 l 625 29 q 576 -23 590 5 q 558 -80 562 -52 q 573 -131 556 -114 q 630 -148 591 -148 q 675 -144 649 -148 q 730 -135 701 -140 l 716 -261 q 650 -271 684 -268 q 588 -275 616 -275 z "},"Ǻ":{"ha":788,"x_min":-8,"x_max":774,"o":"m 480 408 l 434 857 l 289 408 l 480 408 m 520 0 l 492 269 l 244 269 l 157 0 l -8 0 l 342 1010 l 553 1010 l 691 0 l 520 0 m 457 1114 q 314 1159 366 1114 q 271 1301 261 1205 l 277 1341 q 348 1485 287 1438 q 500 1532 409 1532 q 644 1485 592 1532 q 686 1341 696 1438 l 681 1301 q 609 1159 670 1205 q 457 1114 548 1114 m 467 1211 q 528 1232 506 1211 q 556 1301 551 1253 l 561 1341 q 547 1411 564 1388 q 490 1434 529 1434 q 428 1411 451 1434 q 402 1341 405 1388 l 396 1301 q 410 1232 391 1253 q 467 1211 428 1211 m 395 1515 l 544 1768 l 774 1768 l 520 1515 l 395 1515 z "},"B":{"ha":788,"x_min":42,"x_max":716,"o":"m 42 0 l 148 1010 l 457 1010 q 654 951 592 1010 q 703 773 716 891 l 698 721 q 653 608 691 650 q 549 553 616 566 l 545 516 q 654 455 619 508 q 682 321 689 402 l 676 261 q 580 66 662 131 q 351 0 499 0 l 42 0 m 280 590 l 396 590 q 485 618 456 590 q 521 711 515 646 l 527 755 q 509 847 533 818 q 427 875 486 875 l 311 875 l 280 590 m 232 135 l 356 135 q 458 168 424 135 q 500 274 492 201 l 505 323 q 485 428 513 395 q 390 461 458 461 l 266 461 l 232 135 z "},"":{"ha":788,"x_min":42,"x_max":716,"o":"m 42 0 l 148 1010 l 457 1010 q 654 951 592 1010 q 703 773 716 891 l 698 721 q 653 608 691 650 q 549 553 616 566 l 545 516 q 654 455 619 508 q 682 321 689 402 l 676 261 q 580 66 662 131 q 351 0 499 0 l 42 0 m 280 590 l 396 590 q 485 618 456 590 q 521 711 515 646 l 527 755 q 509 847 533 818 q 427 875 486 875 l 311 875 l 280 590 m 232 135 l 356 135 q 458 168 424 135 q 500 274 492 201 l 505 323 q 485 428 513 395 q 390 461 458 461 l 266 461 l 232 135 z "},"C":{"ha":788,"x_min":52,"x_max":754,"o":"m 356 -13 q 123 74 194 -13 q 71 333 52 160 l 106 672 q 214 934 124 846 q 465 1023 304 1023 q 688 939 622 1023 q 744 672 754 855 l 566 659 q 547 836 572 790 q 448 883 521 883 q 331 833 369 883 q 282 663 294 784 l 247 341 q 263 177 236 227 q 370 128 290 128 q 477 172 443 128 q 533 346 510 217 l 708 333 q 598 70 682 153 q 356 -13 514 -13 z "},"Ç":{"ha":788,"x_min":52,"x_max":754,"o":"m 356 -13 q 123 74 194 -13 q 71 333 52 160 l 106 672 q 214 934 124 846 q 465 1023 304 1023 q 688 939 622 1023 q 744 672 754 855 l 566 659 q 547 836 572 790 q 448 883 521 883 q 331 833 369 883 q 282 663 294 784 l 247 341 q 263 177 236 227 q 370 128 290 128 q 477 172 443 128 q 533 346 510 217 l 708 333 q 598 70 682 153 q 356 -13 514 -13 m 323 0 l 348 53 q 477 2 433 42 q 514 -114 521 -38 q 441 -237 505 -197 q 292 -277 378 -277 q 146 -241 198 -277 q 96 -130 93 -206 l 247 -117 q 258 -151 246 -141 q 297 -160 269 -160 q 343 -146 327 -160 q 364 -88 359 -131 q 359 -29 367 -48 q 323 0 350 -10 z "},"Ć":{"ha":788,"x_min":52,"x_max":754,"o":"m 356 -13 q 123 74 194 -13 q 71 333 52 160 l 106 672 q 214 934 124 846 q 465 1023 304 1023 q 688 939 622 1023 q 744 672 754 855 l 566 659 q 547 836 572 790 q 448 883 521 883 q 331 833 369 883 q 282 663 294 784 l 247 341 q 263 177 236 227 q 370 128 290 128 q 477 172 443 128 q 533 346 510 217 l 708 333 q 598 70 682 153 q 356 -13 514 -13 m 366 1136 l 515 1389 l 745 1389 l 491 1136 l 366 1136 z "},"Ĉ":{"ha":788,"x_min":52,"x_max":754,"o":"m 356 -13 q 123 74 194 -13 q 71 333 52 160 l 106 672 q 214 934 124 846 q 465 1023 304 1023 q 688 939 622 1023 q 744 672 754 855 l 566 659 q 547 836 572 790 q 448 883 521 883 q 331 833 369 883 q 282 663 294 784 l 247 341 q 263 177 236 227 q 370 128 290 128 q 477 172 443 128 q 533 346 510 217 l 708 333 q 598 70 682 153 q 356 -13 514 -13 m 273 1136 l 220 1222 l 434 1414 l 568 1414 l 745 1222 l 676 1138 l 486 1275 l 273 1136 z "},"Ċ":{"ha":788,"x_min":52,"x_max":754,"o":"m 356 -13 q 123 74 194 -13 q 71 333 52 160 l 106 672 q 214 934 124 846 q 465 1023 304 1023 q 688 939 622 1023 q 744 672 754 855 l 566 659 q 547 836 572 790 q 448 883 521 883 q 331 833 369 883 q 282 663 294 784 l 247 341 q 263 177 236 227 q 370 128 290 128 q 477 172 443 128 q 533 346 510 217 l 708 333 q 598 70 682 153 q 356 -13 514 -13 m 473 1140 q 388 1157 419 1140 q 361 1221 356 1174 l 362 1234 q 403 1299 367 1280 q 492 1317 438 1317 q 578 1299 547 1317 q 605 1234 610 1280 l 604 1221 q 563 1157 598 1174 q 473 1140 527 1140 z "},"Č":{"ha":788,"x_min":52,"x_max":756,"o":"m 356 -13 q 123 74 194 -13 q 71 333 52 160 l 106 672 q 214 934 124 846 q 465 1023 304 1023 q 688 939 622 1023 q 744 672 754 855 l 566 659 q 547 836 572 790 q 448 883 521 883 q 331 833 369 883 q 282 663 294 784 l 247 341 q 263 177 236 227 q 370 128 290 128 q 477 172 443 128 q 533 346 510 217 l 708 333 q 598 70 682 153 q 356 -13 514 -13 m 408 1141 l 231 1333 l 301 1419 l 490 1282 l 703 1419 l 756 1333 l 542 1141 l 408 1141 z "},"D":{"ha":788,"x_min":42,"x_max":734,"o":"m 42 0 l 148 1010 l 438 1010 q 659 912 585 1010 q 716 652 734 814 l 684 354 q 573 96 668 192 q 331 0 477 0 l 42 0 m 234 140 l 332 140 q 453 193 412 140 q 508 362 495 245 l 537 643 q 518 816 549 763 q 408 870 487 870 l 309 870 l 234 140 z "},"Ď":{"ha":788,"x_min":42,"x_max":742,"o":"m 42 0 l 148 1010 l 438 1010 q 659 912 585 1010 q 716 652 734 814 l 684 354 q 573 96 668 192 q 331 0 477 0 l 42 0 m 234 140 l 332 140 q 453 193 412 140 q 508 362 495 245 l 537 643 q 518 816 549 763 q 408 870 487 870 l 309 870 l 234 140 m 394 1141 l 217 1333 l 287 1419 l 476 1282 l 689 1419 l 742 1333 l 528 1141 l 394 1141 z "},"E":{"ha":788,"x_min":42,"x_max":754,"o":"m 42 0 l 148 1010 l 754 1010 l 739 870 l 309 870 l 283 615 l 659 615 l 645 475 l 269 475 l 234 140 l 663 140 l 648 0 l 42 0 z "},"":{"ha":788,"x_min":42,"x_max":754,"o":"m 42 0 l 148 1010 l 754 1010 l 739 870 l 309 870 l 283 615 l 659 615 l 645 475 l 269 475 l 234 140 l 663 140 l 648 0 l 42 0 z "},"È":{"ha":788,"x_min":42,"x_max":754,"o":"m 42 0 l 148 1010 l 754 1010 l 739 870 l 309 870 l 283 615 l 659 615 l 645 475 l 269 475 l 234 140 l 663 140 l 648 0 l 42 0 m 471 1136 l 271 1389 l 501 1389 l 596 1136 l 471 1136 z "},"É":{"ha":788,"x_min":42,"x_max":754,"o":"m 42 0 l 148 1010 l 754 1010 l 739 870 l 309 870 l 283 615 l 659 615 l 645 475 l 269 475 l 234 140 l 663 140 l 648 0 l 42 0 m 356 1135 l 505 1388 l 735 1388 l 481 1135 l 356 1135 z "},"Ê":{"ha":788,"x_min":42,"x_max":754,"o":"m 42 0 l 148 1010 l 754 1010 l 739 870 l 309 870 l 283 615 l 659 615 l 645 475 l 269 475 l 234 140 l 663 140 l 648 0 l 42 0 m 273 1136 l 220 1222 l 434 1414 l 568 1414 l 745 1222 l 676 1138 l 486 1275 l 273 1136 z "},"Ë":{"ha":788,"x_min":42,"x_max":754,"o":"m 42 0 l 148 1010 l 754 1010 l 739 870 l 309 870 l 283 615 l 659 615 l 645 475 l 269 475 l 234 140 l 663 140 l 648 0 l 42 0 m 346 1140 q 282 1157 306 1140 q 263 1221 258 1174 l 264 1234 q 297 1299 269 1280 q 365 1317 324 1317 q 430 1299 407 1317 q 448 1234 453 1280 l 447 1221 q 414 1157 442 1174 q 346 1140 386 1140 m 611 1140 q 546 1157 569 1140 q 528 1221 523 1174 l 529 1234 q 561 1299 534 1280 q 630 1317 588 1317 q 694 1299 670 1317 q 713 1234 718 1280 l 712 1221 q 679 1157 707 1174 q 611 1140 650 1140 z "},"Ē":{"ha":788,"x_min":42,"x_max":754,"o":"m 42 0 l 148 1010 l 754 1010 l 739 870 l 309 870 l 283 615 l 659 615 l 645 475 l 269 475 l 234 140 l 663 140 l 648 0 l 42 0 m 250 1193 l 265 1332 l 722 1332 l 707 1193 l 250 1193 z "},"Ĕ":{"ha":788,"x_min":42,"x_max":771,"o":"m 42 0 l 148 1010 l 754 1010 l 739 870 l 309 870 l 283 615 l 659 615 l 645 475 l 269 475 l 234 140 l 663 140 l 648 0 l 42 0 m 472 1128 q 279 1195 341 1128 q 231 1405 217 1263 l 380 1405 q 396 1280 371 1316 q 485 1245 420 1245 q 580 1280 549 1245 q 622 1405 611 1316 l 771 1405 q 679 1195 755 1263 q 472 1128 604 1128 z "},"Ė":{"ha":788,"x_min":42,"x_max":754,"o":"m 42 0 l 148 1010 l 754 1010 l 739 870 l 309 870 l 283 615 l 659 615 l 645 475 l 269 475 l 234 140 l 663 140 l 648 0 l 42 0 m 473 1140 q 388 1157 419 1140 q 361 1221 356 1174 l 362 1234 q 403 1299 367 1280 q 492 1317 438 1317 q 578 1299 547 1317 q 605 1234 610 1280 l 604 1221 q 563 1157 598 1174 q 473 1140 527 1140 z "},"Ę":{"ha":788,"x_min":42,"x_max":754,"o":"m 492 -275 q 365 -235 409 -275 q 328 -121 321 -194 q 388 -3 335 -56 q 506 72 441 49 l 529 29 q 480 -23 494 5 q 462 -80 466 -52 q 477 -131 460 -114 q 534 -148 495 -148 q 579 -144 553 -148 q 634 -135 605 -140 l 620 -261 q 554 -271 588 -268 q 492 -275 520 -275 m 42 0 l 148 1010 l 754 1010 l 739 870 l 309 870 l 283 615 l 659 615 l 645 475 l 269 475 l 234 140 l 663 140 l 648 0 l 42 0 z "},"Ě":{"ha":788,"x_min":42,"x_max":760,"o":"m 42 0 l 148 1010 l 754 1010 l 739 870 l 309 870 l 283 615 l 659 615 l 645 475 l 269 475 l 234 140 l 663 140 l 648 0 l 42 0 m 412 1141 l 235 1333 l 304 1419 l 494 1282 l 707 1419 l 760 1333 l 545 1141 l 412 1141 z "},"F":{"ha":788,"x_min":77,"x_max":768,"o":"m 77 0 l 183 1010 l 768 1010 l 753 870 l 346 870 l 311 527 l 643 527 l 628 388 l 295 388 l 255 0 l 77 0 z "},"G":{"ha":788,"x_min":53,"x_max":730,"o":"m 348 -13 q 124 80 194 -13 q 71 333 53 172 l 106 674 q 213 932 124 841 q 452 1023 302 1023 q 665 944 600 1023 q 722 706 730 866 l 543 693 q 524 842 548 801 q 438 883 500 883 q 328 831 361 883 q 282 665 294 779 l 247 341 q 260 179 236 230 q 364 128 284 128 q 472 184 438 128 q 518 362 505 241 l 381 362 l 396 501 l 710 501 l 692 341 q 585 78 674 169 q 348 -13 495 -13 z "},"Ĝ":{"ha":788,"x_min":53,"x_max":737,"o":"m 348 -13 q 124 80 194 -13 q 71 333 53 172 l 106 674 q 213 932 124 841 q 452 1023 302 1023 q 665 944 600 1023 q 722 706 730 866 l 543 693 q 524 842 548 801 q 438 883 500 883 q 328 831 361 883 q 282 665 294 779 l 247 341 q 260 179 236 230 q 364 128 284 128 q 472 184 438 128 q 518 362 505 241 l 381 362 l 396 501 l 710 501 l 692 341 q 585 78 674 169 q 348 -13 495 -13 m 265 1136 l 212 1222 l 427 1414 l 561 1414 l 737 1222 l 668 1138 l 479 1275 l 265 1136 z "},"Ğ":{"ha":788,"x_min":53,"x_max":764,"o":"m 348 -13 q 124 80 194 -13 q 71 333 53 172 l 106 674 q 213 932 124 841 q 452 1023 302 1023 q 665 944 600 1023 q 722 706 730 866 l 543 693 q 524 842 548 801 q 438 883 500 883 q 328 831 361 883 q 282 665 294 779 l 247 341 q 260 179 236 230 q 364 128 284 128 q 472 184 438 128 q 518 362 505 241 l 381 362 l 396 501 l 710 501 l 692 341 q 585 78 674 169 q 348 -13 495 -13 m 465 1128 q 271 1195 333 1128 q 223 1405 210 1263 l 372 1405 q 388 1280 364 1316 q 477 1245 413 1245 q 573 1280 542 1245 q 615 1405 604 1316 l 764 1405 q 672 1195 747 1263 q 465 1128 596 1128 z "},"Ġ":{"ha":788,"x_min":53,"x_max":730,"o":"m 348 -13 q 124 80 194 -13 q 71 333 53 172 l 106 674 q 213 932 124 841 q 452 1023 302 1023 q 665 944 600 1023 q 722 706 730 866 l 543 693 q 524 842 548 801 q 438 883 500 883 q 328 831 361 883 q 282 665 294 779 l 247 341 q 260 179 236 230 q 364 128 284 128 q 472 184 438 128 q 518 362 505 241 l 381 362 l 396 501 l 710 501 l 692 341 q 585 78 674 169 q 348 -13 495 -13 m 470 1140 q 384 1157 415 1140 q 357 1221 352 1174 l 359 1234 q 399 1299 364 1280 q 489 1317 434 1317 q 574 1299 543 1317 q 601 1234 606 1280 l 600 1221 q 559 1157 595 1174 q 470 1140 523 1140 z "},"Ģ":{"ha":788,"x_min":53,"x_max":730,"o":"m 141 -379 l 247 -126 l 477 -126 l 266 -379 l 141 -379 m 348 -13 q 124 80 194 -13 q 71 333 53 172 l 106 674 q 213 932 124 841 q 452 1023 302 1023 q 665 944 600 1023 q 722 706 730 866 l 543 693 q 524 842 548 801 q 438 883 500 883 q 328 831 361 883 q 282 665 294 779 l 247 341 q 260 179 236 230 q 364 128 284 128 q 472 184 438 128 q 518 362 505 241 l 381 362 l 396 501 l 710 501 l 692 341 q 585 78 674 169 q 348 -13 495 -13 z "},"H":{"ha":788,"x_min":42,"x_max":746,"o":"m 42 0 l 148 1010 l 324 1010 l 284 624 l 529 624 l 569 1010 l 746 1010 l 640 0 l 463 0 l 514 484 l 269 484 l 218 0 l 42 0 z "},"Ĥ":{"ha":788,"x_min":42,"x_max":746,"o":"m 42 0 l 148 1010 l 324 1010 l 284 624 l 529 624 l 569 1010 l 746 1010 l 640 0 l 463 0 l 514 484 l 269 484 l 218 0 l 42 0 m 259 1136 l 206 1222 l 420 1414 l 554 1414 l 731 1222 l 662 1138 l 472 1275 l 259 1136 z "},"I":{"ha":788,"x_min":42,"x_max":746,"o":"m 42 0 l 57 140 l 268 140 l 343 870 l 133 870 l 148 1010 l 746 1010 l 731 870 l 520 870 l 444 140 l 655 140 l 640 0 l 42 0 z "},"Ì":{"ha":788,"x_min":42,"x_max":746,"o":"m 42 0 l 57 140 l 268 140 l 343 870 l 133 870 l 148 1010 l 746 1010 l 731 870 l 520 870 l 444 140 l 655 140 l 640 0 l 42 0 m 446 1136 l 246 1389 l 476 1389 l 571 1136 l 446 1136 z "},"Í":{"ha":788,"x_min":42,"x_max":746,"o":"m 42 0 l 57 140 l 268 140 l 343 870 l 133 870 l 148 1010 l 746 1010 l 731 870 l 520 870 l 444 140 l 655 140 l 640 0 l 42 0 m 324 1136 l 473 1389 l 703 1389 l 449 1136 l 324 1136 z "},"Î":{"ha":788,"x_min":42,"x_max":746,"o":"m 42 0 l 57 140 l 268 140 l 343 870 l 133 870 l 148 1010 l 746 1010 l 731 870 l 520 870 l 444 140 l 655 140 l 640 0 l 42 0 m 259 1136 l 206 1222 l 420 1414 l 554 1414 l 731 1222 l 662 1138 l 472 1275 l 259 1136 z "},"Ï":{"ha":788,"x_min":42,"x_max":746,"o":"m 42 0 l 57 140 l 268 140 l 343 870 l 133 870 l 148 1010 l 746 1010 l 731 870 l 520 870 l 444 140 l 655 140 l 640 0 l 42 0 m 327 1140 q 263 1157 287 1140 q 244 1221 239 1174 l 245 1234 q 278 1299 250 1280 q 346 1317 306 1317 q 411 1299 388 1317 q 429 1234 434 1280 l 428 1221 q 395 1157 423 1174 q 327 1140 367 1140 m 592 1140 q 527 1157 551 1140 q 509 1221 504 1174 l 510 1234 q 542 1299 515 1280 q 611 1317 569 1317 q 676 1299 652 1317 q 694 1234 699 1280 l 693 1221 q 660 1157 688 1174 q 592 1140 631 1140 z "},"Ĩ":{"ha":788,"x_min":42,"x_max":746,"o":"m 42 0 l 57 140 l 268 140 l 343 870 l 133 870 l 148 1010 l 746 1010 l 731 870 l 520 870 l 444 140 l 655 140 l 640 0 l 42 0 m 556 1149 q 486 1169 511 1149 q 443 1217 461 1189 q 417 1263 429 1242 q 385 1284 405 1284 q 350 1262 365 1284 q 330 1182 335 1240 l 328 1162 l 211 1162 l 212 1181 q 272 1346 223 1282 q 396 1410 321 1410 q 465 1391 439 1410 q 508 1342 490 1371 q 533 1295 521 1317 q 563 1274 545 1274 q 598 1297 583 1274 q 620 1378 614 1319 l 621 1398 l 739 1398 l 737 1379 q 678 1213 726 1277 q 556 1149 630 1149 z "},"Ī":{"ha":788,"x_min":42,"x_max":746,"o":"m 42 0 l 57 140 l 268 140 l 343 870 l 133 870 l 148 1010 l 746 1010 l 731 870 l 520 870 l 444 140 l 655 140 l 640 0 l 42 0 m 236 1193 l 251 1332 l 708 1332 l 693 1193 l 236 1193 z "},"Ĭ":{"ha":788,"x_min":42,"x_max":758,"o":"m 42 0 l 57 140 l 268 140 l 343 870 l 133 870 l 148 1010 l 746 1010 l 731 870 l 520 870 l 444 140 l 655 140 l 640 0 l 42 0 m 458 1128 q 265 1195 327 1128 q 217 1405 203 1263 l 366 1405 q 382 1280 357 1316 q 471 1245 407 1245 q 566 1280 535 1245 q 609 1405 597 1316 l 758 1405 q 665 1195 741 1263 q 458 1128 590 1128 z "},"Į":{"ha":788,"x_min":42,"x_max":746,"o":"m 42 0 l 57 140 l 268 140 l 343 870 l 133 870 l 148 1010 l 746 1010 l 731 870 l 520 870 l 444 140 l 655 140 l 640 0 l 42 0 m 402 -275 q 274 -235 318 -275 q 237 -121 230 -194 q 297 -3 244 -56 q 415 72 350 49 l 438 29 q 389 -23 403 5 q 371 -80 375 -52 q 386 -131 369 -114 q 443 -148 404 -148 q 488 -144 462 -148 q 543 -135 514 -140 l 529 -261 q 463 -271 497 -268 q 402 -275 429 -275 z "},"İ":{"ha":788,"x_min":42,"x_max":746,"o":"m 42 0 l 57 140 l 268 140 l 343 870 l 133 870 l 148 1010 l 746 1010 l 731 870 l 520 870 l 444 140 l 655 140 l 640 0 l 42 0 m 460 1140 q 374 1157 405 1140 q 347 1221 342 1174 l 348 1234 q 389 1299 354 1280 q 479 1317 424 1317 q 564 1299 533 1317 q 591 1234 596 1280 l 590 1221 q 549 1157 585 1174 q 460 1140 513 1140 z "},"J":{"ha":788,"x_min":37,"x_max":732,"o":"m 324 -13 q 100 68 163 -13 q 49 337 37 149 l 227 351 q 245 172 222 216 q 337 128 268 128 q 437 171 402 128 q 482 313 472 215 l 540 870 l 307 870 l 322 1010 l 732 1010 l 659 316 q 559 73 643 159 q 324 -13 476 -13 z "},"Ĵ":{"ha":788,"x_min":37,"x_max":804,"o":"m 324 -13 q 100 68 163 -13 q 49 337 37 149 l 227 351 q 245 172 222 216 q 337 128 268 128 q 437 171 402 128 q 482 313 472 215 l 540 870 l 307 870 l 322 1010 l 732 1010 l 659 316 q 559 73 643 159 q 324 -13 476 -13 m 332 1136 l 279 1222 l 494 1414 l 628 1414 l 804 1222 l 735 1138 l 545 1275 l 332 1136 z "},"K":{"ha":788,"x_min":42,"x_max":804,"o":"m 266 460 l 218 0 l 42 0 l 148 1010 l 324 1010 l 282 601 l 322 601 l 605 1010 l 804 1010 l 457 545 l 694 0 l 496 0 l 311 460 l 266 460 z "},"Ķ":{"ha":788,"x_min":42,"x_max":804,"o":"m 266 460 l 218 0 l 42 0 l 148 1010 l 324 1010 l 282 601 l 322 601 l 605 1010 l 804 1010 l 457 545 l 694 0 l 496 0 l 311 460 l 266 460 m 154 -379 l 260 -126 l 490 -126 l 279 -379 l 154 -379 z "},"L":{"ha":788,"x_min":95,"x_max":655,"o":"m 95 0 l 201 1010 l 378 1010 l 287 140 l 655 140 l 640 0 l 95 0 z "},"Ĺ":{"ha":788,"x_min":95,"x_max":655,"o":"m 95 0 l 201 1010 l 378 1010 l 287 140 l 655 140 l 640 0 l 95 0 m 226 1136 l 375 1389 l 605 1389 l 351 1136 l 226 1136 z "},"Ļ":{"ha":788,"x_min":95,"x_max":655,"o":"m 95 0 l 201 1010 l 378 1010 l 287 140 l 655 140 l 640 0 l 95 0 m 174 -379 l 280 -126 l 510 -126 l 299 -379 l 174 -379 z "},"Ľ":{"ha":788,"x_min":95,"x_max":809,"o":"m 95 0 l 201 1010 l 378 1010 l 287 140 l 655 140 l 640 0 l 95 0 m 479 638 l 582 1010 l 809 1010 l 583 638 l 479 638 z "},"M":{"ha":788,"x_min":23,"x_max":765,"o":"m 309 274 l 242 740 l 179 0 l 23 0 l 129 1010 l 307 1010 l 394 472 l 592 1010 l 765 1010 l 659 0 l 503 0 l 596 734 l 432 274 l 309 274 z "},"N":{"ha":788,"x_min":42,"x_max":746,"o":"m 426 0 l 275 779 l 193 0 l 42 0 l 148 1010 l 350 1010 l 511 215 l 595 1010 l 746 1010 l 640 0 l 426 0 z "},"Ñ":{"ha":788,"x_min":42,"x_max":746,"o":"m 426 0 l 275 779 l 193 0 l 42 0 l 148 1010 l 350 1010 l 511 215 l 595 1010 l 746 1010 l 640 0 l 426 0 m 562 1149 q 492 1169 518 1149 q 449 1217 467 1189 q 424 1263 436 1242 q 391 1284 412 1284 q 356 1262 371 1284 q 336 1182 341 1240 l 335 1162 l 217 1162 l 218 1181 q 278 1346 230 1282 q 403 1410 327 1410 q 471 1391 446 1410 q 514 1342 496 1371 q 540 1295 528 1317 q 569 1274 552 1274 q 605 1297 590 1274 q 626 1378 620 1319 l 628 1398 l 745 1398 l 744 1379 q 684 1213 732 1277 q 562 1149 636 1149 z "},"Ń":{"ha":788,"x_min":42,"x_max":746,"o":"m 426 0 l 275 779 l 193 0 l 42 0 l 148 1010 l 350 1010 l 511 215 l 595 1010 l 746 1010 l 640 0 l 426 0 m 352 1136 l 501 1389 l 731 1389 l 477 1136 l 352 1136 z "},"Ņ":{"ha":788,"x_min":42,"x_max":746,"o":"m 131 -379 l 237 -126 l 467 -126 l 256 -379 l 131 -379 m 426 0 l 275 779 l 193 0 l 42 0 l 148 1010 l 350 1010 l 511 215 l 595 1010 l 746 1010 l 640 0 l 426 0 z "},"Ň":{"ha":788,"x_min":42,"x_max":749,"o":"m 426 0 l 275 779 l 193 0 l 42 0 l 148 1010 l 350 1010 l 511 215 l 595 1010 l 746 1010 l 640 0 l 426 0 m 400 1141 l 223 1333 l 293 1419 l 482 1282 l 696 1419 l 749 1333 l 534 1141 l 400 1141 z "},"O":{"ha":788,"x_min":53,"x_max":736,"o":"m 340 -13 q 122 76 191 -13 q 69 328 53 165 l 106 677 q 212 932 124 842 q 449 1023 301 1023 q 667 932 597 1023 q 718 677 736 842 l 682 328 q 577 76 665 165 q 340 -13 489 -13 m 355 128 q 460 174 427 128 q 505 337 492 220 l 540 668 q 529 836 553 789 q 433 883 505 883 q 329 836 362 883 q 283 668 295 789 l 247 337 q 259 174 235 220 q 355 128 284 128 z "},"Ò":{"ha":788,"x_min":53,"x_max":736,"o":"m 340 -13 q 122 76 191 -13 q 69 328 53 165 l 106 677 q 212 932 124 842 q 449 1023 301 1023 q 667 932 597 1023 q 718 677 736 842 l 682 328 q 577 76 665 165 q 340 -13 489 -13 m 355 128 q 460 174 427 128 q 505 337 492 220 l 540 668 q 529 836 553 789 q 433 883 505 883 q 329 836 362 883 q 283 668 295 789 l 247 337 q 259 174 235 220 q 355 128 284 128 m 446 1136 l 246 1389 l 476 1389 l 571 1136 l 446 1136 z "},"Ó":{"ha":788,"x_min":53,"x_max":739,"o":"m 340 -13 q 122 76 191 -13 q 69 328 53 165 l 106 677 q 212 932 124 842 q 449 1023 301 1023 q 667 932 597 1023 q 718 677 736 842 l 682 328 q 577 76 665 165 q 340 -13 489 -13 m 355 128 q 460 174 427 128 q 505 337 492 220 l 540 668 q 529 836 553 789 q 433 883 505 883 q 329 836 362 883 q 283 668 295 789 l 247 337 q 259 174 235 220 q 355 128 284 128 m 360 1136 l 509 1389 l 739 1389 l 485 1136 l 360 1136 z "},"Ô":{"ha":788,"x_min":53,"x_max":736,"o":"m 340 -13 q 122 76 191 -13 q 69 328 53 165 l 106 677 q 212 932 124 842 q 449 1023 301 1023 q 667 932 597 1023 q 718 677 736 842 l 682 328 q 577 76 665 165 q 340 -13 489 -13 m 355 128 q 460 174 427 128 q 505 337 492 220 l 540 668 q 529 836 553 789 q 433 883 505 883 q 329 836 362 883 q 283 668 295 789 l 247 337 q 259 174 235 220 q 355 128 284 128 m 259 1136 l 206 1222 l 420 1414 l 554 1414 l 731 1222 l 662 1138 l 472 1275 l 259 1136 z "},"Õ":{"ha":788,"x_min":53,"x_max":739,"o":"m 340 -13 q 122 76 191 -13 q 69 328 53 165 l 106 677 q 212 932 124 842 q 449 1023 301 1023 q 667 932 597 1023 q 718 677 736 842 l 682 328 q 577 76 665 165 q 340 -13 489 -13 m 355 128 q 460 174 427 128 q 505 337 492 220 l 540 668 q 529 836 553 789 q 433 883 505 883 q 329 836 362 883 q 283 668 295 789 l 247 337 q 259 174 235 220 q 355 128 284 128 m 556 1149 q 486 1169 511 1149 q 443 1217 461 1189 q 417 1263 429 1242 q 385 1284 405 1284 q 350 1262 365 1284 q 330 1182 335 1240 l 328 1162 l 211 1162 l 212 1181 q 272 1346 223 1282 q 396 1410 321 1410 q 465 1391 439 1410 q 508 1342 490 1371 q 533 1295 521 1317 q 563 1274 545 1274 q 598 1297 583 1274 q 620 1378 614 1319 l 621 1398 l 739 1398 l 737 1379 q 678 1213 726 1277 q 556 1149 630 1149 z "},"Ö":{"ha":788,"x_min":53,"x_max":736,"o":"m 340 -13 q 122 76 191 -13 q 69 328 53 165 l 106 677 q 212 932 124 842 q 449 1023 301 1023 q 667 932 597 1023 q 718 677 736 842 l 682 328 q 577 76 665 165 q 340 -13 489 -13 m 355 128 q 460 174 427 128 q 505 337 492 220 l 540 668 q 529 836 553 789 q 433 883 505 883 q 329 836 362 883 q 283 668 295 789 l 247 337 q 259 174 235 220 q 355 128 284 128 m 327 1140 q 263 1157 287 1140 q 244 1221 239 1174 l 245 1234 q 278 1299 250 1280 q 346 1317 306 1317 q 411 1299 388 1317 q 429 1234 434 1280 l 428 1221 q 395 1157 423 1174 q 327 1140 367 1140 m 592 1140 q 527 1157 551 1140 q 509 1221 504 1174 l 510 1234 q 542 1299 515 1280 q 611 1317 569 1317 q 676 1299 652 1317 q 694 1234 699 1280 l 693 1221 q 660 1157 688 1174 q 592 1140 631 1140 z "},"Ō":{"ha":788,"x_min":53,"x_max":736,"o":"m 340 -13 q 122 76 191 -13 q 69 328 53 165 l 106 677 q 212 932 124 842 q 449 1023 301 1023 q 667 932 597 1023 q 718 677 736 842 l 682 328 q 577 76 665 165 q 340 -13 489 -13 m 355 128 q 460 174 427 128 q 505 337 492 220 l 540 668 q 529 836 553 789 q 433 883 505 883 q 329 836 362 883 q 283 668 295 789 l 247 337 q 259 174 235 220 q 355 128 284 128 m 236 1193 l 251 1332 l 708 1332 l 693 1193 l 236 1193 z "},"Ŏ":{"ha":788,"x_min":53,"x_max":758,"o":"m 340 -13 q 122 76 191 -13 q 69 328 53 165 l 106 677 q 212 932 124 842 q 449 1023 301 1023 q 667 932 597 1023 q 718 677 736 842 l 682 328 q 577 76 665 165 q 340 -13 489 -13 m 355 128 q 460 174 427 128 q 505 337 492 220 l 540 668 q 529 836 553 789 q 433 883 505 883 q 329 836 362 883 q 283 668 295 789 l 247 337 q 259 174 235 220 q 355 128 284 128 m 458 1128 q 265 1195 327 1128 q 217 1405 203 1263 l 366 1405 q 382 1280 357 1316 q 471 1245 407 1245 q 566 1280 535 1245 q 609 1405 597 1316 l 758 1405 q 665 1195 741 1263 q 458 1128 590 1128 z "},"Ő":{"ha":788,"x_min":53,"x_max":780,"o":"m 340 -13 q 122 76 191 -13 q 69 328 53 165 l 106 677 q 212 932 124 842 q 449 1023 301 1023 q 667 932 597 1023 q 718 677 736 842 l 682 328 q 577 76 665 165 q 340 -13 489 -13 m 355 128 q 460 174 427 128 q 505 337 492 220 l 540 668 q 529 836 553 789 q 433 883 505 883 q 329 836 362 883 q 283 668 295 789 l 247 337 q 259 174 235 220 q 355 128 284 128 m 519 1136 l 597 1389 l 780 1389 l 615 1136 l 519 1136 m 277 1136 l 355 1389 l 538 1389 l 372 1136 l 277 1136 z "},"P":{"ha":788,"x_min":42,"x_max":744,"o":"m 42 0 l 148 1010 l 466 1010 q 676 944 609 1010 q 730 740 744 878 l 715 601 q 621 400 701 463 q 395 337 540 337 l 254 337 l 218 0 l 42 0 m 268 473 l 399 473 q 498 504 465 473 q 539 612 532 535 l 552 730 q 533 838 559 807 q 441 870 506 870 l 309 870 l 268 473 z "},"Q":{"ha":788,"x_min":57,"x_max":736,"o":"m 602 -250 q 336 -225 422 -283 q 269 10 250 -168 q 107 116 158 30 q 71 341 57 201 l 106 677 q 212 932 124 841 q 449 1023 301 1023 q 667 932 597 1023 q 718 677 736 841 l 683 341 q 598 113 669 199 q 410 8 528 27 q 454 -105 404 -83 q 597 -106 504 -126 l 602 -250 m 356 140 q 460 187 427 140 q 506 347 494 234 l 540 670 q 528 833 552 787 q 433 880 504 880 q 328 833 362 880 q 283 670 294 787 l 249 347 q 261 187 236 234 q 356 140 285 140 z "},"R":{"ha":788,"x_min":42,"x_max":742,"o":"m 273 516 l 412 516 q 508 548 476 516 q 549 658 540 580 l 557 735 q 539 840 564 811 q 448 870 513 870 l 309 870 l 273 516 m 218 0 l 42 0 l 148 1010 l 486 1010 q 682 941 621 1010 q 729 740 742 872 l 720 657 q 658 480 708 547 q 524 393 609 414 l 674 0 l 486 0 l 342 379 l 259 379 l 218 0 z "},"Ŕ":{"ha":788,"x_min":42,"x_max":746,"o":"m 273 516 l 412 516 q 508 548 476 516 q 549 658 540 580 l 557 735 q 539 840 564 811 q 448 870 513 870 l 309 870 l 273 516 m 218 0 l 42 0 l 148 1010 l 486 1010 q 682 941 621 1010 q 729 740 742 872 l 720 657 q 658 480 708 547 q 524 393 609 414 l 674 0 l 486 0 l 342 379 l 259 379 l 218 0 m 367 1136 l 516 1389 l 746 1389 l 492 1136 l 367 1136 z "},"Ŗ":{"ha":788,"x_min":42,"x_max":742,"o":"m 273 516 l 412 516 q 508 548 476 516 q 549 658 540 580 l 557 735 q 539 840 564 811 q 448 870 513 870 l 309 870 l 273 516 m 218 0 l 42 0 l 148 1010 l 486 1010 q 682 941 621 1010 q 729 740 742 872 l 720 657 q 658 480 708 547 q 524 393 609 414 l 674 0 l 486 0 l 342 379 l 259 379 l 218 0 m 115 -379 l 221 -126 l 451 -126 l 240 -379 l 115 -379 z "},"Ř":{"ha":788,"x_min":42,"x_max":742,"o":"m 273 516 l 412 516 q 508 548 476 516 q 549 658 540 580 l 557 735 q 539 840 564 811 q 448 870 513 870 l 309 870 l 273 516 m 218 0 l 42 0 l 148 1010 l 486 1010 q 682 941 621 1010 q 729 740 742 872 l 720 657 q 658 480 708 547 q 524 393 609 414 l 674 0 l 486 0 l 342 379 l 259 379 l 218 0 m 385 1141 l 208 1333 l 278 1419 l 467 1282 l 681 1419 l 734 1333 l 519 1141 l 385 1141 z "},"S":{"ha":788,"x_min":32,"x_max":717,"o":"m 332 -11 q 167 17 244 -11 q 32 98 90 45 l 92 234 q 211 157 148 184 q 354 129 274 129 q 465 167 426 129 q 511 268 505 205 q 484 365 519 332 q 345 438 448 398 q 157 559 207 492 q 117 735 106 625 q 218 940 131 862 q 444 1018 304 1018 q 597 989 524 1018 q 717 910 669 960 l 664 780 q 554 852 611 827 q 437 878 497 878 q 338 846 375 878 q 295 753 302 814 q 324 661 289 693 q 468 586 360 629 q 653 465 604 532 q 691 289 702 399 q 578 69 676 149 q 332 -11 481 -11 z "},"":{"ha":788,"x_min":32,"x_max":717,"o":"m 332 -11 q 167 17 244 -11 q 32 98 90 45 l 92 234 q 211 157 148 184 q 354 129 274 129 q 465 167 426 129 q 511 268 505 205 q 484 365 519 332 q 345 438 448 398 q 157 559 207 492 q 117 735 106 625 q 218 940 131 862 q 444 1018 304 1018 q 597 989 524 1018 q 717 910 669 960 l 664 780 q 554 852 611 827 q 437 878 497 878 q 338 846 375 878 q 295 753 302 814 q 324 661 289 693 q 468 586 360 629 q 653 465 604 532 q 691 289 702 399 q 578 69 676 149 q 332 -11 481 -11 z "},"Ś":{"ha":788,"x_min":32,"x_max":717,"o":"m 332 -11 q 167 17 244 -11 q 32 98 90 45 l 92 234 q 211 157 148 184 q 354 129 274 129 q 465 167 426 129 q 511 268 505 205 q 484 365 519 332 q 345 438 448 398 q 157 559 207 492 q 117 735 106 625 q 218 940 131 862 q 444 1018 304 1018 q 597 989 524 1018 q 717 910 669 960 l 664 780 q 554 852 611 827 q 437 878 497 878 q 338 846 375 878 q 295 753 302 814 q 324 661 289 693 q 468 586 360 629 q 653 465 604 532 q 691 289 702 399 q 578 69 676 149 q 332 -11 481 -11 m 323 1136 l 472 1389 l 702 1389 l 448 1136 l 323 1136 z "},"Ŝ":{"ha":788,"x_min":32,"x_max":730,"o":"m 332 -11 q 167 17 244 -11 q 32 98 90 45 l 92 234 q 211 157 148 184 q 354 129 274 129 q 465 167 426 129 q 511 268 505 205 q 484 365 519 332 q 345 438 448 398 q 157 559 207 492 q 117 735 106 625 q 218 940 131 862 q 444 1018 304 1018 q 597 989 524 1018 q 717 910 669 960 l 664 780 q 554 852 611 827 q 437 878 497 878 q 338 846 375 878 q 295 753 302 814 q 324 661 289 693 q 468 586 360 629 q 653 465 604 532 q 691 289 702 399 q 578 69 676 149 q 332 -11 481 -11 m 258 1136 l 205 1222 l 419 1414 l 553 1414 l 730 1222 l 660 1138 l 471 1275 l 258 1136 z "},"Ş":{"ha":788,"x_min":32,"x_max":717,"o":"m 332 -11 q 167 17 244 -11 q 32 98 90 45 l 92 234 q 211 157 148 184 q 354 129 274 129 q 465 167 426 129 q 511 268 505 205 q 484 365 519 332 q 345 438 448 398 q 157 559 207 492 q 117 735 106 625 q 218 940 131 862 q 444 1018 304 1018 q 597 989 524 1018 q 717 910 669 960 l 664 780 q 554 852 611 827 q 437 878 497 878 q 338 846 375 878 q 295 753 302 814 q 324 661 289 693 q 468 586 360 629 q 653 465 604 532 q 691 289 702 399 q 578 69 676 149 q 332 -11 481 -11 m 308 0 l 333 53 q 462 2 418 42 q 499 -114 506 -38 q 426 -237 490 -197 q 277 -277 362 -277 q 131 -241 183 -277 q 81 -130 78 -206 l 232 -117 q 242 -151 231 -141 q 282 -160 254 -160 q 328 -146 312 -160 q 348 -88 343 -131 q 343 -29 352 -48 q 308 0 335 -10 z "},"Š":{"ha":788,"x_min":32,"x_max":741,"o":"m 332 -11 q 167 17 244 -11 q 32 98 90 45 l 92 234 q 211 157 148 184 q 354 129 274 129 q 465 167 426 129 q 511 268 505 205 q 484 365 519 332 q 345 438 448 398 q 157 559 207 492 q 117 735 106 625 q 218 940 131 862 q 444 1018 304 1018 q 597 989 524 1018 q 717 910 669 960 l 664 780 q 554 852 611 827 q 437 878 497 878 q 338 846 375 878 q 295 753 302 814 q 324 661 289 693 q 468 586 360 629 q 653 465 604 532 q 691 289 702 399 q 578 69 676 149 q 332 -11 481 -11 m 393 1141 l 216 1333 l 285 1419 l 475 1282 l 688 1419 l 741 1333 l 527 1141 l 393 1141 z "},"Ș":{"ha":788,"x_min":32,"x_max":717,"o":"m 332 -11 q 167 17 244 -11 q 32 98 90 45 l 92 234 q 211 157 148 184 q 354 129 274 129 q 465 167 426 129 q 511 268 505 205 q 484 365 519 332 q 345 438 448 398 q 157 559 207 492 q 117 735 106 625 q 218 940 131 862 q 444 1018 304 1018 q 597 989 524 1018 q 717 910 669 960 l 664 780 q 554 852 611 827 q 437 878 497 878 q 338 846 375 878 q 295 753 302 814 q 324 661 289 693 q 468 586 360 629 q 653 465 604 532 q 691 289 702 399 q 578 69 676 149 q 332 -11 481 -11 m 117 -379 l 223 -126 l 453 -126 l 242 -379 l 117 -379 z "},"T":{"ha":788,"x_min":100,"x_max":780,"o":"m 253 0 l 343 870 l 100 870 l 115 1010 l 780 1010 l 765 870 l 520 870 l 429 0 l 253 0 z "},"Ţ":{"ha":788,"x_min":68,"x_max":780,"o":"m 253 0 l 343 870 l 100 870 l 115 1010 l 780 1010 l 765 870 l 520 870 l 429 0 l 253 0 m 298 0 l 323 53 q 452 2 408 42 q 489 -114 496 -38 q 416 -237 480 -197 q 266 -277 352 -277 q 121 -241 173 -277 q 71 -130 68 -206 l 222 -117 q 232 -151 221 -141 q 271 -160 244 -160 q 318 -146 302 -160 q 338 -88 333 -131 q 333 -29 342 -48 q 298 0 324 -10 z "},"Ť":{"ha":788,"x_min":100,"x_max":780,"o":"m 253 0 l 343 870 l 100 870 l 115 1010 l 780 1010 l 765 870 l 520 870 l 429 0 l 253 0 m 394 1141 l 217 1333 l 287 1419 l 476 1282 l 689 1419 l 742 1333 l 528 1141 l 394 1141 z "},"Ț":{"ha":788,"x_min":100,"x_max":780,"o":"m 253 0 l 343 870 l 100 870 l 115 1010 l 780 1010 l 765 870 l 520 870 l 429 0 l 253 0 m 124 -379 l 230 -126 l 460 -126 l 249 -379 l 124 -379 z "},"U":{"ha":788,"x_min":58,"x_max":746,"o":"m 340 -13 q 122 74 187 -13 q 77 341 58 160 l 148 1010 l 324 1010 l 254 341 q 265 177 242 223 q 355 131 287 131 q 455 177 423 131 q 499 341 487 223 l 569 1010 l 746 1010 l 676 341 q 574 74 657 160 q 340 -13 492 -13 z "},"Ù":{"ha":788,"x_min":58,"x_max":746,"o":"m 340 -13 q 122 74 187 -13 q 77 341 58 160 l 148 1010 l 324 1010 l 254 341 q 265 177 242 223 q 355 131 287 131 q 455 177 423 131 q 499 341 487 223 l 569 1010 l 746 1010 l 676 341 q 574 74 657 160 q 340 -13 492 -13 m 446 1136 l 246 1389 l 476 1389 l 571 1136 l 446 1136 z "},"Ú":{"ha":788,"x_min":58,"x_max":746,"o":"m 340 -13 q 122 74 187 -13 q 77 341 58 160 l 148 1010 l 324 1010 l 254 341 q 265 177 242 223 q 355 131 287 131 q 455 177 423 131 q 499 341 487 223 l 569 1010 l 746 1010 l 676 341 q 574 74 657 160 q 340 -13 492 -13 m 324 1136 l 473 1389 l 703 1389 l 449 1136 l 324 1136 z "},"Û":{"ha":788,"x_min":58,"x_max":746,"o":"m 340 -13 q 122 74 187 -13 q 77 341 58 160 l 148 1010 l 324 1010 l 254 341 q 265 177 242 223 q 355 131 287 131 q 455 177 423 131 q 499 341 487 223 l 569 1010 l 746 1010 l 676 341 q 574 74 657 160 q 340 -13 492 -13 m 259 1136 l 206 1222 l 420 1414 l 554 1414 l 731 1222 l 662 1138 l 472 1275 l 259 1136 z "},"Ü":{"ha":788,"x_min":58,"x_max":746,"o":"m 340 -13 q 122 74 187 -13 q 77 341 58 160 l 148 1010 l 324 1010 l 254 341 q 265 177 242 223 q 355 131 287 131 q 455 177 423 131 q 499 341 487 223 l 569 1010 l 746 1010 l 676 341 q 574 74 657 160 q 340 -13 492 -13 m 327 1140 q 263 1157 287 1140 q 244 1221 239 1174 l 245 1234 q 278 1299 250 1280 q 346 1317 306 1317 q 411 1299 388 1317 q 429 1234 434 1280 l 428 1221 q 395 1157 423 1174 q 327 1140 367 1140 m 592 1140 q 527 1157 551 1140 q 509 1221 504 1174 l 510 1234 q 542 1299 515 1280 q 611 1317 569 1317 q 676 1299 652 1317 q 694 1234 699 1280 l 693 1221 q 660 1157 688 1174 q 592 1140 631 1140 z "},"Ũ":{"ha":788,"x_min":58,"x_max":746,"o":"m 340 -13 q 122 74 187 -13 q 77 341 58 160 l 148 1010 l 324 1010 l 254 341 q 265 177 242 223 q 355 131 287 131 q 455 177 423 131 q 499 341 487 223 l 569 1010 l 746 1010 l 676 341 q 574 74 657 160 q 340 -13 492 -13 m 556 1149 q 486 1169 511 1149 q 443 1217 461 1189 q 417 1263 429 1242 q 385 1284 405 1284 q 350 1262 365 1284 q 330 1182 335 1240 l 328 1162 l 211 1162 l 212 1181 q 272 1346 223 1282 q 396 1410 321 1410 q 465 1391 439 1410 q 508 1342 490 1371 q 533 1295 521 1317 q 563 1274 545 1274 q 598 1297 583 1274 q 620 1378 614 1319 l 621 1398 l 739 1398 l 737 1379 q 678 1213 726 1277 q 556 1149 630 1149 z "},"Ū":{"ha":788,"x_min":58,"x_max":746,"o":"m 340 -13 q 122 74 187 -13 q 77 341 58 160 l 148 1010 l 324 1010 l 254 341 q 265 177 242 223 q 355 131 287 131 q 455 177 423 131 q 499 341 487 223 l 569 1010 l 746 1010 l 676 341 q 574 74 657 160 q 340 -13 492 -13 m 236 1193 l 251 1332 l 708 1332 l 693 1193 l 236 1193 z "},"Ŭ":{"ha":788,"x_min":58,"x_max":758,"o":"m 340 -13 q 122 74 187 -13 q 77 341 58 160 l 148 1010 l 324 1010 l 254 341 q 265 177 242 223 q 355 131 287 131 q 455 177 423 131 q 499 341 487 223 l 569 1010 l 746 1010 l 676 341 q 574 74 657 160 q 340 -13 492 -13 m 458 1128 q 265 1195 327 1128 q 217 1405 203 1263 l 366 1405 q 382 1280 357 1316 q 471 1245 407 1245 q 566 1280 535 1245 q 609 1405 597 1316 l 758 1405 q 665 1195 741 1263 q 458 1128 590 1128 z "},"Ů":{"ha":788,"x_min":58,"x_max":746,"o":"m 340 -13 q 122 74 187 -13 q 77 341 58 160 l 148 1010 l 324 1010 l 254 341 q 265 177 242 223 q 355 131 287 131 q 455 177 423 131 q 499 341 487 223 l 569 1010 l 746 1010 l 676 341 q 574 74 657 160 q 340 -13 492 -13 m 457 1114 q 314 1159 366 1114 q 271 1301 261 1205 l 277 1341 q 348 1485 287 1438 q 500 1532 409 1532 q 644 1485 592 1532 q 686 1341 696 1438 l 681 1301 q 609 1159 670 1205 q 457 1114 548 1114 m 467 1211 q 528 1232 506 1211 q 556 1301 551 1253 l 561 1341 q 547 1411 564 1388 q 490 1434 529 1434 q 428 1411 451 1434 q 402 1341 405 1388 l 396 1301 q 410 1232 391 1253 q 467 1211 428 1211 z "},"Ű":{"ha":788,"x_min":58,"x_max":790,"o":"m 340 -13 q 122 74 187 -13 q 77 341 58 160 l 148 1010 l 324 1010 l 254 341 q 265 177 242 223 q 355 131 287 131 q 455 177 423 131 q 499 341 487 223 l 569 1010 l 746 1010 l 676 341 q 574 74 657 160 q 340 -13 492 -13 m 529 1136 l 607 1389 l 790 1389 l 625 1136 l 529 1136 m 287 1136 l 365 1389 l 548 1389 l 383 1136 l 287 1136 z "},"Ų":{"ha":788,"x_min":58,"x_max":746,"o":"m 380 -275 q 253 -235 297 -275 q 216 -121 208 -194 q 275 -3 222 -56 q 394 72 328 49 l 417 29 q 367 -23 381 5 q 350 -80 354 -52 q 365 -131 347 -114 q 422 -148 383 -148 q 467 -144 441 -148 q 521 -135 492 -140 l 508 -261 q 442 -271 476 -268 q 380 -275 408 -275 m 340 -13 q 122 74 187 -13 q 77 341 58 160 l 148 1010 l 324 1010 l 254 341 q 265 177 242 223 q 355 131 287 131 q 455 177 423 131 q 499 341 487 223 l 569 1010 l 746 1010 l 676 341 q 574 74 657 160 q 340 -13 492 -13 z "},"V":{"ha":788,"x_min":98,"x_max":797,"o":"m 455 0 l 229 0 l 98 1010 l 277 1010 l 360 177 l 625 1010 l 797 1010 l 455 0 z "},"W":{"ha":788,"x_min":92,"x_max":802,"o":"m 429 0 l 398 525 l 255 0 l 97 0 l 92 1010 l 247 1010 l 217 230 l 355 758 l 486 758 l 518 240 l 649 1010 l 802 1010 l 585 0 l 429 0 z "},"Ŵ":{"ha":788,"x_min":92,"x_max":802,"o":"m 429 0 l 398 525 l 255 0 l 97 0 l 92 1010 l 247 1010 l 217 230 l 355 758 l 486 758 l 518 240 l 649 1010 l 802 1010 l 585 0 l 429 0 m 259 1136 l 206 1222 l 420 1414 l 554 1414 l 731 1222 l 662 1138 l 472 1275 l 259 1136 z "},"Ẁ":{"ha":788,"x_min":92,"x_max":802,"o":"m 429 0 l 398 525 l 255 0 l 97 0 l 92 1010 l 247 1010 l 217 230 l 355 758 l 486 758 l 518 240 l 649 1010 l 802 1010 l 585 0 l 429 0 m 449 1136 l 250 1389 l 480 1389 l 574 1136 l 449 1136 z "},"Ẃ":{"ha":788,"x_min":92,"x_max":802,"o":"m 429 0 l 398 525 l 255 0 l 97 0 l 92 1010 l 247 1010 l 217 230 l 355 758 l 486 758 l 518 240 l 649 1010 l 802 1010 l 585 0 l 429 0 m 328 1136 l 477 1389 l 707 1389 l 453 1136 l 328 1136 z "},"Ẅ":{"ha":788,"x_min":92,"x_max":802,"o":"m 429 0 l 398 525 l 255 0 l 97 0 l 92 1010 l 247 1010 l 217 230 l 355 758 l 486 758 l 518 240 l 649 1010 l 802 1010 l 585 0 l 429 0 m 335 1140 q 270 1157 294 1140 q 251 1221 246 1174 l 253 1234 q 285 1299 258 1280 q 354 1317 313 1317 q 419 1299 395 1317 q 437 1234 442 1280 l 436 1221 q 403 1157 431 1174 q 335 1140 375 1140 m 600 1140 q 535 1157 558 1140 q 516 1221 511 1174 l 518 1234 q 550 1299 523 1280 q 619 1317 577 1317 q 683 1299 659 1317 q 702 1234 707 1280 l 701 1221 q 667 1157 696 1174 q 600 1140 639 1140 z "},"X":{"ha":788,"x_min":-4,"x_max":793,"o":"m 506 0 l 374 341 l 173 0 l -4 0 l 312 519 l 129 1010 l 314 1010 l 432 702 l 616 1010 l 793 1010 l 492 520 l 683 0 l 506 0 z "},"Y":{"ha":788,"x_min":87,"x_max":806,"o":"m 429 0 l 253 0 l 293 379 l 87 1010 l 266 1010 l 400 547 l 626 1010 l 806 1010 l 470 379 l 429 0 z "},"Ý":{"ha":788,"x_min":87,"x_max":806,"o":"m 429 0 l 253 0 l 293 379 l 87 1010 l 266 1010 l 400 547 l 626 1010 l 806 1010 l 470 379 l 429 0 m 324 1136 l 473 1389 l 703 1389 l 449 1136 l 324 1136 z "},"Ŷ":{"ha":788,"x_min":87,"x_max":806,"o":"m 429 0 l 253 0 l 293 379 l 87 1010 l 266 1010 l 400 547 l 626 1010 l 806 1010 l 470 379 l 429 0 m 259 1136 l 206 1222 l 420 1414 l 554 1414 l 731 1222 l 662 1138 l 472 1275 l 259 1136 z "},"Ÿ":{"ha":788,"x_min":87,"x_max":806,"o":"m 429 0 l 253 0 l 293 379 l 87 1010 l 266 1010 l 400 547 l 626 1010 l 806 1010 l 470 379 l 429 0 m 327 1140 q 263 1157 287 1140 q 244 1221 239 1174 l 245 1234 q 278 1299 250 1280 q 346 1317 306 1317 q 411 1299 388 1317 q 429 1234 434 1280 l 428 1221 q 395 1157 423 1174 q 327 1140 367 1140 m 592 1140 q 527 1157 551 1140 q 509 1221 504 1174 l 510 1234 q 542 1299 515 1280 q 611 1317 569 1317 q 676 1299 652 1317 q 694 1234 699 1280 l 693 1221 q 660 1157 688 1174 q 592 1140 631 1140 z "},"Ỳ":{"ha":788,"x_min":87,"x_max":806,"o":"m 429 0 l 253 0 l 293 379 l 87 1010 l 266 1010 l 400 547 l 626 1010 l 806 1010 l 470 379 l 429 0 m 446 1136 l 246 1389 l 476 1389 l 571 1136 l 446 1136 z "},"Z":{"ha":788,"x_min":35,"x_max":754,"o":"m 648 0 l 35 0 l 51 140 l 558 870 l 126 870 l 141 1010 l 754 1010 l 739 870 l 239 140 l 663 140 l 648 0 z "},"Ź":{"ha":788,"x_min":35,"x_max":754,"o":"m 648 0 l 35 0 l 51 140 l 558 870 l 126 870 l 141 1010 l 754 1010 l 739 870 l 239 140 l 663 140 l 648 0 m 356 1136 l 505 1389 l 735 1389 l 481 1136 l 356 1136 z "},"Ż":{"ha":788,"x_min":35,"x_max":754,"o":"m 648 0 l 35 0 l 51 140 l 558 870 l 126 870 l 141 1010 l 754 1010 l 739 870 l 239 140 l 663 140 l 648 0 m 460 1140 q 374 1157 405 1140 q 347 1221 342 1174 l 348 1234 q 389 1299 354 1280 q 479 1317 424 1317 q 564 1299 533 1317 q 591 1234 596 1280 l 590 1221 q 549 1157 585 1174 q 460 1140 513 1140 z "},"Ž":{"ha":788,"x_min":35,"x_max":754,"o":"m 648 0 l 35 0 l 51 140 l 558 870 l 126 870 l 141 1010 l 754 1010 l 739 870 l 239 140 l 663 140 l 648 0 m 394 1141 l 217 1333 l 287 1419 l 476 1282 l 689 1419 l 742 1333 l 528 1141 l 394 1141 z "},"Æ":{"ha":788,"x_min":-20,"x_max":798,"o":"m 385 883 l 234 395 l 371 395 l 422 883 l 385 883 m 357 269 l 193 269 l 109 0 l -20 0 l 313 1010 l 798 1010 l 784 883 l 574 883 l 545 606 l 737 606 l 725 480 l 533 480 l 496 128 l 706 128 l 692 0 l 330 0 l 357 269 z "},"Ǽ":{"ha":788,"x_min":-20,"x_max":833,"o":"m 385 883 l 234 395 l 371 395 l 422 883 l 385 883 m 357 269 l 193 269 l 109 0 l -20 0 l 313 1010 l 798 1010 l 784 883 l 574 883 l 545 606 l 737 606 l 725 480 l 533 480 l 496 128 l 706 128 l 692 0 l 330 0 l 357 269 m 455 1136 l 604 1389 l 833 1389 l 580 1136 l 455 1136 z "},"Ð":{"ha":788,"x_min":15,"x_max":734,"o":"m 42 0 l 93 492 l 15 492 l 29 620 l 107 620 l 148 1010 l 438 1010 q 659 912 585 1010 q 716 652 734 814 l 684 354 q 573 96 668 192 q 331 0 477 0 l 42 0 m 234 140 l 332 140 q 453 193 412 140 q 508 362 495 245 l 537 643 q 518 816 549 763 q 408 870 487 870 l 309 870 l 284 620 l 407 620 l 393 492 l 270 492 l 234 140 z "},"Ø":{"ha":788,"x_min":45,"x_max":735,"o":"m 235 264 l 494 874 q 467 881 481 879 q 433 883 452 883 q 317 833 354 883 q 268 659 280 784 l 235 346 q 232 301 232 321 q 235 264 231 280 m 355 128 q 472 176 434 128 q 521 346 509 225 l 552 640 q 554 696 556 672 q 548 737 553 721 l 290 139 q 319 131 303 134 q 355 128 335 128 m 340 -13 q 287 -9 312 -13 q 239 3 261 -5 l 179 -126 l 45 -126 l 134 64 q 77 177 93 109 q 71 337 61 246 l 106 668 q 212 930 124 837 q 449 1023 301 1023 q 499 1020 475 1023 q 543 1010 523 1016 l 601 1136 l 735 1136 l 652 948 q 710 833 693 904 q 718 668 727 761 l 683 337 q 576 80 665 172 q 340 -13 487 -13 z "},"Ǿ":{"ha":788,"x_min":45,"x_max":739,"o":"m 235 264 l 494 874 q 467 881 481 879 q 433 883 452 883 q 317 833 354 883 q 268 659 280 784 l 235 346 q 232 301 232 321 q 235 264 231 280 m 355 128 q 472 176 434 128 q 521 346 509 225 l 552 640 q 554 696 556 672 q 548 737 553 721 l 290 139 q 319 131 303 134 q 355 128 335 128 m 340 -13 q 287 -9 312 -13 q 239 3 261 -5 l 179 -126 l 45 -126 l 134 64 q 77 177 93 109 q 71 337 61 246 l 106 668 q 212 930 124 837 q 449 1023 301 1023 q 499 1020 475 1023 q 543 1010 523 1016 l 601 1136 l 735 1136 l 652 948 q 710 833 693 904 q 718 668 727 761 l 683 337 q 576 80 665 172 q 340 -13 487 -13 m 360 1136 l 509 1389 l 739 1389 l 485 1136 l 360 1136 z "},"Þ":{"ha":788,"x_min":42,"x_max":726,"o":"m 42 0 l 148 1010 l 324 1010 l 308 850 l 449 850 q 659 780 592 850 q 712 580 726 711 l 698 446 q 603 246 684 314 q 379 177 521 177 l 237 177 l 218 0 l 42 0 m 251 314 l 372 314 q 479 346 446 314 q 521 453 513 378 l 534 576 q 515 681 542 650 q 414 711 487 711 l 293 711 l 251 314 z "},"Đ":{"ha":788,"x_min":15,"x_max":734,"o":"m 42 0 l 93 492 l 15 492 l 29 620 l 107 620 l 148 1010 l 438 1010 q 659 912 585 1010 q 716 652 734 814 l 684 354 q 573 96 668 192 q 331 0 477 0 l 42 0 m 234 140 l 332 140 q 453 193 412 140 q 508 362 495 245 l 537 643 q 518 816 549 763 q 408 870 487 870 l 309 870 l 284 620 l 407 620 l 393 492 l 270 492 l 234 140 z "},"Ħ":{"ha":788,"x_min":21,"x_max":822,"o":"m 278 539 l 518 539 l 535 703 l 295 703 l 278 539 m 263 399 l 221 0 l 44 0 l 119 703 l 21 703 l 34 830 l 131 830 l 150 1010 l 327 1010 l 308 830 l 548 830 l 567 1010 l 745 1010 l 726 830 l 822 830 l 809 703 l 713 703 l 639 0 l 461 0 l 503 399 l 263 399 z "},"Ĳ":{"ha":788,"x_min":21,"x_max":768,"o":"m 163 0 l 21 0 l 128 1010 l 269 1010 l 163 0 m 456 -13 q 301 66 346 -13 q 274 328 256 144 l 417 342 q 414 163 405 207 q 463 119 423 119 q 521 162 501 119 q 551 290 542 206 l 612 880 l 456 880 l 470 1010 l 768 1010 l 692 290 q 618 68 677 149 q 456 -13 559 -13 z "},"Ŀ":{"ha":788,"x_min":95,"x_max":824,"o":"m 95 0 l 201 1010 l 378 1010 l 287 140 l 655 140 l 640 0 l 95 0 m 688 505 q 602 522 634 505 q 576 586 571 539 l 577 598 q 617 664 582 645 q 707 682 653 682 q 793 664 761 682 q 819 598 824 645 l 818 586 q 777 522 813 539 q 688 505 741 505 z "},"Ł":{"ha":788,"x_min":53,"x_max":655,"o":"m 95 0 l 140 434 l 53 404 l 64 521 l 153 552 l 201 1010 l 378 1010 l 336 616 l 596 707 l 583 590 l 324 499 l 287 140 l 655 140 l 640 0 l 95 0 z "},"Ŋ":{"ha":788,"x_min":42,"x_max":735,"o":"m 354 -264 q 280 -254 317 -264 q 206 -227 244 -244 l 241 -92 q 298 -118 271 -109 q 348 -128 324 -128 q 426 -91 395 -128 q 467 33 457 -54 l 540 736 q 528 843 548 808 q 466 879 509 879 q 385 846 426 879 q 297 750 345 813 l 218 0 l 42 0 l 148 1010 l 324 1010 l 311 875 l 342 875 q 433 984 376 946 q 558 1023 490 1023 q 688 960 640 1023 q 722 780 735 896 l 641 14 q 548 -193 628 -121 q 354 -264 468 -264 z "},"Œ":{"ha":788,"x_min":18,"x_max":802,"o":"m 263 0 q 78 93 138 0 q 34 343 18 187 l 67 665 q 164 916 83 822 q 369 1010 244 1010 l 802 1010 l 788 883 l 574 883 l 547 615 l 725 615 l 712 487 l 534 487 l 496 128 l 710 128 l 696 0 l 263 0 m 288 131 l 343 131 l 422 879 l 366 879 q 265 825 301 879 q 218 663 230 771 l 186 346 q 198 185 174 239 q 288 131 222 131 z "},"Ŧ":{"ha":788,"x_min":100,"x_max":780,"o":"m 253 0 l 293 383 l 111 383 l 124 509 l 306 509 l 343 870 l 100 870 l 115 1010 l 780 1010 l 765 870 l 520 870 l 482 509 l 665 509 l 653 383 l 470 383 l 429 0 l 253 0 z "},"Α":{"ha":788,"x_min":-8,"x_max":691,"o":"m 480 408 l 434 857 l 289 408 l 480 408 m 520 0 l 492 269 l 244 269 l 157 0 l -8 0 l 342 1010 l 553 1010 l 691 0 l 520 0 z "},"Ά":{"ha":788,"x_min":-8,"x_max":691,"o":"m 480 408 l 434 857 l 289 408 l 480 408 m 520 0 l 492 269 l 244 269 l 157 0 l -8 0 l 342 1010 l 553 1010 l 691 0 l 520 0 m 51 884 l 135 1136 l 355 1136 l 164 884 l 51 884 z "},"Β":{"ha":788,"x_min":42,"x_max":716,"o":"m 42 0 l 148 1010 l 457 1010 q 654 951 592 1010 q 703 773 716 891 l 698 721 q 653 608 691 650 q 549 553 616 566 l 545 516 q 654 455 619 508 q 682 321 689 402 l 676 261 q 580 66 662 131 q 351 0 499 0 l 42 0 m 280 590 l 396 590 q 485 618 456 590 q 521 711 515 646 l 527 755 q 509 847 533 818 q 427 875 486 875 l 311 875 l 280 590 m 232 135 l 356 135 q 458 168 424 135 q 500 274 492 201 l 505 323 q 485 428 513 395 q 390 461 458 461 l 266 461 l 232 135 z "},"Γ":{"ha":788,"x_min":77,"x_max":768,"o":"m 77 0 l 183 1010 l 768 1010 l 753 870 l 346 870 l 255 0 l 77 0 z "},"Δ":{"ha":788,"x_min":8,"x_max":691,"o":"m 8 0 l 23 140 l 330 1010 l 569 1010 l 691 140 l 676 0 l 8 0 m 528 140 l 432 869 l 177 140 l 528 140 z "},"Ε":{"ha":788,"x_min":42,"x_max":754,"o":"m 42 0 l 148 1010 l 754 1010 l 739 870 l 309 870 l 283 615 l 659 615 l 645 475 l 269 475 l 234 140 l 663 140 l 648 0 l 42 0 z "},"Έ":{"ha":788,"x_min":-104,"x_max":754,"o":"m 42 0 l 148 1010 l 754 1010 l 739 870 l 309 870 l 283 615 l 659 615 l 645 475 l 269 475 l 234 140 l 663 140 l 648 0 l 42 0 m -104 884 l -19 1136 l 201 1136 l 10 884 l -104 884 z "},"Ζ":{"ha":788,"x_min":35,"x_max":754,"o":"m 648 0 l 35 0 l 51 140 l 558 870 l 126 870 l 141 1010 l 754 1010 l 739 870 l 239 140 l 663 140 l 648 0 z "},"Η":{"ha":788,"x_min":42,"x_max":746,"o":"m 42 0 l 148 1010 l 324 1010 l 284 624 l 529 624 l 569 1010 l 746 1010 l 640 0 l 463 0 l 514 484 l 269 484 l 218 0 l 42 0 z "},"Ή":{"ha":788,"x_min":-121,"x_max":746,"o":"m 42 0 l 148 1010 l 324 1010 l 284 624 l 529 624 l 569 1010 l 746 1010 l 640 0 l 463 0 l 514 484 l 269 484 l 218 0 l 42 0 m -121 884 l -37 1136 l 183 1136 l -8 884 l -121 884 z "},"Θ":{"ha":788,"x_min":45,"x_max":742,"o":"m 340 -13 q 117 78 189 -13 q 63 337 45 169 l 98 668 q 207 930 116 837 q 449 1023 298 1023 q 671 930 600 1023 q 725 668 742 837 l 689 337 q 581 78 672 169 q 340 -13 491 -13 m 355 128 q 478 176 438 128 q 530 346 518 225 l 563 659 q 546 832 576 782 q 433 883 516 883 q 310 832 350 883 q 258 659 270 782 l 225 346 q 242 176 212 225 q 355 128 271 128 m 301 446 l 314 577 l 492 577 l 479 446 l 301 446 z "},"Ι":{"ha":788,"x_min":42,"x_max":746,"o":"m 42 0 l 57 140 l 268 140 l 343 870 l 133 870 l 148 1010 l 746 1010 l 731 870 l 520 870 l 444 140 l 655 140 l 640 0 l 42 0 z "},"Ί":{"ha":788,"x_min":-121,"x_max":746,"o":"m 42 0 l 57 140 l 268 140 l 343 870 l 133 870 l 148 1010 l 746 1010 l 731 870 l 520 870 l 444 140 l 655 140 l 640 0 l 42 0 m -121 884 l -37 1136 l 183 1136 l -8 884 l -121 884 z "},"Ϊ":{"ha":788,"x_min":42,"x_max":746,"o":"m 42 0 l 57 140 l 268 140 l 343 870 l 133 870 l 148 1010 l 746 1010 l 731 870 l 520 870 l 444 140 l 655 140 l 640 0 l 42 0 m 327 1140 q 263 1157 287 1140 q 244 1221 239 1174 l 245 1234 q 278 1299 250 1280 q 346 1317 306 1317 q 411 1299 388 1317 q 429 1234 434 1280 l 428 1221 q 395 1157 423 1174 q 327 1140 367 1140 m 592 1140 q 527 1157 551 1140 q 509 1221 504 1174 l 510 1234 q 542 1299 515 1280 q 611 1317 569 1317 q 676 1299 652 1317 q 694 1234 699 1280 l 693 1221 q 660 1157 688 1174 q 592 1140 631 1140 z "},"Κ":{"ha":788,"x_min":42,"x_max":804,"o":"m 266 460 l 218 0 l 42 0 l 148 1010 l 324 1010 l 282 601 l 322 601 l 605 1010 l 804 1010 l 457 545 l 694 0 l 496 0 l 311 460 l 266 460 z "},"Λ":{"ha":788,"x_min":-8,"x_max":691,"o":"m 520 0 l 434 857 l 157 0 l -8 0 l 342 1010 l 553 1010 l 691 0 l 520 0 z "},"Μ":{"ha":788,"x_min":23,"x_max":765,"o":"m 309 274 l 242 740 l 179 0 l 23 0 l 129 1010 l 307 1010 l 394 472 l 592 1010 l 765 1010 l 659 0 l 503 0 l 596 734 l 432 274 l 309 274 z "},"Ν":{"ha":788,"x_min":42,"x_max":746,"o":"m 426 0 l 275 779 l 193 0 l 42 0 l 148 1010 l 350 1010 l 511 215 l 595 1010 l 746 1010 l 640 0 l 426 0 z "},"Ξ":{"ha":788,"x_min":35,"x_max":754,"o":"m 126 870 l 141 1010 l 754 1010 l 739 870 l 126 870 m 111 475 l 125 615 l 686 615 l 672 475 l 111 475 m 35 0 l 51 140 l 663 140 l 648 0 l 35 0 z "},"Ο":{"ha":788,"x_min":53,"x_max":736,"o":"m 340 -13 q 122 76 191 -13 q 69 328 53 165 l 106 677 q 212 932 124 842 q 449 1023 301 1023 q 667 932 597 1023 q 718 677 736 842 l 682 328 q 577 76 665 165 q 340 -13 489 -13 m 355 128 q 460 174 427 128 q 505 337 492 220 l 540 668 q 529 836 553 789 q 433 883 505 883 q 329 836 362 883 q 283 668 295 789 l 247 337 q 259 174 235 220 q 355 128 284 128 z "},"Ό":{"ha":788,"x_min":-6,"x_max":739,"o":"m 342 -13 q 124 76 193 -13 q 72 328 56 165 l 109 677 q 215 932 126 842 q 452 1023 303 1023 q 669 932 600 1023 q 721 677 739 842 l 684 328 q 580 76 668 165 q 342 -13 491 -13 m 357 128 q 462 174 429 128 q 508 337 495 220 l 543 668 q 532 836 556 789 q 436 883 508 883 q 331 836 365 883 q 285 668 298 789 l 250 337 q 262 174 237 220 q 357 128 287 128 m -6 884 l 78 1136 l 298 1136 l 107 884 l -6 884 z "},"Π":{"ha":788,"x_min":42,"x_max":746,"o":"m 42 0 l 148 1010 l 746 1010 l 640 0 l 463 0 l 554 870 l 309 870 l 218 0 l 42 0 z "},"Ρ":{"ha":788,"x_min":42,"x_max":744,"o":"m 42 0 l 148 1010 l 466 1010 q 676 944 609 1010 q 730 740 744 878 l 715 601 q 621 400 701 463 q 395 337 540 337 l 254 337 l 218 0 l 42 0 m 268 473 l 399 473 q 498 504 465 473 q 539 612 532 535 l 552 730 q 533 838 559 807 q 441 870 506 870 l 309 870 l 268 473 z "},"Σ":{"ha":788,"x_min":47,"x_max":732,"o":"m 626 0 l 47 0 l 62 140 l 433 518 l 138 870 l 153 1010 l 732 1010 l 717 870 l 326 870 l 561 583 l 548 467 l 237 140 l 641 140 l 626 0 z "},"Τ":{"ha":788,"x_min":100,"x_max":780,"o":"m 253 0 l 343 870 l 100 870 l 115 1010 l 780 1010 l 765 870 l 520 870 l 429 0 l 253 0 z "},"Υ":{"ha":788,"x_min":87,"x_max":806,"o":"m 429 0 l 253 0 l 293 379 l 87 1010 l 266 1010 l 400 547 l 626 1010 l 806 1010 l 470 379 l 429 0 z "},"Ύ":{"ha":788,"x_min":-131,"x_max":806,"o":"m 429 0 l 253 0 l 293 379 l 87 1010 l 266 1010 l 400 547 l 626 1010 l 806 1010 l 470 379 l 429 0 m -131 884 l -47 1136 l 173 1136 l -18 884 l -131 884 z "},"Ϋ":{"ha":788,"x_min":87,"x_max":806,"o":"m 429 0 l 253 0 l 293 379 l 87 1010 l 266 1010 l 400 547 l 626 1010 l 806 1010 l 470 379 l 429 0 m 327 1140 q 263 1157 287 1140 q 244 1221 239 1174 l 245 1234 q 278 1299 250 1280 q 346 1317 306 1317 q 411 1299 388 1317 q 429 1234 434 1280 l 428 1221 q 395 1157 423 1174 q 327 1140 367 1140 m 592 1140 q 527 1157 551 1140 q 509 1221 504 1174 l 510 1234 q 542 1299 515 1280 q 611 1317 569 1317 q 676 1299 652 1317 q 694 1234 699 1280 l 693 1221 q 660 1157 688 1174 q 592 1140 631 1140 z "},"Φ":{"ha":788,"x_min":40,"x_max":747,"o":"m 444 114 l 426 114 l 413 -13 l 265 -13 l 278 114 l 260 114 q 92 196 143 114 q 56 426 40 279 l 72 580 q 157 812 88 727 q 343 896 226 896 l 361 896 l 374 1023 l 521 1023 l 509 896 l 528 896 q 696 812 645 896 q 731 580 747 727 l 715 426 q 631 196 699 279 q 444 114 562 114 m 515 761 l 489 761 l 436 249 l 462 249 q 531 293 506 249 q 564 426 556 337 l 581 580 q 575 715 591 669 q 515 761 559 761 m 274 249 l 298 249 l 351 761 l 327 761 q 257 715 282 761 q 222 580 232 669 l 206 426 q 213 293 197 337 q 274 249 229 249 z "},"Χ":{"ha":788,"x_min":-4,"x_max":793,"o":"m 506 0 l 374 341 l 173 0 l -4 0 l 312 519 l 129 1010 l 314 1010 l 432 702 l 616 1010 l 793 1010 l 492 520 l 683 0 l 506 0 z "},"Ψ":{"ha":788,"x_min":72,"x_max":761,"o":"m 415 0 l 266 0 l 292 241 q 122 347 173 261 q 86 568 72 432 l 133 1010 l 280 1010 l 235 573 q 242 441 226 487 q 308 383 259 395 l 374 1010 l 520 1010 l 455 383 q 533 441 506 394 q 568 573 559 487 l 614 1010 l 761 1010 l 715 568 q 633 347 701 432 q 441 241 564 261 l 415 0 z "},"Ω":{"ha":788,"x_min":24,"x_max":746,"o":"m 303 0 l 24 0 l 38 126 l 162 126 l 173 245 q 90 347 111 279 q 77 510 68 415 l 95 668 q 203 932 112 841 q 448 1023 294 1023 q 674 932 602 1023 q 729 668 746 841 l 711 510 q 665 347 702 415 q 561 245 629 279 l 549 126 l 672 126 l 658 0 l 379 0 l 409 290 q 496 362 468 307 q 533 510 524 418 l 551 670 q 535 832 562 785 q 433 879 509 879 q 321 832 359 879 q 273 670 284 785 l 255 510 q 263 362 246 418 q 333 290 279 307 l 303 0 z "},"Ώ":{"ha":788,"x_min":-44,"x_max":746,"o":"m 303 0 l 24 0 l 38 126 l 162 126 l 173 245 q 90 347 111 279 q 77 510 68 415 l 95 668 q 203 932 112 841 q 448 1023 294 1023 q 674 932 602 1023 q 729 668 746 841 l 711 510 q 665 347 702 415 q 561 245 629 279 l 549 126 l 672 126 l 658 0 l 379 0 l 409 290 q 496 362 468 307 q 533 510 524 418 l 551 670 q 535 832 562 785 q 433 879 509 879 q 321 832 359 879 q 273 670 284 785 l 255 510 q 263 362 246 418 q 333 290 279 307 l 303 0 m -44 884 l 40 1136 l 260 1136 l 69 884 l -44 884 z "},"Ω":{"ha":788,"x_min":24,"x_max":746,"o":"m 303 0 l 24 0 l 38 126 l 162 126 l 173 245 q 90 347 111 279 q 77 510 68 415 l 95 668 q 203 932 112 841 q 448 1023 294 1023 q 674 932 602 1023 q 729 668 746 841 l 711 510 q 665 347 702 415 q 561 245 629 279 l 549 126 l 672 126 l 658 0 l 379 0 l 409 290 q 496 362 468 307 q 533 510 524 418 l 551 670 q 535 832 562 785 q 433 879 509 879 q 321 832 359 879 q 273 670 284 785 l 255 510 q 263 362 246 418 q 333 290 279 307 l 303 0 z "},"Ђ":{"ha":788,"x_min":81,"x_max":716,"o":"m 119 0 l 210 870 l 81 870 l 96 1010 l 593 1010 l 578 870 l 386 870 l 365 657 l 460 657 q 654 586 592 657 q 701 378 716 516 l 691 279 q 600 70 677 140 q 390 0 523 0 l 404 138 q 484 170 455 138 q 520 282 513 202 l 530 375 q 517 487 539 455 q 444 519 495 519 l 350 519 l 295 0 l 119 0 z "},"Є":{"ha":788,"x_min":53,"x_max":755,"o":"m 708 333 q 596 72 682 157 q 356 -13 510 -13 q 126 75 198 -13 q 71 333 53 163 l 106 672 q 215 934 124 845 q 465 1023 307 1023 q 687 938 619 1023 q 744 672 755 854 l 566 659 q 545 836 571 790 q 444 883 520 883 q 331 836 366 883 q 282 663 295 790 l 277 615 l 461 615 l 447 475 l 263 475 l 247 341 q 261 172 235 217 q 367 128 288 128 q 477 173 443 128 q 533 346 510 218 l 708 333 z "},"Ѕ":{"ha":788,"x_min":32,"x_max":717,"o":"m 332 -11 q 167 17 244 -11 q 32 98 90 45 l 92 234 q 211 157 148 184 q 354 129 274 129 q 465 167 426 129 q 511 268 505 205 q 484 365 519 332 q 345 438 448 398 q 157 559 207 492 q 117 735 106 625 q 218 940 131 862 q 444 1018 304 1018 q 597 989 524 1018 q 717 910 669 960 l 664 780 q 554 852 611 827 q 437 878 497 878 q 338 846 375 878 q 295 753 302 814 q 324 661 289 693 q 468 586 360 629 q 653 465 604 532 q 691 289 702 399 q 578 69 676 149 q 332 -11 481 -11 z "},"І":{"ha":788,"x_min":42,"x_max":746,"o":"m 42 0 l 57 140 l 268 140 l 343 870 l 133 870 l 148 1010 l 746 1010 l 731 870 l 520 870 l 444 140 l 655 140 l 640 0 l 42 0 z "},"Ї":{"ha":788,"x_min":42,"x_max":746,"o":"m 42 0 l 57 140 l 268 140 l 343 870 l 133 870 l 148 1010 l 746 1010 l 731 870 l 520 870 l 444 140 l 655 140 l 640 0 l 42 0 m 327 1140 q 263 1157 287 1140 q 244 1221 239 1174 l 245 1234 q 278 1299 250 1280 q 346 1317 306 1317 q 411 1299 388 1317 q 429 1234 434 1280 l 428 1221 q 395 1157 423 1174 q 327 1140 367 1140 m 592 1140 q 527 1157 551 1140 q 509 1221 504 1174 l 510 1234 q 542 1299 515 1280 q 611 1317 569 1317 q 676 1299 652 1317 q 694 1234 699 1280 l 693 1221 q 660 1157 688 1174 q 592 1140 631 1140 z "},"Ј":{"ha":788,"x_min":37,"x_max":732,"o":"m 324 -13 q 100 68 163 -13 q 49 337 37 149 l 227 351 q 245 172 222 216 q 337 128 268 128 q 437 171 402 128 q 482 313 472 215 l 540 870 l 307 870 l 322 1010 l 732 1010 l 659 316 q 559 73 643 159 q 324 -13 476 -13 z "},"Љ":{"ha":788,"x_min":-45,"x_max":721,"o":"m 202 194 q 145 43 191 93 q 27 -8 98 -8 q -9 -4 9 -8 q -45 5 -27 -1 l -10 141 q 6 136 -1 139 q 21 134 13 134 q 51 154 38 134 q 69 226 63 174 l 160 1010 l 525 1010 l 490 673 l 547 673 q 681 610 640 673 q 707 422 721 548 l 689 258 q 623 64 677 129 q 476 0 569 0 l 280 0 l 372 879 l 282 879 l 202 194 m 433 131 l 471 131 q 525 163 505 131 q 552 270 544 194 l 567 408 q 561 513 574 482 q 514 544 548 544 l 476 544 l 433 131 z "},"Њ":{"ha":788,"x_min":20,"x_max":721,"o":"m 433 131 l 470 131 q 525 163 505 131 q 552 270 544 194 l 567 408 q 561 513 574 482 q 513 544 548 544 l 476 544 l 433 131 m 208 484 l 158 0 l 20 0 l 126 1010 l 264 1010 l 223 624 l 346 624 l 386 1010 l 525 1010 l 490 673 l 547 673 q 681 610 640 673 q 707 422 721 548 l 689 258 q 623 64 677 129 q 475 0 569 0 l 280 0 l 331 484 l 208 484 z "},"Ћ":{"ha":788,"x_min":77,"x_max":713,"o":"m 293 0 l 115 0 l 206 870 l 77 870 l 92 1010 l 597 1010 l 582 870 l 384 870 l 359 622 l 463 622 q 655 559 596 622 q 699 365 713 495 l 662 0 l 484 0 l 520 354 q 508 455 528 424 q 441 486 489 486 l 343 486 l 293 0 z "},"Џ":{"ha":788,"x_min":42,"x_max":746,"o":"m 232 -189 l 253 0 l 42 0 l 148 1010 l 324 1010 l 234 140 l 479 140 l 569 1010 l 746 1010 l 640 0 l 429 0 l 409 -189 l 232 -189 z "},"А":{"ha":788,"x_min":-8,"x_max":691,"o":"m 480 408 l 434 857 l 289 408 l 480 408 m 520 0 l 492 269 l 244 269 l 157 0 l -8 0 l 342 1010 l 553 1010 l 691 0 l 520 0 z "},"Б":{"ha":788,"x_min":42,"x_max":710,"o":"m 42 0 l 148 1010 l 710 1010 l 694 870 l 309 870 l 283 611 l 441 611 q 640 544 574 611 q 692 351 706 476 l 684 277 q 590 73 670 145 q 378 0 510 0 l 42 0 m 234 140 l 371 140 q 468 173 436 140 q 509 284 500 206 l 514 332 q 496 441 521 409 q 405 473 470 473 l 268 473 l 234 140 z "},"В":{"ha":788,"x_min":42,"x_max":716,"o":"m 42 0 l 148 1010 l 457 1010 q 654 951 592 1010 q 703 773 716 891 l 698 721 q 653 608 691 650 q 549 553 616 566 l 545 516 q 654 455 619 508 q 682 321 689 402 l 676 261 q 580 66 662 131 q 351 0 499 0 l 42 0 m 280 590 l 396 590 q 485 618 456 590 q 521 711 515 646 l 527 755 q 509 847 533 818 q 427 875 486 875 l 311 875 l 280 590 m 232 135 l 356 135 q 458 168 424 135 q 500 274 492 201 l 505 323 q 485 428 513 395 q 390 461 458 461 l 266 461 l 232 135 z "},"Г":{"ha":788,"x_min":77,"x_max":768,"o":"m 77 0 l 183 1010 l 768 1010 l 753 870 l 346 870 l 255 0 l 77 0 z "},"Ѓ":{"ha":788,"x_min":77,"x_max":768,"o":"m 77 0 l 183 1010 l 768 1010 l 753 870 l 346 870 l 255 0 l 77 0 m 365 1136 l 514 1389 l 744 1389 l 490 1136 l 365 1136 z "},"Д":{"ha":788,"x_min":-45,"x_max":705,"o":"m 235 169 l 232 140 l 451 140 l 527 870 l 357 870 l 304 384 q 280 254 295 307 q 235 169 264 201 m 139 0 l 119 -189 l -45 -189 l -10 140 l 58 140 q 110 225 90 167 q 143 390 131 283 l 213 1010 l 703 1010 l 612 140 l 705 140 l 669 -189 l 505 -189 l 525 0 l 139 0 z "},"Е":{"ha":788,"x_min":42,"x_max":754,"o":"m 42 0 l 148 1010 l 754 1010 l 739 870 l 309 870 l 283 615 l 659 615 l 645 475 l 269 475 l 234 140 l 663 140 l 648 0 l 42 0 z "},"Ѐ":{"ha":788,"x_min":42,"x_max":754,"o":"m 42 0 l 148 1010 l 754 1010 l 739 870 l 309 870 l 283 615 l 659 615 l 645 475 l 269 475 l 234 140 l 663 140 l 648 0 l 42 0 m 442 1136 l 242 1389 l 472 1389 l 567 1136 l 442 1136 z "},"Ё":{"ha":788,"x_min":42,"x_max":754,"o":"m 42 0 l 148 1010 l 754 1010 l 739 870 l 309 870 l 283 615 l 659 615 l 645 475 l 269 475 l 234 140 l 663 140 l 648 0 l 42 0 m 345 1140 q 280 1157 304 1140 q 261 1221 256 1174 l 263 1234 q 295 1299 268 1280 q 364 1317 323 1317 q 429 1299 405 1317 q 447 1234 452 1280 l 446 1221 q 413 1157 441 1174 q 345 1140 385 1140 m 610 1140 q 545 1157 568 1140 q 527 1221 521 1174 l 528 1234 q 560 1299 533 1280 q 629 1317 587 1317 q 693 1299 669 1317 q 712 1234 717 1280 l 711 1221 q 677 1157 706 1174 q 610 1140 649 1140 z "},"Ж":{"ha":788,"x_min":-14,"x_max":804,"o":"m 280 468 l 129 0 l -14 0 l 186 559 l 91 1010 l 234 1010 l 298 591 l 337 591 l 381 1010 l 513 1010 l 468 591 l 509 591 l 660 1010 l 804 1010 l 621 556 l 696 0 l 553 0 l 501 468 l 456 468 l 407 0 l 275 0 l 324 468 l 280 468 z "},"З":{"ha":788,"x_min":45,"x_max":721,"o":"m 338 -13 q 115 59 184 -13 q 53 282 45 131 l 232 294 q 258 160 231 196 q 352 125 285 125 q 457 159 424 125 q 497 269 490 193 l 504 319 q 483 432 511 399 q 383 465 455 465 l 278 465 l 292 604 l 396 604 q 489 627 461 604 q 524 715 518 650 l 530 768 q 513 859 537 832 q 428 885 490 885 q 343 853 370 885 q 299 739 316 821 l 125 751 q 224 956 146 890 q 444 1023 302 1023 q 653 961 586 1023 q 708 777 721 900 l 703 735 q 646 609 696 655 q 527 554 597 563 l 523 518 q 644 451 598 509 q 679 304 689 394 l 676 266 q 579 57 662 128 q 338 -13 496 -13 z "},"И":{"ha":788,"x_min":42,"x_max":746,"o":"m 485 0 l 567 777 l 258 0 l 42 0 l 148 1010 l 303 1010 l 220 216 l 545 1010 l 746 1010 l 640 0 l 485 0 z "},"Ѝ":{"ha":788,"x_min":42,"x_max":746,"o":"m 485 0 l 567 777 l 258 0 l 42 0 l 148 1010 l 303 1010 l 220 216 l 545 1010 l 746 1010 l 640 0 l 485 0 m 428 1136 l 229 1389 l 458 1389 l 553 1136 l 428 1136 z "},"Й":{"ha":788,"x_min":42,"x_max":750,"o":"m 485 0 l 567 777 l 258 0 l 42 0 l 148 1010 l 303 1010 l 220 216 l 545 1010 l 746 1010 l 640 0 l 485 0 m 462 1128 q 282 1191 348 1128 q 230 1393 215 1254 l 388 1405 q 396 1282 378 1318 q 475 1245 415 1245 q 561 1282 534 1245 q 595 1405 587 1318 l 750 1393 q 655 1191 735 1254 q 462 1128 576 1128 z "},"К":{"ha":788,"x_min":42,"x_max":804,"o":"m 266 460 l 218 0 l 42 0 l 148 1010 l 324 1010 l 282 601 l 322 601 l 605 1010 l 804 1010 l 457 545 l 694 0 l 496 0 l 311 460 l 266 460 z "},"Ќ":{"ha":788,"x_min":42,"x_max":804,"o":"m 266 460 l 218 0 l 42 0 l 148 1010 l 324 1010 l 282 601 l 322 601 l 605 1010 l 804 1010 l 457 545 l 694 0 l 496 0 l 311 460 l 266 460 m 398 1136 l 547 1389 l 777 1389 l 523 1136 l 398 1136 z "},"Л":{"ha":788,"x_min":-29,"x_max":746,"o":"m 463 0 l 554 870 l 384 870 l 322 298 q 242 64 304 141 q 74 -14 179 -14 q 23 -9 49 -14 q -29 4 -3 -5 l 8 143 q 34 134 20 138 q 61 130 48 130 q 116 170 95 130 q 148 314 138 211 l 226 1010 l 746 1010 l 640 0 l 463 0 z "},"М":{"ha":788,"x_min":23,"x_max":765,"o":"m 309 274 l 242 740 l 179 0 l 23 0 l 129 1010 l 307 1010 l 394 472 l 592 1010 l 765 1010 l 659 0 l 503 0 l 596 734 l 432 274 l 309 274 z "},"Н":{"ha":788,"x_min":42,"x_max":746,"o":"m 42 0 l 148 1010 l 324 1010 l 284 624 l 529 624 l 569 1010 l 746 1010 l 640 0 l 463 0 l 514 484 l 269 484 l 218 0 l 42 0 z "},"О":{"ha":788,"x_min":53,"x_max":736,"o":"m 340 -13 q 122 76 191 -13 q 69 328 53 165 l 106 677 q 212 932 124 842 q 449 1023 301 1023 q 667 932 597 1023 q 718 677 736 842 l 682 328 q 577 76 665 165 q 340 -13 489 -13 m 355 128 q 460 174 427 128 q 505 337 492 220 l 540 668 q 529 836 553 789 q 433 883 505 883 q 329 836 362 883 q 283 668 295 789 l 247 337 q 259 174 235 220 q 355 128 284 128 z "},"П":{"ha":788,"x_min":42,"x_max":746,"o":"m 42 0 l 148 1010 l 746 1010 l 640 0 l 463 0 l 554 870 l 309 870 l 218 0 l 42 0 z "},"Р":{"ha":788,"x_min":42,"x_max":744,"o":"m 42 0 l 148 1010 l 466 1010 q 676 944 609 1010 q 730 740 744 878 l 715 601 q 621 400 701 463 q 395 337 540 337 l 254 337 l 218 0 l 42 0 m 268 473 l 399 473 q 498 504 465 473 q 539 612 532 535 l 552 730 q 533 838 559 807 q 441 870 506 870 l 309 870 l 268 473 z "},"С":{"ha":788,"x_min":52,"x_max":754,"o":"m 356 -13 q 123 74 194 -13 q 71 333 52 160 l 106 672 q 214 934 124 846 q 465 1023 304 1023 q 688 939 622 1023 q 744 672 754 855 l 566 659 q 547 836 572 790 q 448 883 521 883 q 331 833 369 883 q 282 663 294 784 l 247 341 q 263 177 236 227 q 370 128 290 128 q 477 172 443 128 q 533 346 510 217 l 708 333 q 598 70 682 153 q 356 -13 514 -13 z "},"Т":{"ha":788,"x_min":100,"x_max":780,"o":"m 253 0 l 343 870 l 100 870 l 115 1010 l 780 1010 l 765 870 l 520 870 l 429 0 l 253 0 z "},"У":{"ha":788,"x_min":29,"x_max":783,"o":"m 158 -4 q 93 1 126 -4 q 29 11 61 5 l 63 152 q 117 140 92 144 q 163 136 143 136 q 251 164 217 136 q 307 251 284 191 l 314 274 l 254 274 l 110 1010 l 284 1010 l 386 462 l 610 1010 l 783 1010 l 449 203 q 330 45 403 93 q 158 -4 256 -4 z "},"Ў":{"ha":788,"x_min":29,"x_max":783,"o":"m 158 -4 q 93 1 126 -4 q 29 11 61 5 l 63 152 q 117 140 92 144 q 163 136 143 136 q 251 164 217 136 q 307 251 284 191 l 314 274 l 254 274 l 110 1010 l 284 1010 l 386 462 l 610 1010 l 783 1010 l 449 203 q 330 45 403 93 q 158 -4 256 -4 m 458 1128 q 278 1191 345 1128 q 226 1393 211 1254 l 384 1405 q 393 1282 374 1318 q 471 1245 412 1245 q 557 1282 530 1245 q 591 1405 583 1318 l 746 1393 q 652 1191 731 1254 q 458 1128 572 1128 z "},"Ф":{"ha":788,"x_min":40,"x_max":747,"o":"m 444 114 l 426 114 l 413 -13 l 265 -13 l 278 114 l 260 114 q 92 196 143 114 q 56 426 40 279 l 72 580 q 157 812 88 727 q 343 896 226 896 l 361 896 l 374 1023 l 521 1023 l 509 896 l 528 896 q 696 812 645 896 q 731 580 747 727 l 715 426 q 631 196 699 279 q 444 114 562 114 m 515 761 l 489 761 l 436 249 l 462 249 q 531 293 506 249 q 564 426 556 337 l 581 580 q 575 715 591 669 q 515 761 559 761 m 274 249 l 298 249 l 351 761 l 327 761 q 257 715 282 761 q 222 580 232 669 l 206 426 q 213 293 197 337 q 274 249 229 249 z "},"Х":{"ha":788,"x_min":-4,"x_max":793,"o":"m 506 0 l 374 341 l 173 0 l -4 0 l 312 519 l 129 1010 l 314 1010 l 432 702 l 616 1010 l 793 1010 l 492 520 l 683 0 l 506 0 z "},"Ц":{"ha":788,"x_min":42,"x_max":708,"o":"m 496 -189 l 516 0 l 42 0 l 148 1010 l 324 1010 l 234 140 l 441 140 l 532 1010 l 708 1010 l 617 140 l 708 140 l 673 -189 l 496 -189 z "},"Ч":{"ha":788,"x_min":88,"x_max":742,"o":"m 742 1010 l 636 0 l 460 0 l 495 341 l 372 341 q 153 408 218 341 q 104 620 88 476 l 144 1010 l 321 1010 l 280 622 q 299 512 273 547 q 388 477 326 477 l 510 477 l 566 1010 l 742 1010 z "},"Ш":{"ha":788,"x_min":14,"x_max":774,"o":"m 14 0 l 120 1010 l 269 1010 l 177 133 l 283 133 l 375 1010 l 519 1010 l 427 133 l 533 133 l 625 1010 l 774 1010 l 668 0 l 14 0 z "},"Щ":{"ha":788,"x_min":14,"x_max":774,"o":"m 691 -211 l 537 -211 l 559 0 l 14 0 l 120 1010 l 269 1010 l 177 133 l 283 133 l 375 1010 l 519 1010 l 427 133 l 533 133 l 625 1010 l 774 1010 l 682 133 l 727 133 l 691 -211 z "},"Ъ":{"ha":788,"x_min":66,"x_max":721,"o":"m 403 0 l 133 0 l 223 870 l 66 870 l 81 1010 l 412 1010 l 376 673 l 473 673 q 664 608 606 673 q 707 408 721 543 l 692 270 q 607 66 678 133 q 403 0 535 0 m 321 140 l 398 140 q 484 173 456 140 q 521 283 513 206 l 533 395 q 519 504 540 471 q 439 537 497 537 l 362 537 l 321 140 z "},"Ы":{"ha":788,"x_min":25,"x_max":763,"o":"m 25 0 l 131 1010 l 279 1010 l 244 673 l 280 673 q 441 609 393 673 q 475 413 489 544 l 460 266 q 384 66 446 131 q 210 0 322 0 l 25 0 m 509 0 l 615 1010 l 763 1010 l 657 0 l 509 0 m 187 133 l 221 133 q 286 165 263 133 q 317 278 309 198 l 330 400 q 322 511 338 479 q 264 544 306 544 l 230 544 l 187 133 z "},"Ь":{"ha":788,"x_min":42,"x_max":729,"o":"m 42 0 l 148 1010 l 324 1010 l 289 673 l 453 673 q 664 608 598 673 q 715 410 729 543 l 699 269 q 607 67 686 134 q 381 0 528 0 l 42 0 m 234 140 l 374 140 q 479 172 442 140 q 524 280 516 205 l 537 398 q 514 505 544 473 q 415 537 484 537 l 275 537 l 234 140 z "},"Э":{"ha":788,"x_min":54,"x_max":758,"o":"m 346 -13 q 124 72 193 -13 q 66 333 54 157 l 244 346 q 263 174 239 221 q 364 128 287 128 q 480 179 446 128 q 527 341 515 230 l 542 475 l 340 475 l 354 615 l 556 615 l 561 663 q 548 835 574 788 q 442 883 521 883 q 332 835 366 883 q 277 659 298 787 l 101 672 q 215 936 128 850 q 453 1023 302 1023 q 688 932 617 1023 q 740 672 758 842 l 705 333 q 598 76 687 165 q 346 -13 510 -13 z "},"Ю":{"ha":788,"x_min":14,"x_max":759,"o":"m 455 -13 q 306 65 351 -13 q 275 282 261 143 l 297 479 l 212 479 l 162 0 l 14 0 l 120 1010 l 268 1010 l 226 611 l 311 611 l 322 720 q 399 943 337 864 q 564 1023 461 1023 q 714 943 669 1023 q 744 720 759 864 l 697 282 q 621 65 683 143 q 455 -13 559 -13 m 468 124 q 521 160 504 124 q 548 282 539 196 l 595 720 q 594 847 604 809 q 549 885 585 885 q 495 847 514 885 q 467 720 476 809 l 420 282 q 422 160 412 196 q 468 124 433 124 z "},"Я":{"ha":788,"x_min":8,"x_max":746,"o":"m 379 516 l 518 516 l 554 870 l 415 870 q 319 838 351 870 q 279 735 287 807 l 271 658 q 289 549 263 582 q 379 516 314 516 m 504 379 l 413 379 l 198 0 l 8 0 l 237 396 q 124 485 158 420 q 101 657 90 551 l 110 740 q 198 943 124 875 q 408 1010 273 1010 l 746 1010 l 640 0 l 463 0 l 504 379 z "},"Ґ":{"ha":788,"x_min":77,"x_max":788,"o":"m 77 0 l 183 1010 l 591 1010 l 611 1199 l 788 1199 l 753 870 l 346 870 l 255 0 l 77 0 z "},"a":{"ha":788,"x_min":35,"x_max":699,"o":"m 284 111 q 362 128 327 111 q 429 183 398 145 l 443 314 l 303 314 q 238 292 261 314 q 210 212 215 270 q 222 138 205 164 q 284 111 239 111 m 229 -13 q 86 45 138 -13 q 45 205 35 104 q 123 364 57 307 q 288 420 189 420 l 455 420 l 466 529 q 449 610 472 583 q 371 638 426 638 q 289 612 317 638 q 239 514 260 586 l 96 544 q 201 717 131 663 q 390 770 270 770 q 584 715 518 770 q 638 539 650 659 l 604 211 q 622 138 597 153 q 699 134 646 124 l 686 0 q 549 8 600 -18 q 490 111 497 34 l 462 111 q 363 23 426 59 q 229 -13 301 -13 z "},"à":{"ha":788,"x_min":35,"x_max":699,"o":"m 284 111 q 362 128 327 111 q 429 183 398 145 l 443 314 l 303 314 q 238 292 261 314 q 210 212 215 270 q 222 138 205 164 q 284 111 239 111 m 229 -13 q 86 45 138 -13 q 45 205 35 104 q 123 364 57 307 q 288 420 189 420 l 455 420 l 466 529 q 449 610 472 583 q 371 638 426 638 q 289 612 317 638 q 239 514 260 586 l 96 544 q 201 717 131 663 q 390 770 270 770 q 584 715 518 770 q 638 539 650 659 l 604 211 q 622 138 597 153 q 699 134 646 124 l 686 0 q 549 8 600 -18 q 490 111 497 34 l 462 111 q 363 23 426 59 q 229 -13 301 -13 m 407 884 l 207 1136 l 437 1136 l 532 884 l 407 884 z "},"á":{"ha":788,"x_min":35,"x_max":699,"o":"m 284 111 q 362 128 327 111 q 429 183 398 145 l 443 314 l 303 314 q 238 292 261 314 q 210 212 215 270 q 222 138 205 164 q 284 111 239 111 m 229 -13 q 86 45 138 -13 q 45 205 35 104 q 123 364 57 307 q 288 420 189 420 l 455 420 l 466 529 q 449 610 472 583 q 371 638 426 638 q 289 612 317 638 q 239 514 260 586 l 96 544 q 201 717 131 663 q 390 770 270 770 q 584 715 518 770 q 638 539 650 659 l 604 211 q 622 138 597 153 q 699 134 646 124 l 686 0 q 549 8 600 -18 q 490 111 497 34 l 462 111 q 363 23 426 59 q 229 -13 301 -13 m 285 884 l 434 1136 l 664 1136 l 410 884 l 285 884 z "},"â":{"ha":788,"x_min":35,"x_max":699,"o":"m 284 111 q 362 128 327 111 q 429 183 398 145 l 443 314 l 303 314 q 238 292 261 314 q 210 212 215 270 q 222 138 205 164 q 284 111 239 111 m 229 -13 q 86 45 138 -13 q 45 205 35 104 q 123 364 57 307 q 288 420 189 420 l 455 420 l 466 529 q 449 610 472 583 q 371 638 426 638 q 289 612 317 638 q 239 514 260 586 l 96 544 q 201 717 131 663 q 390 770 270 770 q 584 715 518 770 q 638 539 650 659 l 604 211 q 622 138 597 153 q 699 134 646 124 l 686 0 q 549 8 600 -18 q 490 111 497 34 l 462 111 q 363 23 426 59 q 229 -13 301 -13 m 223 884 l 170 970 l 385 1162 l 519 1162 l 696 970 l 626 885 l 437 1023 l 223 884 z "},"ã":{"ha":788,"x_min":35,"x_max":699,"o":"m 284 111 q 362 128 327 111 q 429 183 398 145 l 443 314 l 303 314 q 238 292 261 314 q 210 212 215 270 q 222 138 205 164 q 284 111 239 111 m 229 -13 q 86 45 138 -13 q 45 205 35 104 q 123 364 57 307 q 288 420 189 420 l 455 420 l 466 529 q 449 610 472 583 q 371 638 426 638 q 289 612 317 638 q 239 514 260 586 l 96 544 q 201 717 131 663 q 390 770 270 770 q 584 715 518 770 q 638 539 650 659 l 604 211 q 622 138 597 153 q 699 134 646 124 l 686 0 q 549 8 600 -18 q 490 111 497 34 l 462 111 q 363 23 426 59 q 229 -13 301 -13 m 516 896 q 447 917 472 896 q 404 965 422 937 q 378 1011 390 990 q 346 1032 366 1032 q 311 1009 326 1032 q 290 929 295 987 l 289 909 l 172 909 l 173 928 q 233 1093 184 1029 q 357 1158 282 1158 q 426 1138 400 1158 q 468 1090 451 1119 q 494 1043 482 1064 q 524 1021 506 1021 q 559 1044 544 1021 q 581 1125 574 1067 l 582 1145 l 699 1145 l 698 1126 q 639 960 687 1024 q 516 896 591 896 z "},"ä":{"ha":788,"x_min":35,"x_max":699,"o":"m 284 111 q 362 128 327 111 q 429 183 398 145 l 443 314 l 303 314 q 238 292 261 314 q 210 212 215 270 q 222 138 205 164 q 284 111 239 111 m 229 -13 q 86 45 138 -13 q 45 205 35 104 q 123 364 57 307 q 288 420 189 420 l 455 420 l 466 529 q 449 610 472 583 q 371 638 426 638 q 289 612 317 638 q 239 514 260 586 l 96 544 q 201 717 131 663 q 390 770 270 770 q 584 715 518 770 q 638 539 650 659 l 604 211 q 622 138 597 153 q 699 134 646 124 l 686 0 q 549 8 600 -18 q 490 111 497 34 l 462 111 q 363 23 426 59 q 229 -13 301 -13 m 288 888 q 223 905 247 888 q 205 968 199 922 l 206 981 q 239 1046 211 1028 q 307 1064 266 1064 q 372 1046 348 1064 q 390 981 395 1028 l 389 968 q 356 905 384 922 q 288 888 328 888 m 553 888 q 488 905 511 888 q 470 968 465 922 l 471 981 q 503 1046 476 1028 q 572 1064 530 1064 q 636 1046 612 1064 q 655 981 660 1028 l 654 968 q 621 905 649 922 q 553 888 592 888 z "},"å":{"ha":788,"x_min":35,"x_max":699,"o":"m 284 111 q 362 128 327 111 q 429 183 398 145 l 443 314 l 303 314 q 238 292 261 314 q 210 212 215 270 q 222 138 205 164 q 284 111 239 111 m 229 -13 q 86 45 138 -13 q 45 205 35 104 q 123 364 57 307 q 288 420 189 420 l 455 420 l 466 529 q 449 610 472 583 q 371 638 426 638 q 289 612 317 638 q 239 514 260 586 l 96 544 q 201 717 131 663 q 390 770 270 770 q 584 715 518 770 q 638 539 650 659 l 604 211 q 622 138 597 153 q 699 134 646 124 l 686 0 q 549 8 600 -18 q 490 111 497 34 l 462 111 q 363 23 426 59 q 229 -13 301 -13 m 412 861 q 268 907 321 861 q 226 1048 216 952 l 231 1088 q 302 1232 241 1186 q 455 1279 364 1279 q 598 1232 547 1279 q 640 1088 650 1186 l 635 1048 q 564 907 625 952 q 412 861 503 861 m 422 958 q 483 979 461 958 q 510 1048 505 1000 l 515 1088 q 501 1158 519 1135 q 444 1182 484 1182 q 383 1158 405 1182 q 356 1088 360 1135 l 351 1048 q 364 979 346 1000 q 422 958 383 958 z "},"ā":{"ha":788,"x_min":35,"x_max":699,"o":"m 284 111 q 362 128 327 111 q 429 183 398 145 l 443 314 l 303 314 q 238 292 261 314 q 210 212 215 270 q 222 138 205 164 q 284 111 239 111 m 229 -13 q 86 45 138 -13 q 45 205 35 104 q 123 364 57 307 q 288 420 189 420 l 455 420 l 466 529 q 449 610 472 583 q 371 638 426 638 q 289 612 317 638 q 239 514 260 586 l 96 544 q 201 717 131 663 q 390 770 270 770 q 584 715 518 770 q 638 539 650 659 l 604 211 q 622 138 597 153 q 699 134 646 124 l 686 0 q 549 8 600 -18 q 490 111 497 34 l 462 111 q 363 23 426 59 q 229 -13 301 -13 m 191 941 l 206 1080 l 663 1080 l 648 941 l 191 941 z "},"ă":{"ha":788,"x_min":35,"x_max":712,"o":"m 284 111 q 362 128 327 111 q 429 183 398 145 l 443 314 l 303 314 q 238 292 261 314 q 210 212 215 270 q 222 138 205 164 q 284 111 239 111 m 229 -13 q 86 45 138 -13 q 45 205 35 104 q 123 364 57 307 q 288 420 189 420 l 455 420 l 466 529 q 449 610 472 583 q 371 638 426 638 q 289 612 317 638 q 239 514 260 586 l 96 544 q 201 717 131 663 q 390 770 270 770 q 584 715 518 770 q 638 539 650 659 l 604 211 q 622 138 597 153 q 699 134 646 124 l 686 0 q 549 8 600 -18 q 490 111 497 34 l 462 111 q 363 23 426 59 q 229 -13 301 -13 m 413 875 q 220 943 282 875 q 172 1153 158 1010 l 321 1153 q 336 1028 312 1063 q 426 992 361 992 q 521 1028 490 992 q 563 1153 552 1063 l 712 1153 q 620 943 696 1010 q 413 875 544 875 z "},"ą":{"ha":788,"x_min":35,"x_max":715,"o":"m 284 111 q 362 128 327 111 q 429 183 398 145 l 443 314 l 303 314 q 238 292 261 314 q 210 212 215 270 q 222 138 205 164 q 284 111 239 111 m 229 -13 q 86 45 138 -13 q 45 205 35 104 q 123 364 57 307 q 288 420 189 420 l 455 420 l 466 529 q 449 610 472 583 q 371 638 426 638 q 289 612 317 638 q 239 514 260 586 l 96 544 q 201 717 131 663 q 390 770 270 770 q 584 715 518 770 q 638 539 650 659 l 604 211 q 622 138 597 153 q 699 134 646 124 l 686 0 q 549 8 600 -18 q 490 111 497 34 l 462 111 q 363 23 426 59 q 229 -13 301 -13 m 573 -275 q 446 -235 490 -275 q 409 -121 402 -194 q 468 -3 415 -56 q 587 72 521 49 l 610 29 q 561 -23 574 5 q 543 -80 547 -52 q 558 -131 540 -114 q 615 -148 576 -148 q 660 -144 634 -148 q 715 -135 686 -140 l 701 -261 q 635 -271 669 -268 q 573 -275 601 -275 z "},"ǻ":{"ha":788,"x_min":35,"x_max":713,"o":"m 284 111 q 362 128 327 111 q 429 183 398 145 l 443 314 l 303 314 q 238 292 261 314 q 210 212 215 270 q 222 138 205 164 q 284 111 239 111 m 229 -13 q 86 45 138 -13 q 45 205 35 104 q 123 364 57 307 q 288 420 189 420 l 455 420 l 466 529 q 449 610 472 583 q 371 638 426 638 q 289 612 317 638 q 239 514 260 586 l 96 544 q 201 717 131 663 q 390 770 270 770 q 584 715 518 770 q 638 539 650 659 l 604 211 q 622 138 597 153 q 699 134 646 124 l 686 0 q 549 8 600 -18 q 490 111 497 34 l 462 111 q 363 23 426 59 q 229 -13 301 -13 m 412 861 q 268 907 321 861 q 226 1048 216 952 l 231 1088 q 302 1232 241 1186 q 455 1279 364 1279 q 598 1232 547 1279 q 640 1088 650 1186 l 635 1048 q 564 907 625 952 q 412 861 503 861 m 422 958 q 483 979 461 958 q 510 1048 505 1000 l 515 1088 q 501 1158 519 1135 q 444 1182 484 1182 q 383 1158 405 1182 q 356 1088 360 1135 l 351 1048 q 364 979 346 1000 q 422 958 383 958 m 335 1263 l 484 1515 l 713 1515 l 460 1263 l 335 1263 z "},"b":{"ha":788,"x_min":57,"x_max":698,"o":"m 332 -11 q 180 11 254 -11 q 57 72 106 34 l 155 1010 l 332 1010 l 294 644 l 326 644 q 405 738 354 706 q 523 770 456 770 q 657 700 615 770 q 687 511 698 630 l 660 260 q 562 59 646 129 q 332 -11 477 -11 m 354 122 q 445 155 414 122 q 484 261 476 187 l 508 494 q 496 595 515 563 q 431 626 476 626 q 355 604 391 626 q 282 534 318 582 l 242 157 q 292 131 266 140 q 354 122 318 122 z "},"":{"ha":788,"x_min":57,"x_max":698,"o":"m 332 -11 q 180 11 254 -11 q 57 72 106 34 l 155 1010 l 332 1010 l 294 644 l 326 644 q 405 738 354 706 q 523 770 456 770 q 657 700 615 770 q 687 511 698 630 l 660 260 q 562 59 646 129 q 332 -11 477 -11 m 354 122 q 445 155 414 122 q 484 261 476 187 l 508 494 q 496 595 515 563 q 431 626 476 626 q 355 604 391 626 q 282 534 318 582 l 242 157 q 292 131 266 140 q 354 122 318 122 z "},"c":{"ha":788,"x_min":63,"x_max":692,"o":"m 351 -13 q 133 59 202 -13 q 77 261 63 130 l 101 495 q 200 698 115 626 q 432 770 285 770 q 629 703 567 770 q 691 501 692 636 l 519 490 q 498 603 523 572 q 413 634 473 634 q 318 601 351 634 q 278 489 285 568 l 254 266 q 271 155 246 188 q 361 122 297 122 q 451 148 422 122 q 492 242 481 174 l 662 231 q 568 47 641 107 q 351 -13 494 -13 z "},"ç":{"ha":788,"x_min":63,"x_max":692,"o":"m 351 -13 q 133 59 202 -13 q 77 261 63 130 l 101 495 q 200 698 115 626 q 432 770 285 770 q 629 703 567 770 q 691 501 692 636 l 519 490 q 498 603 523 572 q 413 634 473 634 q 318 601 351 634 q 278 489 285 568 l 254 266 q 271 155 246 188 q 361 122 297 122 q 451 148 422 122 q 492 242 481 174 l 662 231 q 568 47 641 107 q 351 -13 494 -13 m 341 0 l 366 53 q 495 2 451 42 q 532 -114 539 -38 q 459 -237 523 -197 q 309 -277 395 -277 q 164 -241 216 -277 q 114 -130 111 -206 l 265 -117 q 275 -151 264 -141 q 314 -160 287 -160 q 360 -146 345 -160 q 381 -88 376 -131 q 376 -29 385 -48 q 341 0 367 -10 z "},"ć":{"ha":788,"x_min":63,"x_max":713,"o":"m 351 -13 q 133 59 202 -13 q 77 261 63 130 l 101 495 q 200 698 115 626 q 432 770 285 770 q 629 703 567 770 q 691 501 692 636 l 519 490 q 498 603 523 572 q 413 634 473 634 q 318 601 351 634 q 278 489 285 568 l 254 266 q 271 155 246 188 q 361 122 297 122 q 451 148 422 122 q 492 242 481 174 l 662 231 q 568 47 641 107 q 351 -13 494 -13 m 335 884 l 484 1136 l 713 1136 l 460 884 l 335 884 z "},"ĉ":{"ha":788,"x_min":63,"x_max":716,"o":"m 351 -13 q 133 59 202 -13 q 77 261 63 130 l 101 495 q 200 698 115 626 q 432 770 285 770 q 629 703 567 770 q 691 501 692 636 l 519 490 q 498 603 523 572 q 413 634 473 634 q 318 601 351 634 q 278 489 285 568 l 254 266 q 271 155 246 188 q 361 122 297 122 q 451 148 422 122 q 492 242 481 174 l 662 231 q 568 47 641 107 q 351 -13 494 -13 m 244 884 l 191 970 l 405 1162 l 539 1162 l 716 970 l 646 885 l 457 1023 l 244 884 z "},"ċ":{"ha":788,"x_min":63,"x_max":692,"o":"m 351 -13 q 133 59 202 -13 q 77 261 63 130 l 101 495 q 200 698 115 626 q 432 770 285 770 q 629 703 567 770 q 691 501 692 636 l 519 490 q 498 603 523 572 q 413 634 473 634 q 318 601 351 634 q 278 489 285 568 l 254 266 q 271 155 246 188 q 361 122 297 122 q 451 148 422 122 q 492 242 481 174 l 662 231 q 568 47 641 107 q 351 -13 494 -13 m 441 888 q 355 905 386 888 q 328 968 323 922 l 330 981 q 370 1046 335 1028 q 460 1064 405 1064 q 545 1046 514 1064 q 572 981 577 1028 l 571 968 q 530 905 566 922 q 441 888 494 888 z "},"č":{"ha":788,"x_min":63,"x_max":723,"o":"m 351 -13 q 133 59 202 -13 q 77 261 63 130 l 101 495 q 200 698 115 626 q 432 770 285 770 q 629 703 567 770 q 691 501 692 636 l 519 490 q 498 603 523 572 q 413 634 473 634 q 318 601 351 634 q 278 489 285 568 l 254 266 q 271 155 246 188 q 361 122 297 122 q 451 148 422 122 q 492 242 481 174 l 662 231 q 568 47 641 107 q 351 -13 494 -13 m 375 889 l 198 1081 l 268 1167 l 457 1029 l 670 1167 l 723 1081 l 509 889 l 375 889 z "},"d":{"ha":788,"x_min":63,"x_max":739,"o":"m 331 131 q 407 154 371 131 q 480 223 443 177 l 518 593 q 466 625 492 615 q 408 635 439 635 q 316 602 347 635 q 278 496 285 568 l 254 264 q 266 164 246 196 q 331 131 285 131 m 436 114 q 360 22 410 57 q 242 -13 309 -13 q 105 59 148 -13 q 74 246 63 131 l 101 497 q 193 697 115 625 q 394 769 270 769 q 468 760 432 769 q 533 735 504 751 l 562 1010 l 739 1010 l 633 0 l 456 0 l 467 114 l 436 114 z "},"ď":{"ha":788,"x_min":63,"x_max":1104,"o":"m 331 131 q 407 154 371 131 q 480 223 443 177 l 518 593 q 466 625 492 615 q 408 635 439 635 q 316 602 347 635 q 278 496 285 568 l 254 264 q 266 164 246 196 q 331 131 285 131 m 436 114 q 360 22 410 57 q 242 -13 309 -13 q 105 59 148 -13 q 74 246 63 131 l 101 497 q 193 697 115 625 q 394 769 270 769 q 468 760 432 769 q 533 735 504 751 l 562 1010 l 739 1010 l 633 0 l 456 0 l 467 114 l 436 114 m 773 890 l 876 1263 l 1104 1263 l 878 890 l 773 890 z "},"e":{"ha":788,"x_min":63,"x_max":698,"o":"m 658 170 q 547 30 616 72 q 347 -13 477 -13 q 137 57 211 -13 q 77 259 63 128 l 102 500 q 203 700 115 630 q 423 770 290 770 q 628 698 557 770 q 684 489 698 626 l 669 345 l 263 345 l 253 253 q 271 146 245 181 q 364 112 297 112 q 456 135 422 112 q 513 213 490 158 l 658 170 m 279 509 l 274 451 l 504 451 l 509 500 q 494 614 516 580 q 409 648 471 648 q 317 615 347 648 q 279 509 287 582 z "},"è":{"ha":788,"x_min":63,"x_max":698,"o":"m 658 170 q 547 30 616 72 q 347 -13 477 -13 q 137 57 211 -13 q 77 259 63 128 l 102 500 q 203 700 115 630 q 423 770 290 770 q 628 698 557 770 q 684 489 698 626 l 669 345 l 263 345 l 253 253 q 271 146 245 181 q 364 112 297 112 q 456 135 422 112 q 513 213 490 158 l 658 170 m 279 509 l 274 451 l 504 451 l 509 500 q 494 614 516 580 q 409 648 471 648 q 317 615 347 648 q 279 509 287 582 m 424 884 l 225 1136 l 455 1136 l 549 884 l 424 884 z "},"é":{"ha":788,"x_min":63,"x_max":698,"o":"m 658 170 q 547 30 616 72 q 347 -13 477 -13 q 137 57 211 -13 q 77 259 63 128 l 102 500 q 203 700 115 630 q 423 770 290 770 q 628 698 557 770 q 684 489 698 626 l 669 345 l 263 345 l 253 253 q 271 146 245 181 q 364 112 297 112 q 456 135 422 112 q 513 213 490 158 l 658 170 m 279 509 l 274 451 l 504 451 l 509 500 q 494 614 516 580 q 409 648 471 648 q 317 615 347 648 q 279 509 287 582 m 317 884 l 466 1136 l 696 1136 l 442 884 l 317 884 z "},"ê":{"ha":788,"x_min":63,"x_max":710,"o":"m 658 170 q 547 30 616 72 q 347 -13 477 -13 q 137 57 211 -13 q 77 259 63 128 l 102 500 q 203 700 115 630 q 423 770 290 770 q 628 698 557 770 q 684 489 698 626 l 669 345 l 263 345 l 253 253 q 271 146 245 181 q 364 112 297 112 q 456 135 422 112 q 513 213 490 158 l 658 170 m 279 509 l 274 451 l 504 451 l 509 500 q 494 614 516 580 q 409 648 471 648 q 317 615 347 648 q 279 509 287 582 m 237 884 l 184 970 l 399 1162 l 533 1162 l 710 970 l 640 885 l 451 1023 l 237 884 z "},"ë":{"ha":788,"x_min":63,"x_max":698,"o":"m 658 170 q 547 30 616 72 q 347 -13 477 -13 q 137 57 211 -13 q 77 259 63 128 l 102 500 q 203 700 115 630 q 423 770 290 770 q 628 698 557 770 q 684 489 698 626 l 669 345 l 263 345 l 253 253 q 271 146 245 181 q 364 112 297 112 q 456 135 422 112 q 513 213 490 158 l 658 170 m 279 509 l 274 451 l 504 451 l 509 500 q 494 614 516 580 q 409 648 471 648 q 317 615 347 648 q 279 509 287 582 m 306 888 q 241 905 265 888 q 222 968 217 922 l 223 981 q 256 1046 229 1028 q 324 1064 284 1064 q 390 1046 366 1064 q 408 981 413 1028 l 407 968 q 374 905 402 922 q 306 888 346 888 m 571 888 q 506 905 529 888 q 487 968 482 922 l 489 981 q 521 1046 494 1028 q 590 1064 548 1064 q 654 1046 630 1064 q 673 981 678 1028 l 672 968 q 638 905 667 922 q 571 888 610 888 z "},"ē":{"ha":788,"x_min":63,"x_max":698,"o":"m 658 170 q 547 30 616 72 q 347 -13 477 -13 q 137 57 211 -13 q 77 259 63 128 l 102 500 q 203 700 115 630 q 423 770 290 770 q 628 698 557 770 q 684 489 698 626 l 669 345 l 263 345 l 253 253 q 271 146 245 181 q 364 112 297 112 q 456 135 422 112 q 513 213 490 158 l 658 170 m 279 509 l 274 451 l 504 451 l 509 500 q 494 614 516 580 q 409 648 471 648 q 317 615 347 648 q 279 509 287 582 m 215 941 l 230 1080 l 687 1080 l 672 941 l 215 941 z "},"ĕ":{"ha":788,"x_min":63,"x_max":729,"o":"m 658 170 q 547 30 616 72 q 347 -13 477 -13 q 137 57 211 -13 q 77 259 63 128 l 102 500 q 203 700 115 630 q 423 770 290 770 q 628 698 557 770 q 684 489 698 626 l 669 345 l 263 345 l 253 253 q 271 146 245 181 q 364 112 297 112 q 456 135 422 112 q 513 213 490 158 l 658 170 m 279 509 l 274 451 l 504 451 l 509 500 q 494 614 516 580 q 409 648 471 648 q 317 615 347 648 q 279 509 287 582 m 429 875 q 236 943 298 875 q 188 1153 174 1010 l 337 1153 q 353 1028 328 1063 q 442 992 378 992 q 537 1028 506 992 q 580 1153 568 1063 l 729 1153 q 636 943 712 1010 q 429 875 561 875 z "},"ė":{"ha":788,"x_min":63,"x_max":698,"o":"m 658 170 q 547 30 616 72 q 347 -13 477 -13 q 137 57 211 -13 q 77 259 63 128 l 102 500 q 203 700 115 630 q 423 770 290 770 q 628 698 557 770 q 684 489 698 626 l 669 345 l 263 345 l 253 253 q 271 146 245 181 q 364 112 297 112 q 456 135 422 112 q 513 213 490 158 l 658 170 m 279 509 l 274 451 l 504 451 l 509 500 q 494 614 516 580 q 409 648 471 648 q 317 615 347 648 q 279 509 287 582 m 438 888 q 352 905 384 888 q 326 968 321 922 l 327 981 q 367 1046 332 1028 q 457 1064 403 1064 q 543 1046 511 1064 q 569 981 574 1028 l 568 968 q 527 905 563 922 q 438 888 491 888 z "},"ę":{"ha":788,"x_min":63,"x_max":698,"o":"m 460 -275 q 332 -235 376 -275 q 295 -121 288 -194 q 355 -3 302 -56 q 473 72 408 49 l 496 29 q 447 -23 461 5 q 429 -80 433 -52 q 444 -131 427 -114 q 501 -148 462 -148 q 546 -144 520 -148 q 601 -135 572 -140 l 587 -261 q 521 -271 556 -268 q 460 -275 487 -275 m 658 170 q 547 30 616 72 q 347 -13 477 -13 q 137 57 211 -13 q 77 259 63 128 l 102 500 q 203 700 115 630 q 423 770 290 770 q 628 698 557 770 q 684 489 698 626 l 669 345 l 263 345 l 253 253 q 271 146 245 181 q 364 112 297 112 q 456 135 422 112 q 513 213 490 158 l 658 170 m 279 509 l 274 451 l 504 451 l 509 500 q 494 614 516 580 q 409 648 471 648 q 317 615 347 648 q 279 509 287 582 z "},"ě":{"ha":788,"x_min":63,"x_max":721,"o":"m 658 170 q 547 30 616 72 q 347 -13 477 -13 q 137 57 211 -13 q 77 259 63 128 l 102 500 q 203 700 115 630 q 423 770 290 770 q 628 698 557 770 q 684 489 698 626 l 669 345 l 263 345 l 253 253 q 271 146 245 181 q 364 112 297 112 q 456 135 422 112 q 513 213 490 158 l 658 170 m 279 509 l 274 451 l 504 451 l 509 500 q 494 614 516 580 q 409 648 471 648 q 317 615 347 648 q 279 509 287 582 m 372 889 l 196 1081 l 265 1167 l 455 1029 l 668 1167 l 721 1081 l 506 889 l 372 889 z "},"f":{"ha":788,"x_min":107,"x_max":751,"o":"m 188 -253 l 280 622 l 107 622 l 121 758 l 294 758 l 299 804 q 390 973 311 912 q 582 1035 468 1035 q 672 1026 626 1035 q 751 1001 718 1016 l 717 876 q 650 898 683 891 q 587 904 617 904 q 511 879 540 904 q 475 797 481 855 l 471 758 l 712 758 l 698 622 l 457 622 l 365 -253 l 188 -253 z "},"g":{"ha":788,"x_min":-8,"x_max":742,"o":"m 667 -52 q 585 -210 655 -154 q 408 -265 514 -265 l 221 -265 q 49 -218 105 -265 q 1 -83 -8 -170 q 43 16 8 -21 q 129 59 78 53 l 131 85 q 72 124 95 95 q 56 213 49 153 q 104 318 62 274 q 210 369 146 361 l 212 391 q 138 451 159 410 q 121 535 116 491 l 122 558 q 208 703 133 649 q 396 758 283 758 l 742 758 l 730 635 l 563 663 l 561 638 q 619 588 598 625 q 635 509 640 551 l 633 486 q 550 344 624 396 q 360 292 476 292 l 264 292 q 211 276 231 292 q 187 222 192 260 q 202 169 183 186 q 258 152 221 152 l 461 152 q 621 103 563 152 q 667 -52 678 54 m 365 394 q 441 420 415 394 q 471 496 466 446 l 476 544 q 461 619 482 595 q 391 644 441 644 q 316 619 342 644 q 284 544 290 595 l 279 496 q 294 420 274 446 q 365 394 314 394 m 246 -152 l 422 -152 q 487 -133 461 -152 q 520 -66 514 -115 q 502 -1 524 -19 q 443 16 480 16 l 181 16 l 173 -59 q 184 -128 168 -105 q 246 -152 201 -152 z "},"ĝ":{"ha":788,"x_min":-8,"x_max":742,"o":"m 667 -52 q 585 -210 655 -154 q 408 -265 514 -265 l 221 -265 q 49 -218 105 -265 q 1 -83 -8 -170 q 43 16 8 -21 q 129 59 78 53 l 131 85 q 72 124 95 95 q 56 213 49 153 q 104 318 62 274 q 210 369 146 361 l 212 391 q 138 451 159 410 q 121 535 116 491 l 122 558 q 208 703 133 649 q 396 758 283 758 l 742 758 l 730 635 l 563 663 l 561 638 q 619 588 598 625 q 635 509 640 551 l 633 486 q 550 344 624 396 q 360 292 476 292 l 264 292 q 211 276 231 292 q 187 222 192 260 q 202 169 183 186 q 258 152 221 152 l 461 152 q 621 103 563 152 q 667 -52 678 54 m 365 394 q 441 420 415 394 q 471 496 466 446 l 476 544 q 461 619 482 595 q 391 644 441 644 q 316 619 342 644 q 284 544 290 595 l 279 496 q 294 420 274 446 q 365 394 314 394 m 246 -152 l 422 -152 q 487 -133 461 -152 q 520 -66 514 -115 q 502 -1 524 -19 q 443 16 480 16 l 181 16 l 173 -59 q 184 -128 168 -105 q 246 -152 201 -152 m 237 884 l 184 970 l 399 1162 l 533 1162 l 710 970 l 640 885 l 451 1023 l 237 884 z "},"ğ":{"ha":788,"x_min":-8,"x_max":742,"o":"m 667 -52 q 585 -210 655 -154 q 408 -265 514 -265 l 221 -265 q 49 -218 105 -265 q 1 -83 -8 -170 q 43 16 8 -21 q 129 59 78 53 l 131 85 q 72 124 95 95 q 56 213 49 153 q 104 318 62 274 q 210 369 146 361 l 212 391 q 138 451 159 410 q 121 535 116 491 l 122 558 q 208 703 133 649 q 396 758 283 758 l 742 758 l 730 635 l 563 663 l 561 638 q 619 588 598 625 q 635 509 640 551 l 633 486 q 550 344 624 396 q 360 292 476 292 l 264 292 q 211 276 231 292 q 187 222 192 260 q 202 169 183 186 q 258 152 221 152 l 461 152 q 621 103 563 152 q 667 -52 678 54 m 365 394 q 441 420 415 394 q 471 496 466 446 l 476 544 q 461 619 482 595 q 391 644 441 644 q 316 619 342 644 q 284 544 290 595 l 279 496 q 294 420 274 446 q 365 394 314 394 m 246 -152 l 422 -152 q 487 -133 461 -152 q 520 -66 514 -115 q 502 -1 524 -19 q 443 16 480 16 l 181 16 l 173 -59 q 184 -128 168 -105 q 246 -152 201 -152 m 433 875 q 240 943 302 875 q 192 1153 178 1010 l 341 1153 q 357 1028 332 1063 q 446 992 381 992 q 541 1028 510 992 q 583 1153 572 1063 l 732 1153 q 640 943 716 1010 q 433 875 564 875 z "},"ġ":{"ha":788,"x_min":-8,"x_max":742,"o":"m 667 -52 q 585 -210 655 -154 q 408 -265 514 -265 l 221 -265 q 49 -218 105 -265 q 1 -83 -8 -170 q 43 16 8 -21 q 129 59 78 53 l 131 85 q 72 124 95 95 q 56 213 49 153 q 104 318 62 274 q 210 369 146 361 l 212 391 q 138 451 159 410 q 121 535 116 491 l 122 558 q 208 703 133 649 q 396 758 283 758 l 742 758 l 730 635 l 563 663 l 561 638 q 619 588 598 625 q 635 509 640 551 l 633 486 q 550 344 624 396 q 360 292 476 292 l 264 292 q 211 276 231 292 q 187 222 192 260 q 202 169 183 186 q 258 152 221 152 l 461 152 q 621 103 563 152 q 667 -52 678 54 m 365 394 q 441 420 415 394 q 471 496 466 446 l 476 544 q 461 619 482 595 q 391 644 441 644 q 316 619 342 644 q 284 544 290 595 l 279 496 q 294 420 274 446 q 365 394 314 394 m 246 -152 l 422 -152 q 487 -133 461 -152 q 520 -66 514 -115 q 502 -1 524 -19 q 443 16 480 16 l 181 16 l 173 -59 q 184 -128 168 -105 q 246 -152 201 -152 m 434 888 q 348 905 380 888 q 322 968 317 922 l 323 981 q 364 1046 328 1028 q 453 1064 399 1064 q 539 1046 508 1064 q 566 981 571 1028 l 564 968 q 523 905 559 922 q 434 888 487 888 z "},"ģ":{"ha":788,"x_min":-8,"x_max":742,"o":"m 667 -52 q 585 -210 655 -154 q 408 -265 514 -265 l 221 -265 q 49 -218 105 -265 q 1 -83 -8 -170 q 43 16 8 -21 q 129 59 78 53 l 131 85 q 72 124 95 95 q 56 213 49 153 q 104 318 62 274 q 210 369 146 361 l 212 391 q 138 451 159 410 q 121 535 116 491 l 122 558 q 208 703 133 649 q 396 758 283 758 l 742 758 l 730 635 l 563 663 l 561 638 q 619 588 598 625 q 635 509 640 551 l 633 486 q 550 344 624 396 q 360 292 476 292 l 264 292 q 211 276 231 292 q 187 222 192 260 q 202 169 183 186 q 258 152 221 152 l 461 152 q 621 103 563 152 q 667 -52 678 54 m 365 394 q 441 420 415 394 q 471 496 466 446 l 476 544 q 461 619 482 595 q 391 644 441 644 q 316 619 342 644 q 284 544 290 595 l 279 496 q 294 420 274 446 q 365 394 314 394 m 246 -152 l 422 -152 q 487 -133 461 -152 q 520 -66 514 -115 q 502 -1 524 -19 q 443 16 480 16 l 181 16 l 173 -59 q 184 -128 168 -105 q 246 -152 201 -152 m 307 884 l 518 1136 l 643 1136 l 537 884 l 307 884 z "},"h":{"ha":788,"x_min":49,"x_max":701,"o":"m 49 0 l 155 1010 l 332 1010 l 294 644 l 326 644 q 406 736 352 702 q 525 770 460 770 q 657 708 612 770 q 689 539 701 645 l 633 0 l 456 0 l 509 504 q 496 595 515 563 q 436 626 477 626 q 356 600 395 626 q 282 524 317 573 l 226 0 l 49 0 z "},"ĥ":{"ha":788,"x_min":-1,"x_max":701,"o":"m 49 0 l 155 1010 l 332 1010 l 294 644 l 326 644 q 406 736 352 702 q 525 770 460 770 q 657 708 612 770 q 689 539 701 645 l 633 0 l 456 0 l 509 504 q 496 595 515 563 q 436 626 477 626 q 356 600 395 626 q 282 524 317 573 l 226 0 l 49 0 m 52 1136 l -1 1222 l 213 1414 l 347 1414 l 524 1222 l 455 1138 l 265 1275 l 52 1136 z "},"i":{"ha":788,"x_min":56,"x_max":640,"o":"m 56 0 l 69 135 l 266 135 l 318 622 l 121 622 l 135 758 l 509 758 l 443 135 l 640 135 l 626 0 l 56 0 m 442 888 q 356 905 388 888 q 330 968 324 922 l 331 981 q 371 1046 336 1028 q 461 1064 407 1064 q 547 1046 515 1064 q 573 981 578 1028 l 572 968 q 531 905 567 922 q 442 888 495 888 z "},"ì":{"ha":788,"x_min":56,"x_max":640,"o":"m 56 0 l 69 135 l 266 135 l 318 622 l 121 622 l 135 758 l 509 758 l 443 135 l 640 135 l 626 0 l 56 0 m 436 884 l 236 1136 l 466 1136 l 561 884 l 436 884 z "},"í":{"ha":788,"x_min":56,"x_max":678,"o":"m 56 0 l 69 135 l 266 135 l 318 622 l 121 622 l 135 758 l 509 758 l 443 135 l 640 135 l 626 0 l 56 0 m 299 884 l 448 1136 l 678 1136 l 424 884 l 299 884 z "},"î":{"ha":788,"x_min":56,"x_max":706,"o":"m 56 0 l 69 135 l 266 135 l 318 622 l 121 622 l 135 758 l 509 758 l 443 135 l 640 135 l 626 0 l 56 0 m 234 884 l 181 970 l 395 1162 l 529 1162 l 706 970 l 636 885 l 447 1023 l 234 884 z "},"ï":{"ha":788,"x_min":56,"x_max":674,"o":"m 56 0 l 69 135 l 266 135 l 318 622 l 121 622 l 135 758 l 509 758 l 443 135 l 640 135 l 626 0 l 56 0 m 302 888 q 237 905 261 888 q 218 968 213 922 l 220 981 q 253 1046 225 1028 q 321 1064 280 1064 q 386 1046 362 1064 q 404 981 409 1028 l 403 968 q 370 905 398 922 q 302 888 342 888 m 567 888 q 502 905 525 888 q 484 968 479 922 l 485 981 q 517 1046 490 1028 q 586 1064 544 1064 q 650 1046 626 1064 q 669 981 674 1028 l 668 968 q 634 905 663 922 q 567 888 606 888 z "},"ĩ":{"ha":788,"x_min":56,"x_max":713,"o":"m 56 0 l 69 135 l 266 135 l 318 622 l 121 622 l 135 758 l 509 758 l 443 135 l 640 135 l 626 0 l 56 0 m 530 896 q 461 917 486 896 q 418 965 436 937 q 392 1011 404 990 q 360 1032 380 1032 q 324 1009 340 1032 q 304 929 309 987 l 303 909 l 186 909 l 187 928 q 247 1093 198 1029 q 371 1158 295 1158 q 439 1138 414 1158 q 482 1090 465 1119 q 508 1043 496 1064 q 538 1021 520 1021 q 573 1044 558 1021 q 595 1125 588 1067 l 596 1145 l 713 1145 l 712 1126 q 653 960 701 1024 q 530 896 605 896 z "},"ī":{"ha":788,"x_min":56,"x_max":683,"o":"m 56 0 l 69 135 l 266 135 l 318 622 l 121 622 l 135 758 l 509 758 l 443 135 l 640 135 l 626 0 l 56 0 m 211 941 l 226 1080 l 683 1080 l 668 941 l 211 941 z "},"ĭ":{"ha":788,"x_min":56,"x_max":732,"o":"m 56 0 l 69 135 l 266 135 l 318 622 l 121 622 l 135 758 l 509 758 l 443 135 l 640 135 l 626 0 l 56 0 m 433 875 q 240 943 302 875 q 192 1153 178 1010 l 341 1153 q 357 1028 332 1063 q 446 992 381 992 q 541 1028 510 992 q 583 1153 572 1063 l 732 1153 q 640 943 716 1010 q 433 875 564 875 z "},"į":{"ha":788,"x_min":56,"x_max":640,"o":"m 442 888 q 356 905 388 888 q 330 968 324 922 l 331 981 q 371 1046 336 1028 q 461 1064 407 1064 q 547 1046 515 1064 q 573 981 578 1028 l 572 968 q 531 905 567 922 q 442 888 495 888 m 56 0 l 69 135 l 266 135 l 318 622 l 121 622 l 135 758 l 509 758 l 443 135 l 640 135 l 626 0 l 56 0 m 386 -275 q 259 -235 303 -275 q 222 -121 215 -194 q 282 -3 229 -56 q 400 72 335 49 l 423 29 q 374 -23 388 5 q 356 -80 360 -52 q 371 -131 354 -114 q 428 -148 389 -148 q 473 -144 447 -148 q 528 -135 499 -140 l 514 -261 q 448 -271 482 -268 q 386 -275 414 -275 z "},"j":{"ha":788,"x_min":18,"x_max":660,"o":"m 202 -264 q 109 -258 155 -264 q 18 -236 63 -253 l 53 -101 q 128 -122 92 -117 q 196 -128 164 -128 q 303 -95 261 -128 q 352 13 345 -63 l 417 622 l 144 622 l 158 758 l 607 758 l 527 -6 q 424 -197 514 -130 q 202 -264 333 -264 m 524 888 q 438 905 470 888 q 412 968 407 922 l 413 981 q 453 1046 418 1028 q 543 1064 489 1064 q 629 1046 597 1064 q 655 981 660 1028 l 654 968 q 613 905 649 922 q 524 888 577 888 z "},"ĵ":{"ha":788,"x_min":18,"x_max":768,"o":"m 202 -264 q 109 -258 155 -264 q 18 -236 63 -253 l 53 -101 q 128 -122 92 -117 q 196 -128 164 -128 q 303 -95 261 -128 q 352 13 345 -63 l 417 622 l 144 622 l 158 758 l 607 758 l 527 -6 q 424 -197 514 -130 q 202 -264 333 -264 m 295 884 l 242 970 l 457 1162 l 591 1162 l 768 970 l 698 885 l 509 1023 l 295 884 z "},"k":{"ha":788,"x_min":73,"x_max":736,"o":"m 285 332 l 250 0 l 73 0 l 179 1010 l 356 1010 l 298 458 l 342 458 l 548 758 l 736 758 l 480 410 l 653 0 l 462 0 l 330 332 l 285 332 z "},"ķ":{"ha":788,"x_min":73,"x_max":736,"o":"m 285 332 l 250 0 l 73 0 l 179 1010 l 356 1010 l 298 458 l 342 458 l 548 758 l 736 758 l 480 410 l 653 0 l 462 0 l 330 332 l 285 332 m 152 -379 l 258 -126 l 487 -126 l 277 -379 l 152 -379 z "},"l":{"ha":788,"x_min":63,"x_max":654,"o":"m 63 0 l 77 135 l 280 135 l 359 875 l 155 875 l 169 1010 l 551 1010 l 458 135 l 654 135 l 640 0 l 63 0 z "},"ĺ":{"ha":788,"x_min":63,"x_max":679,"o":"m 63 0 l 77 135 l 280 135 l 359 875 l 155 875 l 169 1010 l 551 1010 l 458 135 l 654 135 l 640 0 l 63 0 m 301 1136 l 449 1389 l 679 1389 l 426 1136 l 301 1136 z "},"ļ":{"ha":788,"x_min":63,"x_max":654,"o":"m 63 0 l 77 135 l 280 135 l 359 875 l 155 875 l 169 1010 l 551 1010 l 458 135 l 654 135 l 640 0 l 63 0 m 119 -379 l 225 -126 l 455 -126 l 244 -379 l 119 -379 z "},"ľ":{"ha":788,"x_min":63,"x_max":928,"o":"m 63 0 l 77 135 l 280 135 l 359 875 l 155 875 l 169 1010 l 551 1010 l 458 135 l 654 135 l 640 0 l 63 0 m 597 890 l 701 1263 l 928 1263 l 702 890 l 597 890 z "},"m":{"ha":788,"x_min":13,"x_max":740,"o":"m 217 553 l 159 0 l 13 0 l 92 758 l 237 758 l 227 660 l 256 660 q 313 741 279 715 q 385 768 346 768 q 447 741 424 768 q 475 660 470 715 l 503 660 q 560 741 525 715 q 639 768 595 768 q 717 722 693 768 q 731 588 740 676 l 669 0 l 523 0 l 582 564 q 580 626 586 605 q 556 648 573 648 q 515 622 537 648 q 470 553 492 596 l 412 0 l 270 0 l 330 564 q 328 627 333 606 q 303 648 322 648 q 263 623 284 648 q 217 553 241 598 z "},"n":{"ha":788,"x_min":49,"x_max":701,"o":"m 49 0 l 129 758 l 306 758 l 294 644 l 326 644 q 410 737 356 703 q 528 770 463 770 q 658 709 615 770 q 689 539 701 648 l 633 0 l 456 0 l 509 506 q 496 595 515 564 q 436 626 477 626 q 355 601 395 626 q 282 528 316 576 l 226 0 l 49 0 z "},"ñ":{"ha":788,"x_min":49,"x_max":735,"o":"m 49 0 l 129 758 l 306 758 l 294 644 l 326 644 q 410 737 356 703 q 528 770 463 770 q 658 709 615 770 q 689 539 701 648 l 633 0 l 456 0 l 509 506 q 496 595 515 564 q 436 626 477 626 q 355 601 395 626 q 282 528 316 576 l 226 0 l 49 0 m 552 896 q 482 917 508 896 q 439 965 457 937 q 414 1011 426 990 q 381 1032 402 1032 q 346 1009 361 1032 q 326 929 331 987 l 324 909 l 207 909 l 208 928 q 268 1093 220 1029 q 393 1158 317 1158 q 461 1138 436 1158 q 504 1090 486 1119 q 530 1043 518 1064 q 559 1021 542 1021 q 595 1044 580 1021 q 616 1125 610 1067 l 617 1145 l 735 1145 l 734 1126 q 674 960 722 1024 q 552 896 626 896 z "},"ń":{"ha":788,"x_min":49,"x_max":701,"o":"m 49 0 l 129 758 l 306 758 l 294 644 l 326 644 q 410 737 356 703 q 528 770 463 770 q 658 709 615 770 q 689 539 701 648 l 633 0 l 456 0 l 509 506 q 496 595 515 564 q 436 626 477 626 q 355 601 395 626 q 282 528 316 576 l 226 0 l 49 0 m 321 884 l 470 1136 l 699 1136 l 446 884 l 321 884 z "},"ņ":{"ha":788,"x_min":49,"x_max":701,"o":"m 138 -379 l 244 -126 l 473 -126 l 263 -379 l 138 -379 m 49 0 l 129 758 l 306 758 l 294 644 l 326 644 q 410 737 356 703 q 528 770 463 770 q 658 709 615 770 q 689 539 701 648 l 633 0 l 456 0 l 509 506 q 496 595 515 564 q 436 626 477 626 q 355 601 395 626 q 282 528 316 576 l 226 0 l 49 0 z "},"ň":{"ha":788,"x_min":49,"x_max":739,"o":"m 49 0 l 129 758 l 306 758 l 294 644 l 326 644 q 410 737 356 703 q 528 770 463 770 q 658 709 615 770 q 689 539 701 648 l 633 0 l 456 0 l 509 506 q 496 595 515 564 q 436 626 477 626 q 355 601 395 626 q 282 528 316 576 l 226 0 l 49 0 m 390 889 l 213 1081 l 283 1167 l 472 1029 l 686 1167 l 739 1081 l 524 889 l 390 889 z "},"o":{"ha":788,"x_min":64,"x_max":701,"o":"m 342 -13 q 134 59 203 -13 q 77 258 64 130 l 102 495 q 201 698 116 625 q 424 770 287 770 q 631 697 561 770 q 687 494 701 624 l 662 255 q 564 58 649 129 q 342 -13 479 -13 m 356 122 q 447 155 415 122 q 486 261 479 188 l 510 491 q 494 601 518 567 q 410 635 470 635 q 319 601 351 635 q 279 492 287 567 l 255 264 q 272 156 247 189 q 356 122 297 122 z "},"ò":{"ha":788,"x_min":64,"x_max":701,"o":"m 342 -13 q 134 59 203 -13 q 77 258 64 130 l 102 495 q 201 698 116 625 q 424 770 287 770 q 631 697 561 770 q 687 494 701 624 l 662 255 q 564 58 649 129 q 342 -13 479 -13 m 356 122 q 447 155 415 122 q 486 261 479 188 l 510 491 q 494 601 518 567 q 410 635 470 635 q 319 601 351 635 q 279 492 287 567 l 255 264 q 272 156 247 189 q 356 122 297 122 m 420 884 l 221 1136 l 451 1136 l 545 884 l 420 884 z "},"ó":{"ha":788,"x_min":64,"x_max":701,"o":"m 342 -13 q 134 59 203 -13 q 77 258 64 130 l 102 495 q 201 698 116 625 q 424 770 287 770 q 631 697 561 770 q 687 494 701 624 l 662 255 q 564 58 649 129 q 342 -13 479 -13 m 356 122 q 447 155 415 122 q 486 261 479 188 l 510 491 q 494 601 518 567 q 410 635 470 635 q 319 601 351 635 q 279 492 287 567 l 255 264 q 272 156 247 189 q 356 122 297 122 m 299 884 l 448 1136 l 678 1136 l 424 884 l 299 884 z "},"ô":{"ha":788,"x_min":64,"x_max":706,"o":"m 342 -13 q 134 59 203 -13 q 77 258 64 130 l 102 495 q 201 698 116 625 q 424 770 287 770 q 631 697 561 770 q 687 494 701 624 l 662 255 q 564 58 649 129 q 342 -13 479 -13 m 356 122 q 447 155 415 122 q 486 261 479 188 l 510 491 q 494 601 518 567 q 410 635 470 635 q 319 601 351 635 q 279 492 287 567 l 255 264 q 272 156 247 189 q 356 122 297 122 m 234 884 l 181 970 l 395 1162 l 529 1162 l 706 970 l 636 885 l 447 1023 l 234 884 z "},"õ":{"ha":788,"x_min":64,"x_max":713,"o":"m 342 -13 q 134 59 203 -13 q 77 258 64 130 l 102 495 q 201 698 116 625 q 424 770 287 770 q 631 697 561 770 q 687 494 701 624 l 662 255 q 564 58 649 129 q 342 -13 479 -13 m 356 122 q 447 155 415 122 q 486 261 479 188 l 510 491 q 494 601 518 567 q 410 635 470 635 q 319 601 351 635 q 279 492 287 567 l 255 264 q 272 156 247 189 q 356 122 297 122 m 530 896 q 461 917 486 896 q 418 965 436 937 q 392 1011 404 990 q 360 1032 380 1032 q 324 1009 340 1032 q 304 929 309 987 l 303 909 l 186 909 l 187 928 q 247 1093 198 1029 q 371 1158 295 1158 q 439 1138 414 1158 q 482 1090 465 1119 q 508 1043 496 1064 q 538 1021 520 1021 q 573 1044 558 1021 q 595 1125 588 1067 l 596 1145 l 713 1145 l 712 1126 q 653 960 701 1024 q 530 896 605 896 z "},"ö":{"ha":788,"x_min":64,"x_max":701,"o":"m 342 -13 q 134 59 203 -13 q 77 258 64 130 l 102 495 q 201 698 116 625 q 424 770 287 770 q 631 697 561 770 q 687 494 701 624 l 662 255 q 564 58 649 129 q 342 -13 479 -13 m 356 122 q 447 155 415 122 q 486 261 479 188 l 510 491 q 494 601 518 567 q 410 635 470 635 q 319 601 351 635 q 279 492 287 567 l 255 264 q 272 156 247 189 q 356 122 297 122 m 302 888 q 237 905 261 888 q 218 968 213 922 l 220 981 q 253 1046 225 1028 q 321 1064 280 1064 q 386 1046 362 1064 q 404 981 409 1028 l 403 968 q 370 905 398 922 q 302 888 342 888 m 567 888 q 502 905 525 888 q 484 968 479 922 l 485 981 q 517 1046 490 1028 q 586 1064 544 1064 q 650 1046 626 1064 q 669 981 674 1028 l 668 968 q 634 905 663 922 q 567 888 606 888 z "},"ō":{"ha":788,"x_min":64,"x_max":701,"o":"m 342 -13 q 134 59 203 -13 q 77 258 64 130 l 102 495 q 201 698 116 625 q 424 770 287 770 q 631 697 561 770 q 687 494 701 624 l 662 255 q 564 58 649 129 q 342 -13 479 -13 m 356 122 q 447 155 415 122 q 486 261 479 188 l 510 491 q 494 601 518 567 q 410 635 470 635 q 319 601 351 635 q 279 492 287 567 l 255 264 q 272 156 247 189 q 356 122 297 122 m 211 941 l 226 1080 l 683 1080 l 668 941 l 211 941 z "},"ŏ":{"ha":788,"x_min":64,"x_max":740,"o":"m 342 -13 q 134 59 203 -13 q 77 258 64 130 l 102 495 q 201 698 116 625 q 424 770 287 770 q 631 697 561 770 q 687 494 701 624 l 662 255 q 564 58 649 129 q 342 -13 479 -13 m 356 122 q 447 155 415 122 q 486 261 479 188 l 510 491 q 494 601 518 567 q 410 635 470 635 q 319 601 351 635 q 279 492 287 567 l 255 264 q 272 156 247 189 q 356 122 297 122 m 441 875 q 247 943 309 875 q 199 1153 186 1010 l 348 1153 q 364 1028 340 1063 q 453 992 389 992 q 549 1028 518 992 q 591 1153 580 1063 l 740 1153 q 648 943 723 1010 q 441 875 572 875 z "},"ő":{"ha":788,"x_min":64,"x_max":747,"o":"m 342 -13 q 134 59 203 -13 q 77 258 64 130 l 102 495 q 201 698 116 625 q 424 770 287 770 q 631 697 561 770 q 687 494 701 624 l 662 255 q 564 58 649 129 q 342 -13 479 -13 m 356 122 q 447 155 415 122 q 486 261 479 188 l 510 491 q 494 601 518 567 q 410 635 470 635 q 319 601 351 635 q 279 492 287 567 l 255 264 q 272 156 247 189 q 356 122 297 122 m 486 884 l 564 1136 l 747 1136 l 582 884 l 486 884 m 244 884 l 322 1136 l 505 1136 l 340 884 l 244 884 z "},"p":{"ha":788,"x_min":23,"x_max":699,"o":"m 355 122 q 444 156 413 122 q 484 261 476 189 l 509 504 q 495 597 515 567 q 431 626 475 626 q 355 604 393 626 q 282 534 318 581 l 244 165 q 297 133 270 144 q 355 122 323 122 m 367 -11 q 295 -3 331 -11 q 229 23 259 6 l 199 -253 l 23 -253 l 129 758 l 306 758 l 294 644 l 326 644 q 404 737 352 703 q 523 770 456 770 q 657 704 614 770 q 687 520 699 638 l 660 260 q 568 62 646 135 q 367 -11 490 -11 z "},"q":{"ha":788,"x_min":63,"x_max":706,"o":"m 429 -253 l 467 114 l 436 114 q 357 21 409 56 q 239 -13 304 -13 q 105 57 148 -13 q 74 246 63 128 l 101 497 q 201 698 115 628 q 429 769 288 769 q 578 750 501 769 q 706 696 655 731 l 606 -253 l 429 -253 m 331 131 q 406 154 369 131 q 480 223 443 177 l 519 601 q 470 626 496 617 q 408 635 443 635 q 319 602 352 635 q 278 496 285 568 l 255 271 q 267 165 247 199 q 331 131 287 131 z "},"r":{"ha":788,"x_min":80,"x_max":712,"o":"m 80 0 l 159 758 l 337 758 l 324 631 l 356 631 q 437 737 385 703 q 557 770 490 770 q 674 715 636 770 q 702 559 712 660 l 688 433 l 527 433 l 534 505 q 524 598 540 569 q 461 626 508 626 q 381 601 420 626 q 312 521 342 576 l 258 0 l 80 0 z "},"ŕ":{"ha":788,"x_min":80,"x_max":712,"o":"m 80 0 l 159 758 l 337 758 l 324 631 l 356 631 q 437 737 385 703 q 557 770 490 770 q 674 715 636 770 q 702 559 712 660 l 688 433 l 527 433 l 534 505 q 524 598 540 569 q 461 626 508 626 q 381 601 420 626 q 312 521 342 576 l 258 0 l 80 0 m 331 884 l 480 1136 l 710 1136 l 456 884 l 331 884 z "},"ŗ":{"ha":788,"x_min":-28,"x_max":712,"o":"m 80 0 l 159 758 l 337 758 l 324 631 l 356 631 q 437 737 385 703 q 557 770 490 770 q 674 715 636 770 q 702 559 712 660 l 688 433 l 527 433 l 534 505 q 524 598 540 569 q 461 626 508 626 q 381 601 420 626 q 312 521 342 576 l 258 0 l 80 0 m -28 -379 l 78 -126 l 308 -126 l 97 -379 l -28 -379 z "},"ř":{"ha":788,"x_min":80,"x_max":749,"o":"m 80 0 l 159 758 l 337 758 l 324 631 l 356 631 q 437 737 385 703 q 557 770 490 770 q 674 715 636 770 q 702 559 712 660 l 688 433 l 527 433 l 534 505 q 524 598 540 569 q 461 626 508 626 q 381 601 420 626 q 312 521 342 576 l 258 0 l 80 0 m 400 889 l 223 1081 l 293 1167 l 482 1029 l 696 1167 l 749 1081 l 534 889 l 400 889 z "},"s":{"ha":788,"x_min":48,"x_max":676,"o":"m 337 -11 q 177 14 254 -11 q 48 81 100 39 l 107 198 q 225 138 159 162 q 351 115 290 115 q 444 135 409 115 q 484 202 479 155 q 460 271 489 251 q 342 314 431 292 q 160 396 215 346 q 116 543 106 446 q 208 710 128 649 q 410 770 289 770 q 556 746 486 770 q 676 683 625 722 l 622 568 q 518 622 573 601 q 409 644 463 644 q 330 624 360 644 q 295 561 299 605 q 323 494 290 514 q 456 446 356 473 q 624 365 577 417 q 662 218 672 313 q 563 51 650 112 q 337 -11 475 -11 z "},"":{"ha":788,"x_min":48,"x_max":676,"o":"m 337 -11 q 177 14 254 -11 q 48 81 100 39 l 107 198 q 225 138 159 162 q 351 115 290 115 q 444 135 409 115 q 484 202 479 155 q 460 271 489 251 q 342 314 431 292 q 160 396 215 346 q 116 543 106 446 q 208 710 128 649 q 410 770 289 770 q 556 746 486 770 q 676 683 625 722 l 622 568 q 518 622 573 601 q 409 644 463 644 q 330 624 360 644 q 295 561 299 605 q 323 494 290 514 q 456 446 356 473 q 624 365 577 417 q 662 218 672 313 q 563 51 650 112 q 337 -11 475 -11 z "},"ś":{"ha":788,"x_min":48,"x_max":683,"o":"m 337 -11 q 177 14 254 -11 q 48 81 100 39 l 107 198 q 225 138 159 162 q 351 115 290 115 q 444 135 409 115 q 484 202 479 155 q 460 271 489 251 q 342 314 431 292 q 160 396 215 346 q 116 543 106 446 q 208 710 128 649 q 410 770 289 770 q 556 746 486 770 q 676 683 625 722 l 622 568 q 518 622 573 601 q 409 644 463 644 q 330 624 360 644 q 295 561 299 605 q 323 494 290 514 q 456 446 356 473 q 624 365 577 417 q 662 218 672 313 q 563 51 650 112 q 337 -11 475 -11 m 304 884 l 453 1136 l 683 1136 l 429 884 l 304 884 z "},"ŝ":{"ha":788,"x_min":48,"x_max":703,"o":"m 337 -11 q 177 14 254 -11 q 48 81 100 39 l 107 198 q 225 138 159 162 q 351 115 290 115 q 444 135 409 115 q 484 202 479 155 q 460 271 489 251 q 342 314 431 292 q 160 396 215 346 q 116 543 106 446 q 208 710 128 649 q 410 770 289 770 q 556 746 486 770 q 676 683 625 722 l 622 568 q 518 622 573 601 q 409 644 463 644 q 330 624 360 644 q 295 561 299 605 q 323 494 290 514 q 456 446 356 473 q 624 365 577 417 q 662 218 672 313 q 563 51 650 112 q 337 -11 475 -11 m 231 884 l 178 970 l 393 1162 l 527 1162 l 703 970 l 634 885 l 444 1023 l 231 884 z "},"ş":{"ha":788,"x_min":48,"x_max":676,"o":"m 337 -11 q 177 14 254 -11 q 48 81 100 39 l 107 198 q 225 138 159 162 q 351 115 290 115 q 444 135 409 115 q 484 202 479 155 q 460 271 489 251 q 342 314 431 292 q 160 396 215 346 q 116 543 106 446 q 208 710 128 649 q 410 770 289 770 q 556 746 486 770 q 676 683 625 722 l 622 568 q 518 622 573 601 q 409 644 463 644 q 330 624 360 644 q 295 561 299 605 q 323 494 290 514 q 456 446 356 473 q 624 365 577 417 q 662 218 672 313 q 563 51 650 112 q 337 -11 475 -11 m 301 0 l 326 53 q 455 2 410 42 q 491 -114 499 -38 q 419 -237 482 -197 q 269 -277 355 -277 q 123 -241 176 -277 q 73 -130 71 -206 l 225 -117 q 235 -151 223 -141 q 274 -160 246 -160 q 320 -146 304 -160 q 341 -88 336 -131 q 336 -29 345 -48 q 301 0 327 -10 z "},"š":{"ha":788,"x_min":48,"x_max":715,"o":"m 337 -11 q 177 14 254 -11 q 48 81 100 39 l 107 198 q 225 138 159 162 q 351 115 290 115 q 444 135 409 115 q 484 202 479 155 q 460 271 489 251 q 342 314 431 292 q 160 396 215 346 q 116 543 106 446 q 208 710 128 649 q 410 770 289 770 q 556 746 486 770 q 676 683 625 722 l 622 568 q 518 622 573 601 q 409 644 463 644 q 330 624 360 644 q 295 561 299 605 q 323 494 290 514 q 456 446 356 473 q 624 365 577 417 q 662 218 672 313 q 563 51 650 112 q 337 -11 475 -11 m 366 889 l 189 1081 l 259 1167 l 448 1029 l 662 1167 l 715 1081 l 500 889 l 366 889 z "},"ș":{"ha":788,"x_min":48,"x_max":676,"o":"m 337 -11 q 177 14 254 -11 q 48 81 100 39 l 107 198 q 225 138 159 162 q 351 115 290 115 q 444 135 409 115 q 484 202 479 155 q 460 271 489 251 q 342 314 431 292 q 160 396 215 346 q 116 543 106 446 q 208 710 128 649 q 410 770 289 770 q 556 746 486 770 q 676 683 625 722 l 622 568 q 518 622 573 601 q 409 644 463 644 q 330 624 360 644 q 295 561 299 605 q 323 494 290 514 q 456 446 356 473 q 624 365 577 417 q 662 218 672 313 q 563 51 650 112 q 337 -11 475 -11 m 124 -379 l 230 -126 l 460 -126 l 249 -379 l 124 -379 z "},"t":{"ha":788,"x_min":106,"x_max":699,"o":"m 457 -13 q 272 54 333 -13 q 223 241 211 121 l 264 622 l 106 622 l 120 758 l 278 758 l 304 1010 l 481 1010 l 455 758 l 699 758 l 686 622 l 441 622 l 402 258 q 419 160 395 193 q 495 128 443 128 q 564 135 530 128 q 625 153 597 143 l 631 18 q 556 -4 604 5 q 457 -13 509 -13 z "},"ţ":{"ha":788,"x_min":106,"x_max":699,"o":"m 457 -13 q 272 54 333 -13 q 223 241 211 121 l 264 622 l 106 622 l 120 758 l 278 758 l 304 1010 l 481 1010 l 455 758 l 699 758 l 686 622 l 441 622 l 402 258 q 419 160 395 193 q 495 128 443 128 q 564 135 530 128 q 625 153 597 143 l 631 18 q 556 -4 604 5 q 457 -13 509 -13 m 362 0 l 388 53 q 516 2 472 42 q 553 -114 561 -38 q 480 -237 544 -197 q 331 -277 417 -277 q 185 -241 237 -277 q 135 -130 133 -206 l 287 -117 q 297 -151 285 -141 q 336 -160 308 -160 q 382 -146 366 -160 q 403 -88 398 -131 q 398 -29 407 -48 q 362 0 389 -10 z "},"ť":{"ha":788,"x_min":106,"x_max":872,"o":"m 457 -13 q 272 54 333 -13 q 223 241 211 121 l 264 622 l 106 622 l 120 758 l 278 758 l 304 1010 l 481 1010 l 455 758 l 699 758 l 686 622 l 441 622 l 402 258 q 419 160 395 193 q 495 128 443 128 q 564 135 530 128 q 625 153 597 143 l 631 18 q 556 -4 604 5 q 457 -13 509 -13 m 542 890 l 645 1263 l 872 1263 l 646 890 l 542 890 z "},"ț":{"ha":788,"x_min":106,"x_max":699,"o":"m 457 -13 q 272 54 333 -13 q 223 241 211 121 l 264 622 l 106 622 l 120 758 l 278 758 l 304 1010 l 481 1010 l 455 758 l 699 758 l 686 622 l 441 622 l 402 258 q 419 160 395 193 q 495 128 443 128 q 564 135 530 128 q 625 153 597 143 l 631 18 q 556 -4 604 5 q 457 -13 509 -13 m 159 -379 l 265 -126 l 495 -126 l 284 -379 l 159 -379 z "},"u":{"ha":788,"x_min":61,"x_max":712,"o":"m 232 -13 q 105 50 150 -13 q 72 218 61 112 l 129 758 l 306 758 l 254 260 q 264 164 246 196 q 324 131 282 131 q 403 158 364 131 q 481 239 443 186 l 535 758 l 712 758 l 633 0 l 456 0 l 467 114 l 436 114 q 354 21 410 54 q 232 -13 297 -13 z "},"ù":{"ha":788,"x_min":61,"x_max":712,"o":"m 232 -13 q 105 50 150 -13 q 72 218 61 112 l 129 758 l 306 758 l 254 260 q 264 164 246 196 q 324 131 282 131 q 403 158 364 131 q 481 239 443 186 l 535 758 l 712 758 l 633 0 l 456 0 l 467 114 l 436 114 q 354 21 410 54 q 232 -13 297 -13 m 418 884 l 218 1136 l 448 1136 l 543 884 l 418 884 z "},"ú":{"ha":788,"x_min":61,"x_max":727,"o":"m 232 -13 q 105 50 150 -13 q 72 218 61 112 l 129 758 l 306 758 l 254 260 q 264 164 246 196 q 324 131 282 131 q 403 158 364 131 q 481 239 443 186 l 535 758 l 712 758 l 633 0 l 456 0 l 467 114 l 436 114 q 354 21 410 54 q 232 -13 297 -13 m 348 884 l 497 1136 l 727 1136 l 473 884 l 348 884 z "},"û":{"ha":788,"x_min":61,"x_max":713,"o":"m 232 -13 q 105 50 150 -13 q 72 218 61 112 l 129 758 l 306 758 l 254 260 q 264 164 246 196 q 324 131 282 131 q 403 158 364 131 q 481 239 443 186 l 535 758 l 712 758 l 633 0 l 456 0 l 467 114 l 436 114 q 354 21 410 54 q 232 -13 297 -13 m 241 884 l 188 970 l 403 1162 l 537 1162 l 713 970 l 644 885 l 455 1023 l 241 884 z "},"ü":{"ha":788,"x_min":61,"x_max":712,"o":"m 232 -13 q 105 50 150 -13 q 72 218 61 112 l 129 758 l 306 758 l 254 260 q 264 164 246 196 q 324 131 282 131 q 403 158 364 131 q 481 239 443 186 l 535 758 l 712 758 l 633 0 l 456 0 l 467 114 l 436 114 q 354 21 410 54 q 232 -13 297 -13 m 309 888 q 245 905 269 888 q 226 968 221 922 l 227 981 q 260 1046 232 1028 q 328 1064 288 1064 q 393 1046 370 1064 q 412 981 417 1028 l 410 968 q 378 905 405 922 q 309 888 350 888 m 574 888 q 509 905 533 888 q 491 968 486 922 l 492 981 q 525 1046 497 1028 q 593 1064 552 1064 q 658 1046 634 1064 q 677 981 682 1028 l 676 968 q 642 905 670 922 q 574 888 614 888 z "},"ũ":{"ha":788,"x_min":61,"x_max":713,"o":"m 232 -13 q 105 50 150 -13 q 72 218 61 112 l 129 758 l 306 758 l 254 260 q 264 164 246 196 q 324 131 282 131 q 403 158 364 131 q 481 239 443 186 l 535 758 l 712 758 l 633 0 l 456 0 l 467 114 l 436 114 q 354 21 410 54 q 232 -13 297 -13 m 530 896 q 461 917 486 896 q 418 965 436 937 q 392 1011 404 990 q 360 1032 380 1032 q 324 1009 340 1032 q 304 929 309 987 l 303 909 l 186 909 l 187 928 q 247 1093 198 1029 q 371 1158 295 1158 q 439 1138 414 1158 q 482 1090 465 1119 q 508 1043 496 1064 q 538 1021 520 1021 q 573 1044 558 1021 q 595 1125 588 1067 l 596 1145 l 713 1145 l 712 1126 q 653 960 701 1024 q 530 896 605 896 z "},"ū":{"ha":788,"x_min":61,"x_max":712,"o":"m 232 -13 q 105 50 150 -13 q 72 218 61 112 l 129 758 l 306 758 l 254 260 q 264 164 246 196 q 324 131 282 131 q 403 158 364 131 q 481 239 443 186 l 535 758 l 712 758 l 633 0 l 456 0 l 467 114 l 436 114 q 354 21 410 54 q 232 -13 297 -13 m 211 941 l 226 1080 l 683 1080 l 668 941 l 211 941 z "},"ŭ":{"ha":788,"x_min":61,"x_max":740,"o":"m 232 -13 q 105 50 150 -13 q 72 218 61 112 l 129 758 l 306 758 l 254 260 q 264 164 246 196 q 324 131 282 131 q 403 158 364 131 q 481 239 443 186 l 535 758 l 712 758 l 633 0 l 456 0 l 467 114 l 436 114 q 354 21 410 54 q 232 -13 297 -13 m 441 875 q 247 943 309 875 q 199 1153 186 1010 l 348 1153 q 364 1028 340 1063 q 453 992 389 992 q 549 1028 518 992 q 591 1153 580 1063 l 740 1153 q 648 943 723 1010 q 441 875 572 875 z "},"ů":{"ha":788,"x_min":61,"x_max":712,"o":"m 232 -13 q 105 50 150 -13 q 72 218 61 112 l 129 758 l 306 758 l 254 260 q 264 164 246 196 q 324 131 282 131 q 403 158 364 131 q 481 239 443 186 l 535 758 l 712 758 l 633 0 l 456 0 l 467 114 l 436 114 q 354 21 410 54 q 232 -13 297 -13 m 439 861 q 296 907 348 861 q 254 1048 244 952 l 259 1088 q 330 1232 269 1186 q 482 1279 391 1279 q 626 1232 574 1279 q 668 1088 678 1186 l 663 1048 q 592 907 653 952 q 439 861 530 861 m 449 958 q 511 979 489 958 q 538 1048 533 1000 l 543 1088 q 529 1158 547 1135 q 472 1182 511 1182 q 410 1158 433 1182 q 384 1088 388 1135 l 379 1048 q 392 979 374 1000 q 449 958 410 958 z "},"ű":{"ha":788,"x_min":61,"x_max":755,"o":"m 232 -13 q 105 50 150 -13 q 72 218 61 112 l 129 758 l 306 758 l 254 260 q 264 164 246 196 q 324 131 282 131 q 403 158 364 131 q 481 239 443 186 l 535 758 l 712 758 l 633 0 l 456 0 l 467 114 l 436 114 q 354 21 410 54 q 232 -13 297 -13 m 494 884 l 572 1136 l 755 1136 l 590 884 l 494 884 m 251 884 l 330 1136 l 513 1136 l 347 884 l 251 884 z "},"ų":{"ha":788,"x_min":61,"x_max":712,"o":"m 544 -275 q 417 -235 461 -275 q 380 -121 372 -194 q 439 -3 386 -56 q 558 72 492 49 l 581 29 q 532 -23 545 5 q 514 -80 518 -52 q 529 -131 511 -114 q 586 -148 547 -148 q 631 -144 605 -148 q 686 -135 657 -140 l 672 -261 q 606 -271 640 -268 q 544 -275 572 -275 m 232 -13 q 105 50 150 -13 q 72 218 61 112 l 129 758 l 306 758 l 254 260 q 264 164 246 196 q 324 131 282 131 q 403 158 364 131 q 481 239 443 186 l 535 758 l 712 758 l 633 0 l 456 0 l 467 114 l 436 114 q 354 21 410 54 q 232 -13 297 -13 z "},"v":{"ha":788,"x_min":109,"x_max":731,"o":"m 457 0 l 225 0 l 109 758 l 280 758 l 359 149 l 567 758 l 731 758 l 457 0 z "},"w":{"ha":788,"x_min":72,"x_max":770,"o":"m 427 0 l 385 426 l 260 0 l 96 0 l 72 758 l 225 758 l 226 203 l 343 628 l 465 628 l 503 210 l 616 758 l 770 758 l 586 0 l 427 0 z "},"":{"ha":788,"x_min":72,"x_max":770,"o":"m 427 0 l 385 426 l 260 0 l 96 0 l 72 758 l 225 758 l 226 203 l 343 628 l 465 628 l 503 210 l 616 758 l 770 758 l 586 0 l 427 0 z "},"ŵ":{"ha":788,"x_min":72,"x_max":770,"o":"m 427 0 l 385 426 l 260 0 l 96 0 l 72 758 l 225 758 l 226 203 l 343 628 l 465 628 l 503 210 l 616 758 l 770 758 l 586 0 l 427 0 m 241 884 l 188 970 l 403 1162 l 537 1162 l 713 970 l 644 885 l 455 1023 l 241 884 z "},"ẁ":{"ha":788,"x_min":72,"x_max":770,"o":"m 427 0 l 385 426 l 260 0 l 96 0 l 72 758 l 225 758 l 226 203 l 343 628 l 465 628 l 503 210 l 616 758 l 770 758 l 586 0 l 427 0 m 420 884 l 221 1136 l 451 1136 l 545 884 l 420 884 z "},"ẃ":{"ha":788,"x_min":72,"x_max":770,"o":"m 427 0 l 385 426 l 260 0 l 96 0 l 72 758 l 225 758 l 226 203 l 343 628 l 465 628 l 503 210 l 616 758 l 770 758 l 586 0 l 427 0 m 335 884 l 484 1136 l 713 1136 l 460 884 l 335 884 z "},"ẅ":{"ha":788,"x_min":72,"x_max":770,"o":"m 427 0 l 385 426 l 260 0 l 96 0 l 72 758 l 225 758 l 226 203 l 343 628 l 465 628 l 503 210 l 616 758 l 770 758 l 586 0 l 427 0 m 309 888 q 245 905 269 888 q 226 968 221 922 l 227 981 q 260 1046 232 1028 q 328 1064 288 1064 q 393 1046 370 1064 q 412 981 417 1028 l 410 968 q 378 905 405 922 q 309 888 350 888 m 574 888 q 509 905 533 888 q 491 968 486 922 l 492 981 q 525 1046 497 1028 q 593 1064 552 1064 q 658 1046 634 1064 q 677 981 682 1028 l 676 968 q 642 905 670 922 q 574 888 614 888 z "},"x":{"ha":788,"x_min":27,"x_max":721,"o":"m 471 0 l 357 242 l 206 0 l 27 0 l 293 384 l 120 758 l 301 758 l 403 539 l 542 758 l 721 758 l 471 393 l 653 0 l 471 0 z "},"y":{"ha":788,"x_min":-3,"x_max":746,"o":"m 145 -263 q 76 -259 112 -263 q -3 -249 39 -255 l 27 -114 q 93 -126 63 -122 q 146 -130 122 -130 q 245 -99 208 -130 q 308 4 282 -68 l 312 18 l 205 18 l 93 758 l 275 758 l 357 146 l 571 758 l 746 758 l 462 -10 q 335 -205 413 -146 q 145 -263 258 -263 z "},"":{"ha":788,"x_min":-3,"x_max":746,"o":"m 145 -263 q 76 -259 112 -263 q -3 -249 39 -255 l 27 -114 q 93 -126 63 -122 q 146 -130 122 -130 q 245 -99 208 -130 q 308 4 282 -68 l 312 18 l 205 18 l 93 758 l 275 758 l 357 146 l 571 758 l 746 758 l 462 -10 q 335 -205 413 -146 q 145 -263 258 -263 z "},"ý":{"ha":788,"x_min":-3,"x_max":746,"o":"m 145 -263 q 76 -259 112 -263 q -3 -249 39 -255 l 27 -114 q 93 -126 63 -122 q 146 -130 122 -130 q 245 -99 208 -130 q 308 4 282 -68 l 312 18 l 205 18 l 93 758 l 275 758 l 357 146 l 571 758 l 746 758 l 462 -10 q 335 -205 413 -146 q 145 -263 258 -263 m 308 884 l 457 1136 l 687 1136 l 433 884 l 308 884 z "},"ÿ":{"ha":788,"x_min":-3,"x_max":746,"o":"m 145 -263 q 76 -259 112 -263 q -3 -249 39 -255 l 27 -114 q 93 -126 63 -122 q 146 -130 122 -130 q 245 -99 208 -130 q 308 4 282 -68 l 312 18 l 205 18 l 93 758 l 275 758 l 357 146 l 571 758 l 746 758 l 462 -10 q 335 -205 413 -146 q 145 -263 258 -263 m 302 888 q 237 905 261 888 q 218 968 213 922 l 220 981 q 253 1046 225 1028 q 321 1064 280 1064 q 386 1046 362 1064 q 404 981 409 1028 l 403 968 q 370 905 398 922 q 302 888 342 888 m 567 888 q 502 905 525 888 q 484 968 479 922 l 485 981 q 517 1046 490 1028 q 586 1064 544 1064 q 650 1046 626 1064 q 669 981 674 1028 l 668 968 q 634 905 663 922 q 567 888 606 888 z "},"ŷ":{"ha":788,"x_min":-3,"x_max":746,"o":"m 145 -263 q 76 -259 112 -263 q -3 -249 39 -255 l 27 -114 q 93 -126 63 -122 q 146 -130 122 -130 q 245 -99 208 -130 q 308 4 282 -68 l 312 18 l 205 18 l 93 758 l 275 758 l 357 146 l 571 758 l 746 758 l 462 -10 q 335 -205 413 -146 q 145 -263 258 -263 m 234 884 l 181 970 l 395 1162 l 529 1162 l 706 970 l 636 885 l 447 1023 l 234 884 z "},"ỳ":{"ha":788,"x_min":-3,"x_max":746,"o":"m 145 -263 q 76 -259 112 -263 q -3 -249 39 -255 l 27 -114 q 93 -126 63 -122 q 146 -130 122 -130 q 245 -99 208 -130 q 308 4 282 -68 l 312 18 l 205 18 l 93 758 l 275 758 l 357 146 l 571 758 l 746 758 l 462 -10 q 335 -205 413 -146 q 145 -263 258 -263 m 420 884 l 221 1136 l 451 1136 l 545 884 l 420 884 z "},"z":{"ha":788,"x_min":63,"x_max":699,"o":"m 620 0 l 63 0 l 77 135 l 496 622 l 129 622 l 143 758 l 699 758 l 686 622 l 278 135 l 634 135 l 620 0 z "},"ź":{"ha":788,"x_min":63,"x_max":706,"o":"m 620 0 l 63 0 l 77 135 l 496 622 l 129 622 l 143 758 l 699 758 l 686 622 l 278 135 l 634 135 l 620 0 m 327 884 l 476 1136 l 706 1136 l 452 884 l 327 884 z "},"ż":{"ha":788,"x_min":63,"x_max":699,"o":"m 620 0 l 63 0 l 77 135 l 496 622 l 129 622 l 143 758 l 699 758 l 686 622 l 278 135 l 634 135 l 620 0 m 437 888 q 351 905 383 888 q 324 968 319 922 l 326 981 q 366 1046 331 1028 q 456 1064 402 1064 q 542 1046 510 1064 q 568 981 573 1028 l 567 968 q 526 905 562 922 q 437 888 490 888 z "},"ž":{"ha":788,"x_min":63,"x_max":713,"o":"m 620 0 l 63 0 l 77 135 l 496 622 l 129 622 l 143 758 l 699 758 l 686 622 l 278 135 l 634 135 l 620 0 m 365 889 l 188 1081 l 258 1167 l 447 1029 l 660 1167 l 713 1081 l 499 889 l 365 889 z "},"ª":{"ha":788,"x_min":106,"x_max":713,"o":"m 328 495 q 398 509 364 495 q 462 559 433 524 l 471 645 l 340 645 q 285 629 306 645 q 260 569 265 614 q 272 514 256 533 q 328 495 288 495 m 284 389 q 156 434 206 389 q 115 561 106 480 q 182 691 124 645 q 331 737 241 737 l 480 737 l 487 806 q 473 884 492 857 q 407 912 453 912 q 336 893 362 912 q 289 812 311 874 l 157 840 q 246 978 184 933 q 422 1023 308 1023 q 592 973 533 1023 q 640 814 652 924 l 616 587 q 632 520 610 534 q 713 514 654 505 l 701 399 q 574 407 620 386 q 519 496 529 428 l 495 496 q 407 419 465 449 q 284 389 348 389 z "},"º":{"ha":788,"x_min":139,"x_max":691,"o":"m 381 389 q 201 449 264 389 q 152 621 139 509 l 168 784 q 256 961 181 899 q 449 1023 332 1023 q 628 961 566 1023 q 678 784 691 899 l 662 621 q 574 449 649 509 q 381 389 499 389 m 394 504 q 477 533 451 504 q 510 628 504 562 l 527 783 q 513 876 533 845 q 436 907 492 907 q 352 876 380 907 q 318 782 324 845 l 302 628 q 317 533 295 562 q 394 504 338 504 z "},"ß":{"ha":788,"x_min":-9,"x_max":713,"o":"m 453 -8 q 343 16 396 -8 q 256 82 290 40 l 316 196 q 384 140 348 164 q 458 116 419 116 q 520 138 497 116 q 548 203 543 159 q 527 273 553 250 q 444 319 500 295 q 339 393 376 348 q 312 523 302 437 q 374 667 321 611 q 508 736 427 723 q 484 850 511 816 q 402 885 456 885 q 310 846 347 885 q 264 720 273 807 l 162 -253 l -9 -253 l 95 736 q 196 946 110 871 q 413 1020 282 1020 q 616 936 548 1020 q 670 717 684 852 l 663 645 q 522 618 571 644 q 468 542 473 592 q 494 474 463 495 q 581 429 524 453 q 679 351 645 398 q 705 220 713 304 q 624 52 693 112 q 453 -8 554 -8 z "},"æ":{"ha":788,"x_min":6,"x_max":753,"o":"m 705 186 q 622 36 676 85 q 489 -13 568 -13 q 397 13 434 -13 q 345 92 360 39 l 317 92 q 253 18 293 48 q 158 -13 213 -13 q 48 41 90 -13 q 18 201 6 95 q 86 364 29 307 q 226 420 143 420 l 328 420 l 338 521 q 333 614 346 583 q 285 645 319 645 q 237 622 254 645 q 194 530 220 600 l 71 561 q 154 720 102 669 q 288 770 206 770 q 369 749 336 770 q 418 683 403 729 q 489 749 448 727 q 576 770 529 770 q 708 705 663 770 q 739 509 753 640 l 722 345 l 456 345 l 442 221 q 448 134 437 164 q 495 104 460 104 q 545 126 527 104 q 578 203 563 148 l 705 186 m 475 524 l 466 443 l 601 443 l 609 518 q 604 622 616 590 q 558 655 592 655 q 503 624 524 655 q 475 524 481 592 m 302 167 l 318 322 l 251 322 q 193 298 216 322 q 164 212 170 274 q 169 131 158 159 q 210 102 181 102 q 256 119 234 102 q 302 167 278 136 z "},"ǽ":{"ha":788,"x_min":6,"x_max":760,"o":"m 705 186 q 622 36 676 85 q 489 -13 568 -13 q 397 13 434 -13 q 345 92 360 39 l 317 92 q 253 18 293 48 q 158 -13 213 -13 q 48 41 90 -13 q 18 201 6 95 q 86 364 29 307 q 226 420 143 420 l 328 420 l 338 521 q 333 614 346 583 q 285 645 319 645 q 237 622 254 645 q 194 530 220 600 l 71 561 q 154 720 102 669 q 288 770 206 770 q 369 749 336 770 q 418 683 403 729 q 489 749 448 727 q 576 770 529 770 q 708 705 663 770 q 739 509 753 640 l 722 345 l 456 345 l 442 221 q 448 134 437 164 q 495 104 460 104 q 545 126 527 104 q 578 203 563 148 l 705 186 m 475 524 l 466 443 l 601 443 l 609 518 q 604 622 616 590 q 558 655 592 655 q 503 624 524 655 q 475 524 481 592 m 302 167 l 318 322 l 251 322 q 193 298 216 322 q 164 212 170 274 q 169 131 158 159 q 210 102 181 102 q 256 119 234 102 q 302 167 278 136 m 381 884 l 530 1136 l 760 1136 l 506 884 l 381 884 z "},"ð":{"ha":788,"x_min":56,"x_max":727,"o":"m 340 -13 q 131 59 206 -13 q 71 278 56 131 l 81 369 q 168 561 93 490 q 348 631 242 631 q 455 604 415 631 q 506 538 494 576 l 529 538 q 516 675 532 616 q 466 777 500 734 l 270 678 l 282 787 l 390 842 q 317 886 359 866 q 225 923 275 907 l 336 1037 q 457 987 403 1014 q 552 924 511 960 l 727 1014 l 716 905 l 619 855 q 686 691 669 785 q 689 472 703 597 l 670 285 q 564 59 654 130 q 340 -13 475 -13 m 355 122 q 452 160 420 122 q 492 271 484 197 l 501 359 q 484 461 509 427 q 394 495 460 495 q 297 461 327 495 q 259 359 266 427 l 250 271 q 265 160 241 197 q 355 122 288 122 z "},"ø":{"ha":788,"x_min":57,"x_max":706,"o":"m 234 273 q 232 220 230 242 q 240 182 234 198 l 467 630 q 441 636 456 634 q 408 639 426 639 q 300 602 336 639 q 255 484 264 564 l 234 273 m 354 119 q 461 154 426 119 q 506 273 497 189 l 528 485 q 530 535 532 513 q 523 573 529 557 l 297 126 q 323 121 308 122 q 354 119 337 119 m 340 -13 q 291 -9 316 -13 q 245 -1 266 -6 l 177 -126 l 57 -126 l 149 43 q 83 134 104 76 q 69 265 62 193 l 93 487 q 197 697 107 624 q 423 770 287 770 q 472 767 447 770 q 519 759 497 764 l 586 884 l 706 884 l 614 713 q 679 621 658 679 q 692 487 699 562 l 668 265 q 565 59 654 130 q 340 -13 476 -13 z "},"ǿ":{"ha":788,"x_min":57,"x_max":713,"o":"m 234 273 q 232 220 230 242 q 240 182 234 198 l 467 630 q 441 636 456 634 q 408 639 426 639 q 300 602 336 639 q 255 484 264 564 l 234 273 m 354 119 q 461 154 426 119 q 506 273 497 189 l 528 485 q 530 535 532 513 q 523 573 529 557 l 297 126 q 323 121 308 122 q 354 119 337 119 m 340 -13 q 291 -9 316 -13 q 245 -1 266 -6 l 177 -126 l 57 -126 l 149 43 q 83 134 104 76 q 69 265 62 193 l 93 487 q 197 697 107 624 q 423 770 287 770 q 472 767 447 770 q 519 759 497 764 l 586 884 l 706 884 l 614 713 q 679 621 658 679 q 692 487 699 562 l 668 265 q 565 59 654 130 q 340 -13 476 -13 m 335 884 l 484 1136 l 713 1136 l 460 884 l 335 884 z "},"þ":{"ha":788,"x_min":23,"x_max":699,"o":"m 354 122 q 444 155 413 122 q 484 261 476 188 l 509 504 q 496 597 515 568 q 431 626 476 626 q 355 604 391 626 q 282 534 318 582 l 244 165 q 296 133 270 143 q 354 122 322 122 m 367 -11 q 294 -3 330 -11 q 229 23 259 6 l 199 -253 l 23 -253 l 155 1010 l 332 1010 l 294 644 l 326 644 q 404 737 352 703 q 523 770 456 770 q 657 705 614 770 q 687 520 699 639 l 660 260 q 569 61 646 133 q 367 -11 492 -11 z "},"đ":{"ha":788,"x_min":62,"x_max":832,"o":"m 331 131 q 406 154 369 131 q 480 223 443 177 l 511 524 q 456 554 485 544 q 396 563 428 563 q 309 530 341 563 q 270 424 278 496 l 254 269 q 267 166 247 201 q 331 131 287 131 m 436 114 q 358 21 410 56 q 236 -13 306 -13 q 104 56 145 -13 q 74 246 62 125 l 93 426 q 182 626 107 554 q 379 697 258 697 q 458 686 422 697 q 525 659 495 676 l 538 783 l 356 783 l 367 893 l 549 893 l 562 1010 l 739 1010 l 726 893 l 832 893 l 821 783 l 715 783 l 633 0 l 456 0 l 467 114 l 436 114 z "},"ħ":{"ha":788,"x_min":25,"x_max":693,"o":"m 273 442 l 226 0 l 49 0 l 131 783 l 25 783 l 37 893 l 143 893 l 155 1010 l 332 1010 l 319 893 l 501 893 l 490 783 l 308 783 l 285 568 l 317 568 q 400 664 346 630 q 520 698 455 698 q 650 640 607 698 q 683 481 693 582 l 633 0 l 456 0 l 501 437 q 491 525 508 495 q 431 554 473 554 q 352 526 391 554 q 273 442 312 497 z "},"ı":{"ha":788,"x_min":56,"x_max":640,"o":"m 56 0 l 69 135 l 266 135 l 318 622 l 121 622 l 135 758 l 509 758 l 443 135 l 640 135 l 626 0 l 56 0 z "},"ĳ":{"ha":788,"x_min":61,"x_max":770,"o":"m 230 888 q 150 905 179 888 q 125 968 120 922 l 126 981 q 165 1046 131 1028 q 249 1064 198 1064 q 328 1046 299 1064 q 352 981 357 1028 l 351 968 q 313 905 346 922 q 230 888 279 888 m 641 888 q 561 905 591 888 q 537 968 532 922 l 538 981 q 576 1046 543 1028 q 660 1064 610 1064 q 741 1046 711 1064 q 765 981 770 1028 l 764 968 q 725 905 759 922 q 641 888 692 888 m 223 0 l 61 0 l 140 758 l 303 758 l 223 0 m 354 -264 q 275 -258 314 -264 q 198 -236 236 -251 l 235 -101 q 294 -121 265 -115 q 348 -128 322 -128 q 434 -95 400 -128 q 476 13 468 -63 l 540 622 l 404 622 l 418 758 l 717 758 l 636 -6 q 542 -200 624 -136 q 354 -264 460 -264 z "},"ĸ":{"ha":788,"x_min":73,"x_max":736,"o":"m 285 332 l 250 0 l 73 0 l 153 758 l 330 758 l 298 458 l 342 458 l 548 758 l 736 758 l 480 410 l 653 0 l 462 0 l 330 332 l 285 332 z "},"ŀ":{"ha":788,"x_min":63,"x_max":933,"o":"m 63 0 l 77 135 l 280 135 l 359 875 l 155 875 l 169 1010 l 551 1010 l 458 135 l 654 135 l 640 0 l 63 0 m 797 400 q 711 417 742 400 q 684 481 679 434 l 686 494 q 726 559 691 540 q 816 577 761 577 q 902 559 870 577 q 928 494 933 540 l 927 481 q 886 417 922 434 q 797 400 850 400 z "},"ł":{"ha":788,"x_min":63,"x_max":654,"o":"m 63 0 l 77 135 l 280 135 l 312 431 l 141 379 l 153 496 l 324 548 l 359 875 l 155 875 l 169 1010 l 551 1010 l 508 604 l 626 640 l 614 521 l 495 486 l 458 135 l 654 135 l 640 0 l 63 0 z "},"ŉ":{"ha":788,"x_min":35,"x_max":701,"o":"m 49 0 l 129 758 l 306 758 l 294 644 l 326 644 q 410 737 356 703 q 528 770 463 770 q 658 709 615 770 q 689 539 701 648 l 633 0 l 456 0 l 509 506 q 496 595 515 564 q 436 626 477 626 q 355 601 395 626 q 282 528 316 576 l 226 0 l 49 0 m 35 884 l 184 1136 l 414 1136 l 160 884 l 35 884 z "},"ŋ":{"ha":788,"x_min":49,"x_max":701,"o":"m 364 -264 q 294 -256 328 -264 q 225 -236 259 -249 l 261 -101 q 312 -121 288 -114 q 357 -128 336 -128 q 422 -97 396 -128 q 456 4 448 -67 l 510 511 q 497 597 515 568 q 436 626 479 626 q 355 601 395 626 q 282 528 316 576 l 226 0 l 49 0 l 129 758 l 306 758 l 294 644 l 326 644 q 412 737 357 705 q 529 770 467 770 q 658 710 615 770 q 689 543 701 650 l 633 -14 q 540 -203 619 -143 q 364 -264 461 -264 z "},"œ":{"ha":788,"x_min":21,"x_max":741,"o":"m 698 177 q 621 31 672 74 q 489 -13 571 -13 q 399 9 437 -13 q 341 74 361 32 q 276 9 314 32 q 193 -13 237 -13 q 68 52 114 -13 q 35 247 21 116 l 62 505 q 136 705 76 640 q 277 770 197 770 q 353 748 319 770 q 404 683 386 726 q 474 748 432 726 q 564 770 516 770 q 694 711 648 770 q 729 527 741 652 l 710 345 l 443 345 l 428 206 q 437 128 423 153 q 487 104 451 104 q 544 122 523 104 q 577 194 564 140 l 698 177 m 465 547 l 453 443 l 577 443 l 587 539 q 582 624 593 597 q 537 652 571 652 q 487 626 505 652 q 465 547 470 601 m 225 115 q 275 145 258 115 q 299 246 293 176 l 328 511 q 323 610 335 578 q 279 643 312 643 q 230 610 247 643 q 205 510 212 577 l 177 246 q 182 145 170 176 q 225 115 193 115 z "},"ŧ":{"ha":788,"x_min":102,"x_max":699,"o":"m 457 -13 q 272 54 333 -13 q 223 241 211 121 l 234 341 l 102 341 l 116 467 l 247 467 l 264 622 l 106 622 l 120 758 l 278 758 l 304 1010 l 481 1010 l 455 758 l 699 758 l 686 622 l 441 622 l 424 467 l 644 467 l 630 341 l 410 341 l 402 258 q 419 160 395 193 q 495 128 443 128 q 564 135 530 128 q 625 153 597 143 l 631 18 q 556 -4 604 5 q 457 -13 509 -13 z "},"ſ":{"ha":788,"x_min":192,"x_max":756,"o":"m 226 -253 l 318 622 l 192 622 l 206 758 l 332 758 l 337 804 q 423 973 348 910 q 610 1035 497 1035 q 686 1026 646 1035 q 756 1004 725 1016 l 721 880 q 669 897 694 890 q 619 904 643 904 q 547 879 574 904 q 513 797 519 855 l 403 -253 l 226 -253 z "},"ȷ":{"ha":788,"x_min":18,"x_max":607,"o":"m 202 -264 q 109 -258 155 -264 q 18 -236 63 -253 l 53 -101 q 128 -122 92 -117 q 196 -128 164 -128 q 303 -95 261 -128 q 352 13 345 -63 l 417 622 l 144 622 l 158 758 l 607 758 l 527 -6 q 424 -197 514 -130 q 202 -264 333 -264 z "},"":{"ha":788,"x_min":18,"x_max":607,"o":"m 202 -264 q 109 -258 155 -264 q 18 -236 63 -253 l 53 -101 q 128 -122 92 -117 q 196 -128 164 -128 q 303 -95 261 -128 q 352 13 345 -63 l 417 622 l 144 622 l 158 758 l 607 758 l 527 -6 q 424 -197 514 -130 q 202 -264 333 -264 z "},"α":{"ha":788,"x_min":58,"x_max":693,"o":"m 314 131 q 379 152 348 131 q 439 216 409 173 l 473 543 q 426 606 452 586 q 365 626 399 626 q 306 595 328 626 q 275 495 283 563 l 251 260 q 260 163 244 194 q 314 131 277 131 m 489 131 l 457 131 q 362 25 420 63 q 235 -13 304 -13 q 103 53 148 -13 q 71 239 58 119 l 100 511 q 169 702 112 633 q 307 771 225 771 q 402 741 364 771 q 455 653 439 711 l 485 653 l 496 758 l 674 758 l 617 216 q 629 141 611 158 q 693 134 648 125 l 679 0 q 540 15 588 -18 q 489 131 492 47 z "},"ά":{"ha":788,"x_min":58,"x_max":693,"o":"m 314 131 q 379 152 348 131 q 439 216 409 173 l 473 543 q 426 606 452 586 q 365 626 399 626 q 306 595 328 626 q 275 495 283 563 l 251 260 q 260 163 244 194 q 314 131 277 131 m 489 131 l 457 131 q 362 25 420 63 q 235 -13 304 -13 q 103 53 148 -13 q 71 239 58 119 l 100 511 q 169 702 112 633 q 307 771 225 771 q 402 741 364 771 q 455 653 439 711 l 485 653 l 496 758 l 674 758 l 617 216 q 629 141 611 158 q 693 134 648 125 l 679 0 q 540 15 588 -18 q 489 131 492 47 m 389 884 l 473 1136 l 693 1136 l 503 884 l 389 884 z "},"β":{"ha":788,"x_min":23,"x_max":694,"o":"m 351 125 q 439 160 404 125 q 484 279 475 196 l 490 341 q 472 447 499 415 q 381 479 444 479 l 337 479 l 350 597 l 389 597 q 466 624 439 597 q 499 711 492 652 l 504 759 q 490 854 511 824 q 417 883 468 883 q 338 850 364 883 q 304 744 312 817 l 244 165 q 291 135 265 145 q 351 125 317 125 m 367 -13 q 293 -4 328 -13 q 229 19 258 4 l 199 -253 l 23 -253 l 128 740 q 222 950 141 878 q 432 1023 303 1023 q 625 961 556 1023 q 682 787 694 899 l 678 741 q 629 627 670 673 q 509 566 588 581 l 505 529 q 634 468 592 520 q 668 336 677 417 l 660 264 q 566 60 646 133 q 367 -13 485 -13 z "},"γ":{"ha":788,"x_min":93,"x_max":746,"o":"m 420 -253 l 208 -253 l 255 25 l 93 758 l 274 758 l 362 210 l 568 758 l 746 758 l 432 25 l 420 -253 z "},"δ":{"ha":788,"x_min":61,"x_max":688,"o":"m 340 -13 q 134 56 207 -13 q 76 261 61 124 l 90 393 q 143 523 97 470 q 266 611 188 577 q 181 686 205 644 q 163 793 157 727 q 247 955 174 899 q 443 1010 321 1010 l 653 1010 l 639 875 l 442 875 q 364 859 391 875 q 332 797 337 842 q 365 731 328 754 q 489 674 402 708 q 642 573 596 630 q 677 407 688 516 l 662 261 q 559 56 646 124 q 340 -13 472 -13 m 354 122 q 444 155 412 122 q 485 261 477 187 l 500 407 q 475 503 506 468 q 367 564 444 537 q 301 504 327 543 q 268 403 274 466 l 253 261 q 270 155 245 187 q 354 122 295 122 z "},"ε":{"ha":788,"x_min":52,"x_max":694,"o":"m 351 -13 q 123 42 194 -13 q 63 206 52 96 l 64 222 q 117 331 72 285 q 247 384 163 378 l 250 412 q 147 451 183 417 q 119 548 111 486 l 120 569 q 210 721 131 672 q 433 770 289 770 q 631 715 568 770 q 689 534 694 659 l 528 524 q 504 620 528 592 q 420 648 481 648 q 330 627 359 648 q 297 558 302 606 l 295 540 q 314 475 290 494 q 398 457 337 457 l 457 457 l 446 347 l 386 347 q 280 322 309 347 q 245 240 251 297 l 244 227 q 264 141 237 168 q 365 115 290 115 q 470 145 437 115 q 518 247 503 174 l 678 239 q 585 48 655 109 q 351 -13 514 -13 z "},"έ":{"ha":788,"x_min":52,"x_max":694,"o":"m 351 -13 q 123 42 194 -13 q 63 206 52 96 l 64 222 q 117 331 72 285 q 247 384 163 378 l 250 412 q 147 451 183 417 q 119 548 111 486 l 120 569 q 210 721 131 672 q 433 770 289 770 q 631 715 568 770 q 689 534 694 659 l 528 524 q 504 620 528 592 q 420 648 481 648 q 330 627 359 648 q 297 558 302 606 l 295 540 q 314 475 290 494 q 398 457 337 457 l 457 457 l 446 347 l 386 347 q 280 322 309 347 q 245 240 251 297 l 244 227 q 264 141 237 168 q 365 115 290 115 q 470 145 437 115 q 518 247 503 174 l 678 239 q 585 48 655 109 q 351 -13 514 -13 m 357 884 l 442 1136 l 662 1136 l 471 884 l 357 884 z "},"ζ":{"ha":788,"x_min":64,"x_max":745,"o":"m 370 -253 l 232 -253 l 246 -121 l 385 -121 q 443 -106 420 -121 q 471 -44 466 -91 q 456 20 476 4 q 402 37 437 37 l 327 37 q 128 106 192 37 q 77 297 64 176 q 128 464 86 390 q 245 624 170 538 l 390 794 l 384 811 q 205 853 270 798 q 116 1011 140 908 l 230 1057 q 323 936 255 962 q 510 938 390 909 l 722 1042 l 745 872 l 544 821 l 367 577 q 292 448 321 505 q 258 328 264 390 q 275 208 250 249 q 357 168 299 168 l 453 168 q 593 117 545 168 q 630 -40 641 67 q 549 -199 619 -145 q 370 -253 480 -253 z "},"η":{"ha":788,"x_min":49,"x_max":701,"o":"m 429 -253 l 510 511 q 497 597 515 568 q 436 626 479 626 q 355 601 395 626 q 282 528 316 576 l 226 0 l 49 0 l 129 758 l 306 758 l 294 644 l 326 644 q 410 736 355 702 q 529 770 465 770 q 658 710 616 770 q 689 543 701 649 l 606 -253 l 429 -253 z "},"ή":{"ha":788,"x_min":49,"x_max":701,"o":"m 429 -253 l 510 511 q 497 597 515 568 q 436 626 479 626 q 355 601 395 626 q 282 528 316 576 l 226 0 l 49 0 l 129 758 l 306 758 l 294 644 l 326 644 q 410 736 355 702 q 529 770 465 770 q 658 710 616 770 q 689 543 701 649 l 606 -253 l 429 -253 m 371 884 l 456 1136 l 676 1136 l 485 884 l 371 884 z "},"θ":{"ha":788,"x_min":63,"x_max":723,"o":"m 340 -13 q 133 62 203 -13 q 78 274 63 136 l 126 731 q 227 946 140 870 q 449 1023 313 1023 q 654 946 585 1023 q 710 731 723 870 l 662 274 q 561 62 646 136 q 340 -13 476 -13 m 295 727 l 279 576 l 524 576 l 540 730 q 524 848 548 809 q 434 888 500 888 q 336 848 370 888 q 295 727 303 808 m 354 122 q 452 160 419 122 q 492 282 485 198 l 510 448 l 265 448 l 247 282 q 265 160 240 198 q 354 122 289 122 z "},"ι":{"ha":788,"x_min":115,"x_max":649,"o":"m 485 -8 q 312 59 371 -8 q 264 239 253 126 l 304 622 l 115 622 l 129 758 l 495 758 l 442 255 q 458 163 436 193 q 528 133 481 133 q 585 140 557 133 q 634 158 612 146 l 649 25 q 566 1 607 9 q 485 -8 524 -8 z "},"ΐ":{"ha":788,"x_min":115,"x_max":740,"o":"m 485 -8 q 312 59 371 -8 q 264 239 253 126 l 304 622 l 115 622 l 129 758 l 495 758 l 442 255 q 458 163 436 193 q 528 133 481 133 q 585 140 557 133 q 634 158 612 146 l 649 25 q 566 1 607 9 q 485 -8 524 -8 m 338 884 l 414 1136 l 576 1136 l 439 884 l 338 884 m 202 880 q 146 897 167 880 q 130 960 125 914 l 131 972 q 161 1037 136 1019 q 221 1056 186 1056 q 278 1037 258 1056 q 294 972 299 1019 l 293 960 q 263 897 288 914 q 202 880 237 880 m 644 880 q 586 897 607 880 q 571 960 566 914 l 572 972 q 602 1037 577 1019 q 663 1056 626 1056 q 720 1037 699 1056 q 735 972 740 1019 l 734 960 q 704 897 729 914 q 644 880 679 880 z "},"ί":{"ha":788,"x_min":115,"x_max":649,"o":"m 485 -8 q 312 59 371 -8 q 264 239 253 126 l 304 622 l 115 622 l 129 758 l 495 758 l 442 255 q 458 163 436 193 q 528 133 481 133 q 585 140 557 133 q 634 158 612 146 l 649 25 q 566 1 607 9 q 485 -8 524 -8 m 343 884 l 428 1136 l 648 1136 l 457 884 l 343 884 z "},"ϊ":{"ha":788,"x_min":115,"x_max":669,"o":"m 485 -8 q 312 59 371 -8 q 264 239 253 126 l 304 622 l 115 622 l 129 758 l 495 758 l 442 255 q 458 163 436 193 q 528 133 481 133 q 585 140 557 133 q 634 158 612 146 l 649 25 q 566 1 607 9 q 485 -8 524 -8 m 297 888 q 232 905 256 888 q 213 968 208 922 l 215 981 q 247 1046 220 1028 q 316 1064 275 1064 q 381 1046 357 1064 q 399 981 404 1028 l 398 968 q 365 905 393 922 q 297 888 337 888 m 562 888 q 497 905 520 888 q 479 968 473 922 l 480 981 q 512 1046 485 1028 q 581 1064 539 1064 q 645 1046 621 1064 q 664 981 669 1028 l 663 968 q 629 905 658 922 q 562 888 601 888 z "},"κ":{"ha":788,"x_min":73,"x_max":736,"o":"m 285 332 l 250 0 l 73 0 l 153 758 l 330 758 l 298 458 l 342 458 l 548 758 l 736 758 l 480 410 l 653 0 l 462 0 l 330 332 l 285 332 z "},"λ":{"ha":788,"x_min":14,"x_max":667,"o":"m 487 0 l 402 625 l 192 0 l 14 0 l 265 718 l 389 718 l 385 746 q 344 852 374 821 q 250 883 314 883 q 205 879 230 883 q 152 871 181 876 l 145 1006 q 212 1015 179 1011 q 275 1018 245 1018 q 455 967 391 1018 q 537 804 518 917 l 667 0 l 487 0 z "},"μ":{"ha":788,"x_min":19,"x_max":689,"o":"m 236 25 l 217 -253 l 19 -253 l 58 25 l 135 758 l 313 758 l 260 253 q 274 161 254 188 q 328 134 294 134 q 390 153 362 134 q 443 207 417 172 l 501 758 l 678 758 l 621 216 q 631 141 615 157 q 689 134 646 125 l 676 0 q 557 10 597 -16 q 508 109 516 37 l 480 109 q 412 21 449 53 q 324 -10 375 -10 q 274 3 297 -10 q 237 39 251 15 l 236 25 z "},"ν":{"ha":788,"x_min":93,"x_max":746,"o":"m 432 0 l 249 0 l 93 758 l 273 758 l 378 160 q 499 464 451 308 q 571 758 548 620 l 746 758 q 620 354 703 544 q 432 0 537 163 z "},"ξ":{"ha":788,"x_min":72,"x_max":713,"o":"m 636 -40 q 554 -199 625 -145 q 370 -253 484 -253 l 247 -253 l 261 -121 l 385 -121 q 448 -106 424 -121 q 477 -44 472 -91 q 461 20 482 4 q 402 37 441 37 l 313 37 q 134 99 196 37 q 83 270 72 162 l 87 299 q 148 432 95 375 q 295 499 201 490 l 298 528 q 210 565 237 528 q 188 657 182 602 q 225 741 193 703 q 318 794 256 778 l 322 823 q 169 874 225 824 q 91 1011 112 923 l 197 1057 q 293 951 229 977 q 471 944 357 924 l 699 1042 l 713 872 l 477 817 l 439 789 q 387 730 404 761 q 366 664 370 699 q 379 597 361 617 q 427 577 396 577 l 606 577 l 592 446 l 408 446 q 306 409 340 446 q 266 318 273 372 l 264 289 q 283 201 259 235 q 370 168 308 168 l 436 168 q 595 117 542 168 q 636 -40 648 67 z "},"ο":{"ha":788,"x_min":64,"x_max":701,"o":"m 342 -13 q 134 59 203 -13 q 77 258 64 130 l 102 495 q 201 698 116 625 q 424 770 287 770 q 631 697 561 770 q 687 494 701 624 l 662 255 q 564 58 649 129 q 342 -13 479 -13 m 356 122 q 447 155 415 122 q 486 261 479 188 l 510 491 q 494 601 518 567 q 410 635 470 635 q 319 601 351 635 q 279 492 287 567 l 255 264 q 272 156 247 189 q 356 122 297 122 z "},"ό":{"ha":788,"x_min":64,"x_max":701,"o":"m 342 -13 q 134 59 203 -13 q 77 258 64 130 l 102 495 q 201 698 116 625 q 424 770 287 770 q 631 697 561 770 q 687 494 701 624 l 662 255 q 564 58 649 129 q 342 -13 479 -13 m 356 122 q 447 155 415 122 q 486 261 479 188 l 510 491 q 494 601 518 567 q 410 635 470 635 q 319 601 351 635 q 279 492 287 567 l 255 264 q 272 156 247 189 q 356 122 297 122 m 342 884 l 427 1136 l 646 1136 l 456 884 l 342 884 z "},"π":{"ha":788,"x_min":58,"x_max":731,"o":"m 731 758 l 717 622 l 619 622 l 577 223 q 592 143 569 162 q 679 134 614 124 l 665 0 q 461 23 525 -21 q 409 177 398 67 l 456 622 l 306 622 l 240 0 l 77 0 l 143 622 l 58 622 l 72 758 l 731 758 z "},"ρ":{"ha":788,"x_min":23,"x_max":698,"o":"m 379 131 q 451 165 426 131 q 485 271 477 199 l 508 496 q 490 600 515 568 q 409 633 465 633 q 319 600 352 633 q 278 496 285 568 l 250 223 q 309 154 277 177 q 379 131 342 131 m 23 -253 l 101 496 q 198 699 115 629 q 419 769 280 769 q 629 699 559 769 q 684 496 698 629 l 659 250 q 584 58 646 129 q 423 -13 521 -13 q 319 21 359 -13 q 269 114 279 54 l 237 114 l 199 -253 l 23 -253 z "},"ς":{"ha":788,"x_min":68,"x_max":677,"o":"m 227 -253 l 241 -117 l 380 -117 q 438 -103 415 -117 q 466 -42 461 -88 q 451 21 470 5 q 396 37 432 37 l 306 37 q 124 110 179 37 q 83 319 68 183 l 101 492 q 197 698 115 626 q 426 770 279 770 q 618 702 559 770 q 676 494 677 634 l 505 481 q 488 601 509 568 q 407 634 467 634 q 314 601 343 634 q 278 491 285 568 l 259 316 q 274 205 251 239 q 364 172 297 172 l 452 172 q 595 121 547 172 q 631 -37 643 71 q 543 -197 620 -141 q 343 -253 466 -253 l 227 -253 z "},"σ":{"ha":788,"x_min":63,"x_max":789,"o":"m 333 122 q 409 155 384 122 q 442 263 434 188 l 463 471 q 455 588 472 551 q 386 626 437 626 q 310 592 336 626 q 277 486 284 557 l 254 263 q 265 155 246 188 q 333 122 283 122 m 319 -13 q 129 57 196 -13 q 76 258 63 126 l 101 487 q 195 686 114 615 q 400 758 277 758 l 789 758 l 774 610 l 593 626 q 633 551 621 596 q 638 448 644 506 l 617 258 q 523 57 605 126 q 319 -13 442 -13 z "},"τ":{"ha":788,"x_min":106,"x_max":730,"o":"m 557 0 q 331 21 403 -23 q 271 177 259 66 l 317 617 l 106 617 l 121 758 l 730 758 l 715 617 l 494 617 l 452 216 q 472 142 446 160 q 571 134 497 124 l 557 0 z "},"υ":{"ha":788,"x_min":63,"x_max":712,"o":"m 341 -13 q 133 60 202 -13 q 77 264 63 133 l 129 758 l 306 758 l 254 265 q 270 160 246 193 q 355 128 293 128 q 446 160 417 128 q 484 264 476 192 l 535 758 l 712 758 l 660 264 q 563 60 646 133 q 341 -13 479 -13 z "},"ΰ":{"ha":788,"x_min":63,"x_max":750,"o":"m 341 -13 q 133 60 202 -13 q 77 264 63 133 l 129 758 l 306 758 l 254 265 q 270 160 246 193 q 355 128 293 128 q 446 160 417 128 q 484 264 476 192 l 535 758 l 712 758 l 660 264 q 563 60 646 133 q 341 -13 479 -13 m 348 884 l 424 1136 l 586 1136 l 449 884 l 348 884 m 212 880 q 156 897 177 880 q 140 960 135 914 l 141 972 q 171 1037 146 1019 q 231 1056 196 1056 q 289 1037 268 1056 q 304 972 309 1019 l 303 960 q 273 897 298 914 q 212 880 247 880 m 654 880 q 597 897 617 880 q 581 960 576 914 l 582 972 q 612 1037 587 1019 q 673 1056 636 1056 q 730 1037 710 1056 q 745 972 750 1019 l 744 960 q 714 897 739 914 q 654 880 689 880 z "},"ϋ":{"ha":788,"x_min":63,"x_max":712,"o":"m 341 -13 q 133 60 202 -13 q 77 264 63 133 l 129 758 l 306 758 l 254 265 q 270 160 246 193 q 355 128 293 128 q 446 160 417 128 q 484 264 476 192 l 535 758 l 712 758 l 660 264 q 563 60 646 133 q 341 -13 479 -13 m 302 888 q 237 905 261 888 q 218 968 213 922 l 220 981 q 253 1046 225 1028 q 321 1064 280 1064 q 386 1046 362 1064 q 404 981 409 1028 l 403 968 q 370 905 398 922 q 302 888 342 888 m 567 888 q 502 905 525 888 q 484 968 479 922 l 485 981 q 517 1046 490 1028 q 586 1064 544 1064 q 650 1046 626 1064 q 669 981 674 1028 l 668 968 q 634 905 663 922 q 567 888 606 888 z "},"ύ":{"ha":788,"x_min":63,"x_max":712,"o":"m 341 -13 q 133 60 202 -13 q 77 264 63 133 l 129 758 l 306 758 l 254 265 q 270 160 246 193 q 355 128 293 128 q 446 160 417 128 q 484 264 476 192 l 535 758 l 712 758 l 660 264 q 563 60 646 133 q 341 -13 479 -13 m 335 884 l 419 1136 l 639 1136 l 448 884 l 335 884 z "},"φ":{"ha":788,"x_min":39,"x_max":723,"o":"m 388 -253 l 250 -253 l 275 -8 q 97 100 154 10 q 56 343 39 189 l 67 462 q 99 638 77 558 q 155 775 121 717 l 292 735 q 244 615 266 684 q 213 462 222 545 l 202 343 q 212 192 191 246 q 295 121 234 138 l 362 758 l 461 758 q 657 669 590 758 q 706 412 723 581 l 697 321 q 605 97 682 181 q 413 -6 529 13 l 388 -253 m 473 630 l 420 121 q 521 184 487 135 q 564 321 554 234 l 573 412 q 561 578 586 525 q 473 630 537 630 z "},"χ":{"ha":788,"x_min":0,"x_max":735,"o":"m 427 -253 l 335 52 l 174 -253 l 0 -253 l 278 247 l 124 758 l 301 758 l 395 447 l 561 758 l 735 758 l 452 253 l 606 -253 l 427 -253 z "},"ψ":{"ha":788,"x_min":37,"x_max":742,"o":"m 388 -253 l 241 -253 l 266 -11 q 89 84 141 5 q 49 292 37 163 l 98 758 l 246 758 l 197 292 q 210 174 189 216 q 288 124 230 133 l 355 758 l 486 758 l 419 124 q 509 174 480 133 q 545 292 538 216 l 595 758 l 742 758 l 693 292 q 610 84 681 163 q 413 -13 540 5 l 388 -253 z "},"ω":{"ha":788,"x_min":34,"x_max":721,"o":"m 178 -13 q 69 65 105 -13 q 49 292 34 143 l 66 449 q 102 640 77 552 q 152 779 126 729 l 289 739 q 246 612 270 692 q 213 449 222 533 l 196 279 q 198 165 188 203 q 234 128 208 128 q 278 156 261 128 q 302 249 294 184 l 336 572 l 467 572 l 433 249 q 437 156 426 184 q 476 128 448 128 q 520 165 504 128 q 544 279 537 203 l 562 449 q 564 612 571 533 q 547 739 558 692 l 694 779 q 715 640 710 729 q 710 449 721 552 l 693 292 q 626 65 678 143 q 500 -13 574 -13 q 413 24 447 -13 q 367 144 379 61 l 342 144 q 277 24 318 61 q 178 -13 235 -13 z "},"ώ":{"ha":788,"x_min":34,"x_max":721,"o":"m 178 -13 q 69 65 105 -13 q 49 292 34 143 l 66 449 q 102 640 77 552 q 152 779 126 729 l 289 739 q 246 612 270 692 q 213 449 222 533 l 196 279 q 198 165 188 203 q 234 128 208 128 q 278 156 261 128 q 302 249 294 184 l 336 572 l 467 572 l 433 249 q 437 156 426 184 q 476 128 448 128 q 520 165 504 128 q 544 279 537 203 l 562 449 q 564 612 571 533 q 547 739 558 692 l 694 779 q 715 640 710 729 q 710 449 721 552 l 693 292 q 626 65 678 143 q 500 -13 574 -13 q 413 24 447 -13 q 367 144 379 61 l 342 144 q 277 24 318 61 q 178 -13 235 -13 m 350 884 l 434 1136 l 654 1136 l 463 884 l 350 884 z "},"а":{"ha":788,"x_min":35,"x_max":699,"o":"m 284 111 q 362 128 327 111 q 429 183 398 145 l 443 314 l 303 314 q 238 292 261 314 q 210 212 215 270 q 222 138 205 164 q 284 111 239 111 m 229 -13 q 86 45 138 -13 q 45 205 35 104 q 123 364 57 307 q 288 420 189 420 l 455 420 l 466 529 q 449 610 472 583 q 371 638 426 638 q 289 612 317 638 q 239 514 260 586 l 96 544 q 201 717 131 663 q 390 770 270 770 q 584 715 518 770 q 638 539 650 659 l 604 211 q 622 138 597 153 q 699 134 646 124 l 686 0 q 549 8 600 -18 q 490 111 497 34 l 462 111 q 363 23 426 59 q 229 -13 301 -13 z "},"б":{"ha":788,"x_min":62,"x_max":693,"o":"m 340 -13 q 134 59 206 -13 q 78 285 62 131 l 114 624 q 213 879 131 792 q 442 989 294 966 l 691 1029 l 692 890 l 455 850 q 335 787 378 836 q 283 639 293 737 l 277 583 l 302 583 q 375 655 328 628 q 486 682 422 682 q 640 616 586 682 q 681 436 693 549 l 663 269 q 562 57 649 128 q 340 -13 475 -13 m 354 122 q 446 158 415 122 q 484 263 476 193 l 500 418 q 483 513 506 481 q 398 545 460 545 q 306 513 335 545 q 270 418 277 481 l 254 263 q 268 158 246 193 q 354 122 290 122 z "},"в":{"ha":788,"x_min":49,"x_max":703,"o":"m 49 0 l 129 758 l 418 758 q 632 712 561 758 q 693 566 703 667 l 691 544 q 641 448 684 482 q 530 408 598 413 l 528 380 q 646 329 610 374 q 676 222 683 284 l 674 206 q 585 52 664 104 q 338 0 505 0 l 49 0 m 265 449 l 393 449 q 486 466 458 449 q 519 530 514 482 l 521 548 q 504 616 527 597 q 413 635 481 635 l 285 635 l 265 449 m 232 128 l 360 128 q 468 152 436 128 q 506 230 501 176 l 508 242 q 486 317 513 294 q 381 340 460 340 l 254 340 l 232 128 z "},"г":{"ha":788,"x_min":95,"x_max":702,"o":"m 95 0 l 174 758 l 702 758 l 687 617 l 336 617 l 271 0 l 95 0 z "},"ѓ":{"ha":788,"x_min":95,"x_max":707,"o":"m 95 0 l 174 758 l 702 758 l 687 617 l 336 617 l 271 0 l 95 0 m 328 884 l 477 1136 l 707 1136 l 453 884 l 328 884 z "},"д":{"ha":788,"x_min":-20,"x_max":697,"o":"m 251 170 l 249 140 l 443 140 l 492 617 l 345 617 l 312 342 q 290 245 306 287 q 251 170 275 203 m 163 0 l 143 -189 l -20 -189 l 15 140 l 80 140 q 126 211 107 164 q 154 348 144 259 l 202 758 l 670 758 l 606 140 l 697 140 l 662 -189 l 499 -189 l 519 0 l 163 0 z "},"е":{"ha":788,"x_min":63,"x_max":698,"o":"m 658 170 q 547 30 616 72 q 347 -13 477 -13 q 137 57 211 -13 q 77 259 63 128 l 102 500 q 203 700 115 630 q 423 770 290 770 q 628 698 557 770 q 684 489 698 626 l 669 345 l 263 345 l 253 253 q 271 146 245 181 q 364 112 297 112 q 456 135 422 112 q 513 213 490 158 l 658 170 m 279 509 l 274 451 l 504 451 l 509 500 q 494 614 516 580 q 409 648 471 648 q 317 615 347 648 q 279 509 287 582 z "},"ѐ":{"ha":788,"x_min":63,"x_max":698,"o":"m 658 170 q 547 30 616 72 q 347 -13 477 -13 q 137 57 211 -13 q 77 259 63 128 l 102 500 q 203 700 115 630 q 423 770 290 770 q 628 698 557 770 q 684 489 698 626 l 669 345 l 263 345 l 253 253 q 271 146 245 181 q 364 112 297 112 q 456 135 422 112 q 513 213 490 158 l 658 170 m 279 509 l 274 451 l 504 451 l 509 500 q 494 614 516 580 q 409 648 471 648 q 317 615 347 648 q 279 509 287 582 m 424 884 l 225 1136 l 455 1136 l 549 884 l 424 884 z "},"ё":{"ha":788,"x_min":63,"x_max":698,"o":"m 658 170 q 547 30 616 72 q 347 -13 477 -13 q 137 57 211 -13 q 77 259 63 128 l 102 500 q 203 700 115 630 q 423 770 290 770 q 628 698 557 770 q 684 489 698 626 l 669 345 l 263 345 l 253 253 q 271 146 245 181 q 364 112 297 112 q 456 135 422 112 q 513 213 490 158 l 658 170 m 279 509 l 274 451 l 504 451 l 509 500 q 494 614 516 580 q 409 648 471 648 q 317 615 347 648 q 279 509 287 582 m 302 888 q 237 905 261 888 q 218 968 213 922 l 220 981 q 253 1046 225 1028 q 321 1064 280 1064 q 386 1046 362 1064 q 404 981 409 1028 l 403 968 q 370 905 398 922 q 302 888 342 888 m 567 888 q 502 905 525 888 q 484 968 479 922 l 485 981 q 517 1046 490 1028 q 586 1064 544 1064 q 650 1046 626 1064 q 669 981 674 1028 l 668 968 q 634 905 663 922 q 567 888 606 888 z "},"ж":{"ha":788,"x_min":-18,"x_max":782,"o":"m 271 345 l 129 0 l -18 0 l 173 417 l 58 758 l 207 758 l 293 463 l 324 463 l 355 758 l 486 758 l 456 463 l 486 463 l 629 758 l 782 758 l 596 417 l 701 0 l 549 0 l 482 345 l 443 345 l 407 0 l 275 0 l 312 345 l 271 345 z "},"з":{"ha":788,"x_min":61,"x_max":705,"o":"m 342 -13 q 124 46 188 -13 q 67 239 61 105 l 230 247 q 256 137 230 164 q 355 110 283 110 q 461 138 431 110 q 499 227 492 167 l 500 240 q 482 323 506 298 q 381 347 458 347 l 328 347 l 340 457 l 393 457 q 480 475 453 457 q 513 540 508 492 l 514 558 q 497 628 520 609 q 412 648 475 648 q 321 623 348 648 q 278 524 293 598 l 116 534 q 212 715 139 659 q 424 770 285 770 q 638 723 572 770 q 693 569 705 676 l 692 548 q 642 451 684 486 q 530 412 600 417 l 528 384 q 646 331 610 378 q 676 222 683 285 l 674 206 q 583 40 663 93 q 342 -13 504 -13 z "},"и":{"ha":788,"x_min":49,"x_max":712,"o":"m 480 0 l 537 538 l 239 0 l 49 0 l 129 758 l 283 758 l 223 194 l 537 758 l 712 758 l 633 0 l 480 0 z "},"й":{"ha":788,"x_min":49,"x_max":721,"o":"m 480 0 l 537 538 l 239 0 l 49 0 l 129 758 l 283 758 l 223 194 l 537 758 l 712 758 l 633 0 l 480 0 m 433 875 q 253 938 319 875 q 201 1140 186 1001 l 359 1153 q 367 1029 348 1066 q 446 992 386 992 q 532 1029 505 992 q 566 1153 558 1066 l 721 1140 q 626 938 706 1001 q 433 875 547 875 z "},"ѝ":{"ha":788,"x_min":49,"x_max":712,"o":"m 480 0 l 537 538 l 239 0 l 49 0 l 129 758 l 283 758 l 223 194 l 537 758 l 712 758 l 633 0 l 480 0 m 436 884 l 236 1136 l 466 1136 l 561 884 l 436 884 z "},"к":{"ha":788,"x_min":73,"x_max":736,"o":"m 285 332 l 250 0 l 73 0 l 153 758 l 330 758 l 298 458 l 342 458 l 548 758 l 736 758 l 480 410 l 653 0 l 462 0 l 330 332 l 285 332 z "},"ќ":{"ha":788,"x_min":73,"x_max":745,"o":"m 285 332 l 250 0 l 73 0 l 153 758 l 330 758 l 298 458 l 342 458 l 548 758 l 736 758 l 480 410 l 653 0 l 462 0 l 330 332 l 285 332 m 366 884 l 515 1136 l 745 1136 l 491 884 l 366 884 z "},"л":{"ha":788,"x_min":-18,"x_max":720,"o":"m 463 0 l 529 622 l 357 622 l 319 293 q 243 61 302 136 q 82 -14 184 -14 q 32 -9 57 -14 q -18 4 8 -4 l 15 138 q 42 129 30 133 q 66 125 54 125 q 122 167 101 125 q 155 309 143 210 l 206 758 l 720 758 l 640 0 l 463 0 z "},"м":{"ha":788,"x_min":38,"x_max":723,"o":"m 298 189 l 234 556 l 191 0 l 38 0 l 117 758 l 303 758 l 383 355 l 544 758 l 723 758 l 644 0 l 491 0 l 564 549 l 426 189 l 298 189 z "},"н":{"ha":788,"x_min":49,"x_max":712,"o":"m 49 0 l 129 758 l 306 758 l 278 496 l 508 496 l 535 758 l 712 758 l 633 0 l 456 0 l 494 357 l 264 357 l 226 0 l 49 0 z "},"о":{"ha":788,"x_min":64,"x_max":701,"o":"m 342 -13 q 134 59 203 -13 q 77 258 64 130 l 102 495 q 201 698 116 625 q 424 770 287 770 q 631 697 561 770 q 687 494 701 624 l 662 255 q 564 58 649 129 q 342 -13 479 -13 m 356 122 q 447 155 415 122 q 486 261 479 188 l 510 491 q 494 601 518 567 q 410 635 470 635 q 319 601 351 635 q 279 492 287 567 l 255 264 q 272 156 247 189 q 356 122 297 122 z "},"п":{"ha":788,"x_min":49,"x_max":712,"o":"m 49 0 l 129 758 l 712 758 l 633 0 l 456 0 l 520 617 l 290 617 l 226 0 l 49 0 z "},"р":{"ha":788,"x_min":23,"x_max":699,"o":"m 355 122 q 444 156 413 122 q 484 261 476 189 l 509 504 q 495 597 515 567 q 431 626 475 626 q 355 604 393 626 q 282 534 318 581 l 244 165 q 297 133 270 144 q 355 122 323 122 m 367 -11 q 295 -3 331 -11 q 229 23 259 6 l 199 -253 l 23 -253 l 129 758 l 306 758 l 294 644 l 326 644 q 404 737 352 703 q 523 770 456 770 q 657 704 614 770 q 687 520 699 638 l 660 260 q 568 62 646 135 q 367 -11 490 -11 z "},"с":{"ha":788,"x_min":63,"x_max":692,"o":"m 351 -13 q 133 59 202 -13 q 77 261 63 130 l 101 495 q 200 698 115 626 q 432 770 285 770 q 629 703 567 770 q 691 501 692 636 l 519 490 q 498 603 523 572 q 413 634 473 634 q 318 601 351 634 q 278 489 285 568 l 254 266 q 271 155 246 188 q 361 122 297 122 q 451 148 422 122 q 492 242 481 174 l 662 231 q 568 47 641 107 q 351 -13 494 -13 z "},"т":{"ha":788,"x_min":96,"x_max":731,"o":"m 253 0 l 317 617 l 96 617 l 111 758 l 731 758 l 716 617 l 494 617 l 429 0 l 253 0 z "},"у":{"ha":788,"x_min":-3,"x_max":746,"o":"m 145 -263 q 76 -259 112 -263 q -3 -249 39 -255 l 27 -114 q 93 -126 63 -122 q 146 -130 122 -130 q 245 -99 208 -130 q 308 4 282 -68 l 312 18 l 205 18 l 93 758 l 275 758 l 357 146 l 571 758 l 746 758 l 462 -10 q 335 -205 413 -146 q 145 -263 258 -263 z "},"ў":{"ha":788,"x_min":-3,"x_max":746,"o":"m 145 -263 q 76 -259 112 -263 q -3 -249 39 -255 l 27 -114 q 93 -126 63 -122 q 146 -130 122 -130 q 245 -99 208 -130 q 308 4 282 -68 l 312 18 l 205 18 l 93 758 l 275 758 l 357 146 l 571 758 l 746 758 l 462 -10 q 335 -205 413 -146 q 145 -263 258 -263 m 433 875 q 253 938 319 875 q 201 1140 186 1001 l 359 1153 q 367 1029 348 1066 q 446 992 386 992 q 532 1029 505 992 q 566 1153 558 1066 l 721 1140 q 626 938 706 1001 q 433 875 547 875 z "},"ф":{"ha":788,"x_min":34,"x_max":727,"o":"m 447 0 l 414 0 l 388 -253 l 241 -253 l 268 0 l 235 0 q 83 73 133 0 q 48 277 34 146 l 69 482 q 148 685 83 612 q 314 758 212 758 l 347 758 l 374 1010 l 520 1010 l 494 758 l 527 758 q 678 685 629 758 q 713 482 727 612 l 692 275 q 614 73 678 146 q 447 0 549 0 m 269 122 l 293 122 l 347 635 l 323 635 q 250 596 279 635 q 213 477 221 557 l 192 278 q 205 161 184 199 q 269 122 225 122 m 492 635 l 468 635 l 414 122 l 438 122 q 511 161 482 122 q 548 278 540 199 l 569 477 q 557 596 577 557 q 492 635 537 635 z "},"х":{"ha":788,"x_min":27,"x_max":721,"o":"m 471 0 l 357 242 l 206 0 l 27 0 l 293 384 l 120 758 l 301 758 l 403 539 l 542 758 l 721 758 l 471 393 l 653 0 l 471 0 z "},"ц":{"ha":788,"x_min":49,"x_max":705,"o":"m 501 -189 l 521 0 l 49 0 l 129 758 l 306 758 l 241 140 l 443 140 l 508 758 l 686 758 l 621 140 l 705 140 l 669 -189 l 501 -189 z "},"ч":{"ha":788,"x_min":74,"x_max":689,"o":"m 689 758 l 610 0 l 432 0 l 458 249 q 402 236 434 241 q 328 231 369 231 q 134 301 194 231 q 88 506 74 370 l 115 758 l 292 758 l 265 509 q 284 401 258 433 q 370 369 311 369 q 424 374 396 367 q 472 389 452 380 l 511 758 l 689 758 z "},"ш":{"ha":788,"x_min":19,"x_max":742,"o":"m 19 0 l 98 758 l 242 758 l 177 129 l 283 129 l 348 758 l 492 758 l 427 129 l 533 129 l 598 758 l 742 758 l 663 0 l 19 0 z "},"щ":{"ha":788,"x_min":19,"x_max":742,"o":"m 688 -189 l 544 -189 l 564 0 l 19 0 l 98 758 l 242 758 l 177 129 l 283 129 l 348 758 l 492 758 l 427 129 l 533 129 l 598 758 l 742 758 l 677 135 l 722 135 l 688 -189 z "},"ъ":{"ha":788,"x_min":37,"x_max":713,"o":"m 423 0 l 130 0 l 194 617 l 37 617 l 52 758 l 386 758 l 361 521 l 479 521 q 655 461 596 521 q 702 294 713 402 l 696 229 q 612 61 684 121 q 423 0 540 0 m 321 135 l 412 135 q 488 158 462 135 q 520 236 514 182 l 525 293 q 510 367 532 345 q 438 389 489 389 l 347 389 l 321 135 z "},"ы":{"ha":788,"x_min":25,"x_max":736,"o":"m 25 0 l 105 758 l 253 758 l 229 530 l 279 530 q 429 474 379 530 q 468 316 480 418 l 460 225 q 386 59 448 119 q 223 0 324 0 l 25 0 m 509 0 l 588 758 l 736 758 l 657 0 l 509 0 m 187 128 l 229 128 q 294 152 271 128 q 322 234 317 176 l 330 304 q 318 382 336 359 q 258 405 301 405 l 216 405 l 187 128 z "},"ь":{"ha":788,"x_min":45,"x_max":697,"o":"m 45 0 l 125 758 l 303 758 l 278 521 l 447 521 q 634 460 572 521 q 686 289 697 399 l 679 232 q 593 61 668 122 q 393 0 518 0 l 45 0 m 237 135 l 376 135 q 467 158 437 135 q 503 237 496 182 l 508 287 q 488 365 513 341 q 403 389 463 389 l 264 389 l 237 135 z "},"э":{"ha":788,"x_min":56,"x_max":698,"o":"m 330 -13 q 120 47 184 -13 q 62 235 56 107 l 235 247 q 252 145 230 173 q 342 116 274 116 q 443 150 412 116 q 484 260 475 183 l 491 335 l 302 335 l 313 449 l 503 449 l 509 500 q 492 609 516 576 q 399 641 467 641 q 304 612 335 641 q 261 506 274 583 l 91 519 q 195 709 117 648 q 413 770 273 770 q 629 699 559 770 q 684 494 698 629 l 660 268 q 563 60 646 133 q 330 -13 480 -13 z "},"ю":{"ha":788,"x_min":14,"x_max":735,"o":"m 455 -13 q 305 52 351 -13 q 270 232 259 116 l 283 354 l 201 354 l 164 0 l 14 0 l 93 758 l 244 758 l 215 484 l 297 484 l 301 520 q 374 704 313 638 q 538 770 434 770 q 689 703 644 770 q 722 520 735 635 l 692 232 q 621 53 681 119 q 455 -13 561 -13 m 468 119 q 521 145 504 119 q 544 232 538 170 l 574 520 q 570 612 582 585 q 523 639 558 639 q 470 612 487 639 q 446 520 453 585 l 415 232 q 421 145 409 170 q 468 119 433 119 z "},"я":{"ha":788,"x_min":39,"x_max":712,"o":"m 361 381 l 496 381 l 521 626 l 386 626 q 323 603 345 626 q 294 521 301 580 l 292 494 q 302 407 285 432 q 361 381 319 381 m 482 253 l 412 253 l 232 0 l 39 0 l 230 269 q 134 343 164 288 q 115 490 105 399 l 117 521 q 193 698 130 638 q 364 758 256 758 l 712 758 l 633 0 l 456 0 l 482 253 z "},"ђ":{"ha":788,"x_min":25,"x_max":694,"o":"m 356 -264 q 287 -256 322 -264 q 218 -236 253 -249 l 254 -101 q 306 -121 282 -114 q 351 -128 330 -128 q 420 -97 393 -128 q 456 4 448 -67 l 503 446 q 489 527 509 500 q 429 554 468 554 q 350 527 390 554 q 274 451 309 500 l 226 0 l 49 0 l 131 783 l 25 783 l 37 893 l 143 893 l 155 1010 l 332 1010 l 319 893 l 501 893 l 490 783 l 308 783 l 287 572 l 318 572 q 402 665 348 633 q 520 698 455 698 q 649 641 604 698 q 683 486 694 585 l 631 -14 q 540 -201 619 -138 q 356 -264 462 -264 z "},"є":{"ha":788,"x_min":63,"x_max":701,"o":"m 670 235 q 573 47 649 107 q 355 -13 496 -13 q 134 60 205 -13 q 77 268 63 133 l 101 494 q 202 699 115 628 q 436 770 289 770 q 636 709 572 770 q 699 519 701 648 l 527 506 q 505 612 529 582 q 417 641 481 641 q 319 609 352 641 q 279 500 287 576 l 273 446 l 479 446 l 467 337 l 261 337 l 254 260 q 272 150 245 183 q 365 116 299 116 q 459 146 429 116 q 500 247 489 176 l 670 235 z "},"ѕ":{"ha":788,"x_min":48,"x_max":676,"o":"m 337 -11 q 177 14 254 -11 q 48 81 100 39 l 107 198 q 225 138 159 162 q 351 115 290 115 q 444 135 409 115 q 484 202 479 155 q 460 271 489 251 q 342 314 431 292 q 160 396 215 346 q 116 543 106 446 q 208 710 128 649 q 410 770 289 770 q 556 746 486 770 q 676 683 625 722 l 622 568 q 518 622 573 601 q 409 644 463 644 q 330 624 360 644 q 295 561 299 605 q 323 494 290 514 q 456 446 356 473 q 624 365 577 417 q 662 218 672 313 q 563 51 650 112 q 337 -11 475 -11 z "},"і":{"ha":788,"x_min":56,"x_max":640,"o":"m 56 0 l 69 135 l 266 135 l 318 622 l 121 622 l 135 758 l 509 758 l 443 135 l 640 135 l 626 0 l 56 0 m 442 888 q 356 905 388 888 q 330 968 324 922 l 331 981 q 371 1046 336 1028 q 461 1064 407 1064 q 547 1046 515 1064 q 573 981 578 1028 l 572 968 q 531 905 567 922 q 442 888 495 888 z "},"ї":{"ha":788,"x_min":56,"x_max":674,"o":"m 56 0 l 69 135 l 266 135 l 318 622 l 121 622 l 135 758 l 509 758 l 443 135 l 640 135 l 626 0 l 56 0 m 302 888 q 237 905 261 888 q 218 968 213 922 l 220 981 q 253 1046 225 1028 q 321 1064 280 1064 q 386 1046 362 1064 q 404 981 409 1028 l 403 968 q 370 905 398 922 q 302 888 342 888 m 567 888 q 502 905 525 888 q 484 968 479 922 l 485 981 q 517 1046 490 1028 q 586 1064 544 1064 q 650 1046 626 1064 q 669 981 674 1028 l 668 968 q 634 905 663 922 q 567 888 606 888 z "},"ј":{"ha":788,"x_min":18,"x_max":660,"o":"m 202 -264 q 109 -258 155 -264 q 18 -236 63 -253 l 53 -101 q 128 -122 92 -117 q 196 -128 164 -128 q 303 -95 261 -128 q 352 13 345 -63 l 417 622 l 144 622 l 158 758 l 607 758 l 527 -6 q 424 -197 514 -130 q 202 -264 333 -264 m 524 888 q 438 905 470 888 q 412 968 407 922 l 413 981 q 453 1046 418 1028 q 543 1064 489 1064 q 629 1046 597 1064 q 655 981 660 1028 l 654 968 q 613 905 649 922 q 524 888 577 888 z "},"љ":{"ha":788,"x_min":-43,"x_max":710,"o":"m 263 631 l 210 169 q 152 37 199 82 q 34 -9 105 -9 q -4 -5 15 -9 q -43 5 -23 -1 l -6 141 q 10 135 1 138 q 28 133 19 133 q 58 148 45 133 q 76 201 71 163 l 141 758 l 503 758 l 477 521 l 545 521 q 669 466 629 521 q 699 311 710 410 l 689 217 q 626 57 679 115 q 490 0 573 0 l 284 0 l 351 631 l 263 631 m 436 124 l 477 124 q 528 149 510 125 q 552 230 545 173 l 559 303 q 552 378 566 356 q 506 400 539 400 l 465 400 l 436 124 z "},"њ":{"ha":788,"x_min":20,"x_max":707,"o":"m 432 124 l 473 124 q 524 146 506 124 q 547 221 542 169 l 557 308 q 549 386 562 362 q 504 409 537 409 l 462 409 l 432 124 m 197 374 l 158 0 l 20 0 l 100 758 l 237 758 l 211 501 l 333 501 l 360 758 l 499 758 l 475 530 l 545 530 q 667 475 628 530 q 697 319 707 419 l 686 212 q 623 56 674 111 q 489 0 572 0 l 280 0 l 319 374 l 197 374 z "},"ћ":{"ha":788,"x_min":25,"x_max":693,"o":"m 273 442 l 226 0 l 49 0 l 131 783 l 25 783 l 37 893 l 143 893 l 155 1010 l 332 1010 l 319 893 l 501 893 l 490 783 l 308 783 l 285 568 l 317 568 q 400 664 346 630 q 520 698 455 698 q 650 640 607 698 q 683 481 693 582 l 633 0 l 456 0 l 501 437 q 491 525 508 495 q 431 554 473 554 q 352 526 391 554 q 273 442 312 497 z "},"џ":{"ha":788,"x_min":49,"x_max":712,"o":"m 236 -189 l 256 0 l 49 0 l 129 758 l 306 758 l 241 140 l 471 140 l 535 758 l 712 758 l 633 0 l 426 0 l 405 -189 l 236 -189 z "},"ґ":{"ha":788,"x_min":95,"x_max":722,"o":"m 95 0 l 174 758 l 534 758 l 554 947 l 722 947 l 687 617 l 336 617 l 271 0 l 95 0 z "},"ⁿ":{"ha":788,"x_min":135,"x_max":678,"o":"m 135 381 l 201 1011 l 351 1011 l 342 920 l 371 920 q 402 967 384 947 q 442 999 419 986 q 487 1017 463 1011 q 534 1023 510 1023 q 598 1008 569 1023 q 645 966 628 994 q 671 898 664 938 q 673 807 678 857 l 629 381 l 479 381 l 521 790 q 521 839 524 818 q 511 874 519 860 q 492 893 504 886 q 463 900 480 900 q 430 894 447 900 q 395 875 413 888 q 362 847 379 864 q 330 808 346 830 l 285 381 l 135 381 z "},"̀":{"ha":0,"x_min":-173,"x_max":152,"o":"m 27 884 l -173 1136 l 57 1136 l 152 884 l 27 884 z "},"́":{"ha":0,"x_min":-95,"x_max":284,"o":"m -95 884 l 54 1136 l 284 1136 l 30 884 l -95 884 z "},"̂":{"ha":0,"x_min":-213,"x_max":312,"o":"m -160 884 l -213 970 l 1 1162 l 135 1162 l 312 970 l 242 885 l 53 1023 l -160 884 z "},"̃":{"ha":0,"x_min":-208,"x_max":319,"o":"m 136 896 q 67 917 92 896 q 24 965 42 937 q -2 1011 10 990 q -34 1032 -14 1032 q -69 1009 -54 1032 q -90 929 -85 987 l -91 909 l -208 909 l -207 928 q -147 1093 -196 1029 q -23 1158 -98 1158 q 45 1138 20 1158 q 88 1090 71 1119 q 114 1043 102 1064 q 144 1021 126 1021 q 179 1044 164 1021 q 201 1125 194 1067 l 202 1145 l 319 1145 l 318 1126 q 259 960 307 1024 q 136 896 211 896 z "},"̄":{"ha":0,"x_min":-183,"x_max":289,"o":"m -183 941 l -168 1080 l 289 1080 l 274 941 l -183 941 z "},"̆":{"ha":0,"x_min":-216,"x_max":338,"o":"m 39 875 q -154 943 -92 875 q -202 1153 -216 1010 l -53 1153 q -37 1028 -62 1063 q 52 992 -13 992 q 147 1028 116 992 q 189 1153 178 1063 l 338 1153 q 246 943 322 1010 q 39 875 170 875 z "},"̇":{"ha":0,"x_min":-77,"x_max":177,"o":"m 40 888 q -45 905 -14 888 q -72 968 -77 922 l -71 981 q -30 1046 -66 1028 q 59 1064 5 1064 q 145 1046 114 1064 q 172 981 177 1028 l 170 968 q 129 905 165 922 q 40 888 93 888 z "},"̈":{"ha":0,"x_min":-181,"x_max":280,"o":"m -92 888 q -157 905 -133 888 q -176 968 -181 922 l -174 981 q -141 1046 -169 1028 q -73 1064 -114 1064 q -8 1046 -32 1064 q 10 981 15 1028 l 9 968 q -24 905 4 922 q -92 888 -52 888 m 173 888 q 108 905 131 888 q 90 968 85 922 l 91 981 q 123 1046 96 1028 q 192 1064 150 1064 q 256 1046 232 1064 q 275 981 280 1028 l 274 968 q 241 905 269 922 q 173 888 212 888 z "},"̊":{"ha":0,"x_min":-158,"x_max":277,"o":"m 38 861 q -105 907 -53 861 q -148 1048 -158 952 l -143 1088 q -71 1232 -133 1186 q 81 1279 -10 1279 q 225 1232 173 1279 q 266 1088 277 1186 l 261 1048 q 190 907 251 952 q 38 861 129 861 m 48 958 q 109 979 87 958 q 136 1048 131 1000 l 141 1088 q 128 1158 145 1135 q 71 1182 110 1182 q 9 1158 32 1182 q -18 1088 -14 1135 l -23 1048 q -9 979 -28 1000 q 48 958 9 958 z "},"̋":{"ha":0,"x_min":-150,"x_max":354,"o":"m 92 884 l 170 1136 l 354 1136 l 188 884 l 92 884 m -150 884 l -72 1136 l 111 1136 l -54 884 l -150 884 z "},"̌":{"ha":0,"x_min":-202,"x_max":323,"o":"m -25 889 l -202 1081 l -133 1167 l 57 1029 l 270 1167 l 323 1081 l 109 889 l -25 889 z "},"̒":{"ha":0,"x_min":-115,"x_max":221,"o":"m -115 884 l 96 1136 l 221 1136 l 115 884 l -115 884 z "},"̦":{"ha":0,"x_min":-256,"x_max":80,"o":"m -256 -379 l -150 -126 l 80 -126 l -131 -379 l -256 -379 z "},"̧":{"ha":0,"x_min":-314,"x_max":114,"o":"m -85 0 l -59 53 q 69 2 25 42 q 106 -114 114 -38 q 33 -237 97 -197 q -116 -277 -30 -277 q -262 -241 -210 -277 q -312 -130 -314 -206 l -160 -117 q -150 -151 -162 -141 q -111 -160 -139 -160 q -65 -146 -81 -160 q -44 -88 -49 -131 q -49 -29 -40 -48 q -85 0 -58 -10 z "},"̨":{"ha":0,"x_min":-223,"x_max":90,"o":"m -52 -275 q -179 -235 -135 -275 q -216 -121 -223 -194 q -157 -3 -210 -56 q -38 72 -104 49 l -15 29 q -64 -23 -51 5 q -82 -80 -78 -52 q -67 -131 -85 -114 q -10 -148 -49 -148 q 35 -144 9 -148 q 90 -135 61 -140 l 76 -261 q 10 -271 44 -268 q -52 -275 -24 -275 z "},"¼":{"ha":788,"x_min":5,"x_max":758,"o":"m 199 519 l 210 617 l 354 617 l 381 881 l 361 881 q 339 835 354 856 q 304 798 324 813 q 263 775 285 783 q 218 765 241 766 l 225 874 q 276 886 250 876 q 324 915 302 896 q 367 960 348 933 q 399 1019 386 986 l 535 1019 l 492 617 l 624 617 l 614 519 l 199 519 m 5 313 l 20 452 l 354 427 l 343 338 l 5 313 m 424 338 l 434 427 l 758 452 l 742 313 l 424 338 m 587 -144 l 489 -144 l 476 -265 l 337 -265 l 350 -144 l 82 -144 l 93 -42 l 365 273 l 533 273 l 500 -42 l 598 -42 l 587 -144 m 203 -42 l 361 -42 l 383 164 l 203 -42 z "},"½":{"ha":788,"x_min":5,"x_max":758,"o":"m 199 519 l 210 617 l 354 617 l 381 881 l 361 881 q 339 835 354 856 q 304 798 324 813 q 263 775 285 783 q 218 765 241 766 l 225 874 q 274 886 249 876 q 322 914 299 895 q 367 958 347 932 q 399 1019 386 985 l 535 1019 l 492 617 l 624 617 l 614 519 l 199 519 m 5 313 l 20 452 l 354 427 l 343 338 l 5 313 m 424 338 l 434 427 l 758 452 l 742 313 l 424 338 m 81 -265 l 92 -153 q 105 -95 96 -121 q 131 -49 115 -69 q 174 -14 149 -29 q 232 9 198 1 l 364 40 q 398 51 385 45 q 419 62 412 56 q 432 77 428 68 q 438 100 437 86 l 441 116 q 437 140 442 130 q 420 158 432 150 q 394 167 410 164 q 357 170 378 170 q 321 167 336 170 q 294 154 306 163 q 275 130 282 145 q 264 92 268 115 l 124 101 q 148 175 131 144 q 194 226 165 206 q 266 258 223 247 q 367 268 308 268 q 469 258 427 268 q 537 229 511 247 q 573 182 562 210 q 580 117 583 154 l 576 82 q 561 30 572 53 q 533 -8 551 8 q 492 -35 515 -24 q 441 -53 468 -47 l 308 -85 q 274 -95 287 -90 q 253 -107 261 -100 q 237 -127 242 -115 q 231 -158 232 -139 l 558 -158 l 547 -265 l 81 -265 z "},"¾":{"ha":788,"x_min":5,"x_max":758,"o":"m 396 510 q 293 520 336 510 q 222 551 250 530 q 183 601 196 571 q 172 672 170 631 l 312 679 q 316 644 312 658 q 332 622 321 630 q 360 611 342 615 q 408 607 379 607 q 451 610 433 607 q 480 619 468 614 q 496 634 491 625 q 504 655 501 643 l 505 676 q 503 699 506 689 q 487 715 499 708 q 459 723 477 720 q 415 726 441 726 l 318 726 l 330 823 l 427 823 q 465 826 449 823 q 490 833 480 828 q 506 848 501 838 q 514 871 511 857 l 515 891 q 511 910 516 903 q 497 920 506 917 q 470 926 486 924 q 432 928 455 928 q 395 926 409 928 q 370 917 380 923 q 354 900 360 910 q 346 875 348 890 l 206 883 q 232 948 213 920 q 280 992 250 976 q 349 1018 309 1010 q 442 1025 389 1025 q 535 1019 495 1025 q 604 1000 576 1013 q 646 963 633 986 q 655 907 659 939 l 654 889 q 642 850 652 867 q 619 819 633 832 q 586 799 604 807 q 549 789 568 792 l 547 766 q 585 756 567 764 q 617 735 602 749 q 639 705 631 722 q 644 665 646 687 l 643 652 q 621 587 639 614 q 571 543 604 561 q 496 518 539 527 q 396 510 452 510 m 5 313 l 20 452 l 354 427 l 343 338 l 5 313 m 424 338 l 434 427 l 758 452 l 742 313 l 424 338 m 591 -144 l 492 -144 l 480 -265 l 342 -265 l 355 -144 l 86 -144 l 97 -42 l 369 273 l 537 273 l 504 -42 l 602 -42 l 591 -144 m 207 -42 l 366 -42 l 388 164 l 207 -42 z "},"⅛":{"ha":788,"x_min":5,"x_max":758,"o":"m 196 519 l 206 617 l 348 617 l 376 881 l 357 881 q 335 835 350 856 q 301 798 321 813 q 259 775 282 783 q 215 765 237 766 l 220 874 q 270 886 244 876 q 318 913 295 895 q 362 958 342 932 q 394 1019 381 985 l 532 1019 l 489 617 l 619 617 l 609 519 l 196 519 m 5 313 l 20 452 l 354 427 l 343 338 l 5 313 m 424 338 l 434 427 l 758 452 l 742 313 l 424 338 m 319 -271 q 210 -261 254 -271 q 143 -232 167 -251 q 109 -185 117 -212 q 104 -121 100 -158 l 105 -104 q 117 -62 107 -81 q 143 -29 126 -43 q 179 -6 158 -15 q 226 5 199 3 l 229 28 q 191 37 208 30 q 163 54 174 44 q 144 81 149 66 q 140 114 139 96 l 144 139 q 164 198 146 173 q 211 239 182 223 q 281 263 240 255 q 376 270 322 270 q 470 263 431 270 q 537 240 510 255 q 575 199 563 225 q 583 139 587 174 l 580 114 q 569 81 578 96 q 547 54 561 66 q 515 37 533 44 q 475 28 496 30 l 472 5 q 517 -6 497 3 q 549 -30 537 -15 q 568 -63 562 -44 q 571 -104 573 -82 l 569 -121 q 551 -186 566 -159 q 508 -232 535 -213 q 432 -261 479 -251 q 319 -271 385 -271 m 355 57 q 390 59 375 57 q 417 67 404 62 q 433 81 427 72 q 441 104 439 91 l 442 125 q 439 147 443 138 q 426 162 436 157 q 401 170 415 168 q 366 173 386 173 q 332 170 347 173 q 306 162 317 168 q 289 147 295 157 q 280 125 282 138 l 279 104 q 282 81 278 91 q 297 67 287 72 q 320 59 306 62 q 355 57 335 57 m 330 -174 q 378 -170 359 -174 q 408 -158 396 -167 q 423 -140 418 -150 q 431 -114 428 -129 l 432 -98 q 431 -72 433 -83 q 419 -53 428 -61 q 391 -41 409 -45 q 345 -37 374 -37 q 298 -41 317 -37 q 268 -53 279 -45 q 251 -72 256 -61 q 245 -98 246 -83 l 244 -114 q 244 -140 241 -129 q 256 -158 246 -150 q 283 -170 265 -167 q 330 -174 302 -174 z "},"⅜":{"ha":788,"x_min":5,"x_max":758,"o":"m 396 510 q 294 520 337 510 q 223 551 250 530 q 183 601 196 571 q 172 672 170 631 l 312 679 q 316 644 312 658 q 332 622 321 630 q 360 611 342 615 q 408 607 379 607 q 451 610 433 607 q 480 619 468 614 q 496 634 491 625 q 504 655 501 643 l 505 676 q 503 699 506 689 q 487 715 499 708 q 459 723 477 720 q 415 726 441 726 l 318 726 l 330 823 l 427 823 q 465 825 449 823 q 490 832 480 827 q 506 847 501 838 q 514 871 511 856 l 515 891 q 511 910 516 903 q 497 920 506 917 q 470 926 486 924 q 432 928 455 928 q 394 926 409 928 q 369 917 379 923 q 354 900 360 910 q 346 875 348 890 l 206 883 q 232 949 213 922 q 280 994 250 977 q 350 1018 309 1010 q 442 1025 390 1025 q 534 1020 494 1025 q 602 1000 574 1014 q 645 964 631 987 q 655 907 659 941 l 654 889 q 642 850 652 867 q 619 819 633 832 q 586 799 604 807 q 549 789 568 792 l 547 766 q 585 756 567 764 q 617 735 602 749 q 639 705 631 722 q 644 665 646 687 l 643 652 q 620 585 639 612 q 569 542 601 558 q 494 518 538 525 q 396 510 451 510 m 5 313 l 20 452 l 354 427 l 343 338 l 5 313 m 424 338 l 434 427 l 758 452 l 742 313 l 424 338 m 319 -271 q 210 -261 254 -271 q 143 -232 167 -251 q 109 -185 117 -212 q 104 -121 100 -158 l 105 -104 q 117 -62 107 -81 q 143 -29 126 -43 q 179 -6 158 -15 q 226 5 199 3 l 229 28 q 191 37 208 30 q 163 54 174 44 q 144 81 149 66 q 140 114 139 96 l 144 139 q 164 198 146 173 q 211 239 182 223 q 281 263 240 255 q 376 270 322 270 q 470 263 431 270 q 537 240 510 255 q 575 199 563 225 q 583 139 587 174 l 580 114 q 569 81 578 96 q 547 54 561 66 q 515 37 533 44 q 475 28 496 30 l 472 5 q 517 -6 497 3 q 549 -30 537 -15 q 568 -63 562 -44 q 571 -104 573 -82 l 569 -121 q 551 -186 566 -159 q 508 -232 535 -213 q 432 -261 479 -251 q 319 -271 385 -271 m 355 57 q 390 59 375 57 q 417 67 404 62 q 433 81 427 72 q 441 104 439 91 l 442 125 q 439 147 443 138 q 426 162 436 157 q 401 170 415 168 q 366 173 386 173 q 332 170 347 173 q 306 162 317 168 q 289 147 295 157 q 280 125 282 138 l 279 104 q 282 81 278 91 q 297 67 287 72 q 320 59 306 62 q 355 57 335 57 m 330 -174 q 378 -170 359 -174 q 408 -158 396 -167 q 423 -140 418 -150 q 431 -114 428 -129 l 432 -98 q 431 -72 433 -83 q 419 -53 428 -61 q 391 -41 409 -45 q 345 -37 374 -37 q 298 -41 317 -37 q 268 -53 279 -45 q 251 -72 256 -61 q 245 -98 246 -83 l 244 -114 q 244 -140 241 -129 q 256 -158 246 -150 q 283 -170 265 -167 q 330 -174 302 -174 z "},"⅝":{"ha":788,"x_min":5,"x_max":758,"o":"m 398 506 q 289 515 332 506 q 218 542 245 523 q 181 590 192 559 q 172 668 169 621 l 311 676 q 315 640 311 654 q 332 619 319 626 q 361 607 342 610 q 410 604 380 604 q 456 607 438 604 q 482 617 473 610 q 498 636 494 625 q 504 664 503 646 l 506 689 q 505 715 509 705 q 490 731 501 725 q 456 741 479 737 q 396 744 433 744 l 199 744 l 229 1019 l 662 1019 l 652 922 l 356 922 l 347 843 l 460 843 q 547 835 510 843 q 607 808 585 826 q 642 763 633 790 q 648 699 652 736 l 644 657 q 624 597 640 624 q 578 549 607 569 q 503 518 548 529 q 398 506 457 506 m 5 313 l 20 452 l 354 427 l 343 338 l 5 313 m 424 338 l 434 427 l 758 452 l 742 313 l 424 338 m 319 -271 q 210 -261 254 -271 q 143 -232 167 -251 q 109 -185 117 -212 q 104 -121 100 -158 l 105 -104 q 117 -62 107 -81 q 143 -29 126 -43 q 179 -6 158 -15 q 226 5 199 3 l 229 28 q 191 37 208 30 q 163 56 174 44 q 144 81 149 66 q 141 115 139 96 l 144 140 q 165 199 148 174 q 211 239 182 223 q 281 263 240 255 q 376 270 322 270 q 470 263 431 270 q 537 240 510 255 q 575 199 563 225 q 583 140 587 174 l 581 115 q 569 81 578 96 q 547 56 561 66 q 515 37 533 44 q 475 28 496 30 l 472 5 q 517 -6 497 3 q 549 -30 537 -15 q 568 -63 562 -44 q 571 -104 573 -82 l 569 -121 q 551 -186 566 -159 q 508 -232 535 -213 q 432 -261 479 -251 q 319 -271 385 -271 m 355 57 q 390 59 375 57 q 417 67 404 62 q 433 81 427 72 q 441 104 439 91 l 442 125 q 439 147 443 138 q 426 162 436 157 q 401 170 415 168 q 366 173 386 173 q 332 170 347 173 q 306 162 317 168 q 289 147 295 157 q 280 125 282 138 l 279 104 q 282 81 278 91 q 297 67 287 72 q 320 59 306 62 q 355 57 335 57 m 330 -174 q 378 -170 359 -174 q 408 -158 396 -167 q 423 -140 418 -150 q 431 -114 428 -129 l 432 -98 q 431 -72 433 -83 q 419 -53 428 -61 q 391 -41 409 -45 q 345 -37 374 -37 q 298 -41 317 -37 q 268 -53 279 -45 q 251 -72 256 -61 q 245 -98 246 -83 l 244 -114 q 244 -140 241 -129 q 256 -158 246 -150 q 283 -170 265 -167 q 330 -174 302 -174 z "},"⅞":{"ha":788,"x_min":5,"x_max":758,"o":"m 313 519 q 360 635 335 582 q 413 734 385 688 q 475 823 442 780 q 552 909 509 865 l 225 909 l 236 1019 l 702 1019 l 691 909 q 614 814 649 861 q 551 720 580 768 q 499 621 521 672 q 458 519 476 571 l 313 519 m 5 313 l 20 452 l 354 427 l 343 338 l 5 313 m 424 338 l 434 427 l 758 452 l 742 313 l 424 338 m 319 -271 q 210 -261 254 -271 q 143 -232 167 -251 q 109 -185 117 -212 q 104 -121 100 -158 l 105 -104 q 117 -62 107 -81 q 143 -29 126 -43 q 179 -6 158 -15 q 226 5 199 3 l 229 28 q 191 37 208 30 q 163 54 174 44 q 144 81 149 66 q 140 114 139 96 l 144 139 q 164 198 146 173 q 211 239 182 223 q 281 263 240 255 q 376 270 322 270 q 470 263 431 270 q 537 240 510 255 q 575 199 563 225 q 583 139 587 174 l 580 114 q 569 81 578 96 q 547 54 561 66 q 515 37 533 44 q 475 28 496 30 l 472 5 q 517 -6 497 3 q 549 -30 537 -15 q 568 -63 562 -44 q 571 -104 573 -82 l 569 -121 q 551 -186 566 -159 q 508 -232 535 -213 q 432 -261 479 -251 q 319 -271 385 -271 m 355 57 q 390 59 375 57 q 417 67 404 62 q 433 81 427 72 q 441 104 439 91 l 442 125 q 439 147 443 138 q 426 162 436 157 q 401 170 415 168 q 366 173 386 173 q 332 170 347 173 q 306 162 317 168 q 289 147 295 157 q 280 125 282 138 l 279 104 q 282 81 278 91 q 297 67 287 72 q 320 59 306 62 q 355 57 335 57 m 330 -174 q 378 -170 359 -174 q 408 -158 396 -167 q 423 -140 418 -150 q 431 -114 428 -129 l 432 -98 q 431 -72 433 -83 q 419 -53 428 -61 q 391 -41 409 -45 q 345 -37 374 -37 q 298 -41 317 -37 q 268 -53 279 -45 q 251 -72 256 -61 q 245 -98 246 -83 l 244 -114 q 244 -140 241 -129 q 256 -158 246 -150 q 283 -170 265 -167 q 330 -174 302 -174 z "},"_":{"ha":788,"x_min":13,"x_max":634,"o":"m 13 -253 l 29 -96 l 634 -96 l 617 -253 l 13 -253 z "},"-":{"ha":788,"x_min":77,"x_max":699,"o":"m 77 366 l 95 523 l 699 523 l 682 366 l 77 366 z "},"­":{"ha":788,"x_min":77,"x_max":699,"o":"m 77 366 l 95 523 l 699 523 l 682 366 l 77 366 z "},"‐":{"ha":788,"x_min":77,"x_max":699,"o":"m 77 366 l 95 523 l 699 523 l 682 366 l 77 366 z "},"‑":{"ha":788,"x_min":77,"x_max":699,"o":"m 77 366 l 95 523 l 699 523 l 682 366 l 77 366 z "},"–":{"ha":788,"x_min":72,"x_max":703,"o":"m 72 366 l 90 523 l 703 523 l 686 366 l 72 366 z "},"—":{"ha":788,"x_min":10,"x_max":765,"o":"m 10 366 l 28 523 l 765 523 l 747 366 l 10 366 z "},"―":{"ha":788,"x_min":10,"x_max":765,"o":"m 10 366 l 28 523 l 765 523 l 747 366 l 10 366 z "},"(":{"ha":788,"x_min":159,"x_max":686,"o":"m 545 -265 q 246 -54 333 -220 q 188 379 159 112 q 337 811 216 644 q 681 1023 458 977 l 686 902 q 463 727 539 859 q 365 379 388 596 q 390 32 341 162 q 576 -140 439 -97 l 545 -265 z "},")":{"ha":788,"x_min":76,"x_max":604,"o":"m 81 -265 l 76 -140 q 299 33 222 -97 q 399 379 376 164 q 371 725 420 592 q 186 902 322 859 l 216 1023 q 516 811 428 977 q 576 379 604 644 q 425 -54 547 112 q 81 -265 303 -220 z "},"[":{"ha":788,"x_min":121,"x_max":694,"o":"m 121 -253 l 254 1010 l 694 1010 l 681 875 l 417 875 l 311 -128 l 574 -128 l 562 -253 l 121 -253 z "},"]":{"ha":788,"x_min":68,"x_max":641,"o":"m 68 -253 l 81 -128 l 345 -128 l 451 875 l 187 875 l 201 1010 l 641 1010 l 509 -253 l 68 -253 z "},"{":{"ha":788,"x_min":27,"x_max":696,"o":"m 561 -265 q 186 -220 295 -270 q 88 -56 77 -169 q 120 47 96 6 q 176 120 144 88 q 233 185 212 159 q 256 240 254 211 q 214 320 263 297 q 27 347 165 343 l 37 441 q 229 468 176 444 q 289 547 283 491 q 277 597 292 574 q 231 650 261 619 q 189 713 206 677 q 181 812 173 750 q 312 977 192 926 q 696 1023 432 1028 l 682 888 q 432 869 505 891 q 355 788 360 846 q 367 730 351 756 q 410 676 383 705 q 455 617 439 646 q 466 545 471 587 q 391 435 458 470 q 176 395 323 400 l 174 389 q 381 338 321 376 q 433 225 441 301 q 406 155 428 183 q 348 97 384 126 q 294 41 316 69 q 269 -27 273 13 q 330 -112 263 -88 q 574 -133 398 -136 l 561 -265 z "},"}":{"ha":788,"x_min":67,"x_max":740,"o":"m 581 -56 q 450 -220 569 -169 q 67 -265 331 -270 l 81 -133 q 330 -112 258 -136 q 408 -27 402 -88 q 397 41 412 13 q 355 97 383 69 q 310 155 327 126 q 298 225 293 183 q 372 338 306 301 q 588 389 439 376 l 590 395 q 383 435 442 400 q 331 545 323 470 q 358 617 336 587 q 414 676 380 646 q 469 730 448 705 q 494 788 490 756 q 432 869 499 846 q 188 888 365 891 l 202 1023 q 576 977 467 1028 q 673 812 684 926 q 641 713 665 750 q 587 650 617 677 q 532 597 553 619 q 509 547 511 574 q 552 468 503 491 q 740 441 601 444 l 730 347 q 537 320 591 343 q 476 240 482 297 q 489 185 473 211 q 533 120 504 159 q 573 47 557 88 q 581 -56 588 6 z "},"#":{"ha":788,"x_min":14,"x_max":774,"o":"m 442 370 l 480 640 l 347 640 l 308 370 l 442 370 m 386 0 l 422 240 l 289 240 l 254 0 l 115 0 l 152 240 l 14 240 l 28 370 l 170 370 l 210 640 l 56 640 l 69 770 l 229 770 l 264 1010 l 402 1010 l 366 770 l 500 770 l 535 1010 l 673 1010 l 638 770 l 774 770 l 760 640 l 617 640 l 580 370 l 732 370 l 718 240 l 559 240 l 524 0 l 386 0 z "},"%":{"ha":788,"x_min":4,"x_max":785,"o":"m 251 587 q 119 634 167 587 q 82 778 72 681 l 88 846 q 157 989 98 942 q 298 1035 215 1035 q 428 989 381 1035 q 465 846 475 942 l 458 778 q 391 634 448 681 q 251 587 335 587 m 263 692 q 306 710 289 692 q 327 770 323 729 l 336 848 q 326 907 340 888 q 287 926 313 926 q 241 907 259 926 q 220 848 223 888 l 211 770 q 221 710 207 729 q 263 692 235 692 m 4 289 l 731 807 l 785 715 l 57 198 l 4 289 m 491 -28 q 360 18 408 -28 q 322 159 312 64 l 330 231 q 397 374 340 327 q 538 420 455 420 q 669 374 622 420 q 706 231 716 327 l 698 159 q 631 18 688 64 q 491 -28 574 -28 m 501 77 q 546 94 529 77 q 568 150 563 111 l 576 234 q 568 292 581 273 q 527 311 554 311 q 482 292 500 311 q 460 234 465 273 l 452 150 q 461 94 447 111 q 501 77 475 77 z "},"‰":{"ha":788,"x_min":5,"x_max":779,"o":"m 232 587 q 109 634 153 587 q 74 780 64 682 l 81 843 q 145 989 91 942 q 279 1035 199 1035 q 402 989 359 1035 q 434 843 444 942 l 428 780 q 364 634 418 682 q 232 587 311 587 m 197 773 q 206 711 193 730 q 244 692 218 692 q 284 711 268 692 q 304 773 301 730 l 313 847 q 304 907 317 888 q 268 926 292 926 q 226 907 242 926 q 206 847 210 888 l 197 773 m 779 713 l 49 269 l 5 356 l 734 801 l 779 713 m 564 -28 q 505 -11 530 -28 q 467 39 480 5 q 418 -11 447 5 q 354 -28 389 -28 q 263 19 295 -28 q 241 160 231 66 l 249 231 q 302 375 259 328 q 407 422 346 422 q 465 405 441 422 q 503 356 489 389 q 550 405 521 389 q 611 422 578 422 q 705 375 673 422 q 727 231 737 328 l 720 160 q 667 19 710 66 q 564 -28 625 -28 m 351 146 q 355 91 347 107 q 380 74 364 74 q 408 91 396 74 q 423 146 419 107 l 433 241 q 429 299 437 280 q 405 317 422 317 q 377 299 389 317 q 361 241 365 280 l 351 146 m 535 146 q 540 91 532 107 q 564 74 548 74 q 592 91 581 74 q 607 146 604 107 l 617 241 q 614 299 621 280 q 590 317 606 317 q 561 299 573 317 q 545 241 549 280 l 535 146 z "},"'":{"ha":788,"x_min":314,"x_max":561,"o":"m 314 484 l 335 1010 l 561 1010 l 468 484 l 314 484 z "},"\"":{"ha":788,"x_min":133,"x_max":741,"o":"m 500 484 l 520 1010 l 741 1010 l 650 484 l 500 484 m 133 484 l 153 1010 l 375 1010 l 283 484 l 133 484 z "},"ʻ":{"ha":788,"x_min":205,"x_max":635,"o":"m 205 484 l 516 1010 l 635 1010 l 475 484 l 205 484 z "},"‘":{"ha":788,"x_min":205,"x_max":635,"o":"m 205 484 l 516 1010 l 635 1010 l 475 484 l 205 484 z "},"’":{"ha":788,"x_min":203,"x_max":634,"o":"m 203 484 l 364 1010 l 634 1010 l 323 484 l 203 484 z "},"“":{"ha":788,"x_min":33,"x_max":811,"o":"m 394 484 l 699 1010 l 811 1010 l 654 484 l 394 484 m 33 484 l 340 1010 l 451 1010 l 293 484 l 33 484 z "},"”":{"ha":788,"x_min":28,"x_max":806,"o":"m 388 484 l 545 1010 l 806 1010 l 499 484 l 388 484 m 28 484 l 184 1010 l 444 1010 l 139 484 l 28 484 z "},"‛":{"ha":788,"x_min":250,"x_max":571,"o":"m 451 484 l 250 1010 l 521 1010 l 571 484 l 451 484 z "},"‚":{"ha":788,"x_min":153,"x_max":562,"o":"m 153 -231 l 292 297 l 562 297 l 271 -231 l 153 -231 z "},"„":{"ha":788,"x_min":-61,"x_max":717,"o":"m 299 -230 l 457 297 l 717 297 l 410 -230 l 299 -230 m -61 -230 l 96 297 l 356 297 l 51 -230 l -61 -230 z "},"‹":{"ha":788,"x_min":186,"x_max":619,"o":"m 545 91 l 186 357 l 203 527 l 619 793 l 602 638 l 298 442 l 561 246 l 545 91 z "},"›":{"ha":788,"x_min":158,"x_max":591,"o":"m 158 91 l 173 246 l 479 442 l 215 638 l 231 793 l 591 527 l 573 357 l 158 91 z "},"«":{"ha":788,"x_min":52,"x_max":751,"o":"m 678 91 l 404 356 l 422 527 l 751 792 l 735 638 l 492 442 l 693 246 l 678 91 m 327 91 l 52 356 l 69 527 l 400 792 l 384 638 l 141 442 l 342 246 l 327 91 z "},"»":{"ha":788,"x_min":24,"x_max":723,"o":"m 24 91 l 39 246 l 283 442 l 81 638 l 97 792 l 371 527 l 354 356 l 24 91 m 375 91 l 390 246 l 634 442 l 432 638 l 448 792 l 723 527 l 706 356 l 375 91 z "},"*":{"ha":788,"x_min":83,"x_max":735,"o":"m 616 381 l 434 576 l 447 278 l 290 278 l 367 574 l 146 381 l 83 525 l 345 645 l 109 765 l 202 908 l 381 713 l 367 1010 l 524 1010 l 448 713 l 672 908 l 735 765 l 472 645 l 710 525 l 616 381 z "},"†":{"ha":788,"x_min":57,"x_max":710,"o":"m 236 -253 l 328 622 l 249 622 l 179 352 l 57 352 l 131 758 l 341 758 l 360 1010 l 534 1010 l 500 758 l 710 758 l 698 352 l 576 352 l 564 622 l 485 622 l 393 -253 l 236 -253 z "},"‡":{"ha":788,"x_min":47,"x_max":715,"o":"m 227 -253 l 259 -15 l 48 -15 l 47 288 l 168 288 l 192 120 l 275 120 l 330 638 l 246 638 l 187 470 l 66 470 l 130 773 l 341 773 l 360 1010 l 534 1010 l 503 773 l 715 773 l 715 470 l 595 470 l 569 638 l 486 638 l 432 120 l 515 120 l 576 288 l 696 288 l 633 -15 l 420 -15 l 402 -253 l 227 -253 z "},".":{"ha":788,"x_min":201,"x_max":511,"o":"m 341 -13 q 238 19 275 -13 q 207 112 201 51 l 215 176 q 265 271 221 240 q 374 303 308 303 q 475 271 438 303 q 505 176 511 240 l 497 112 q 447 19 491 51 q 341 -13 403 -13 z "},",":{"ha":788,"x_min":140,"x_max":549,"o":"m 140 -231 l 279 297 l 549 297 l 259 -231 l 140 -231 z "},":":{"ha":788,"x_min":212,"x_max":552,"o":"m 394 494 q 299 521 332 494 q 270 606 265 549 l 278 668 q 323 755 283 726 q 424 784 362 784 q 518 755 485 784 q 547 668 552 726 l 539 606 q 493 521 534 549 q 394 494 452 494 m 341 -10 q 246 18 279 -10 q 218 104 212 45 l 225 165 q 270 252 231 223 q 371 280 309 280 q 466 252 432 280 q 494 165 500 223 l 487 104 q 440 18 481 45 q 341 -10 399 -10 z "},";":{"ha":788,"x_min":154,"x_max":552,"o":"m 394 494 q 299 521 332 494 q 270 606 265 549 l 278 668 q 323 755 283 726 q 424 784 362 784 q 518 755 485 784 q 547 668 552 726 l 539 606 q 493 521 534 549 q 394 494 452 494 m 154 -221 l 285 287 l 535 287 l 264 -221 l 154 -221 z "},"…":{"ha":788,"x_min":11,"x_max":702,"o":"m 592 -11 q 535 15 556 -11 q 521 95 515 40 l 532 196 q 563 278 538 251 q 625 304 588 304 q 682 278 662 304 q 696 196 702 251 l 686 95 q 653 15 679 40 q 592 -11 628 -11 m 340 -11 q 283 15 304 -11 q 269 95 263 40 l 279 196 q 311 278 285 251 q 372 304 337 304 q 429 278 409 304 q 443 196 449 251 l 433 95 q 401 15 427 40 q 340 -11 375 -11 m 88 -11 q 32 15 52 -11 q 18 95 11 40 l 28 196 q 59 278 34 251 q 121 304 85 304 q 177 278 158 304 q 191 196 197 251 l 181 95 q 149 15 174 40 q 88 -11 124 -11 z "},"!":{"ha":788,"x_min":211,"x_max":557,"o":"m 303 379 l 337 1010 l 557 1010 l 458 379 l 303 379 m 343 -13 q 243 13 275 -13 q 217 93 211 39 l 221 129 q 264 211 226 184 q 370 237 302 237 q 470 211 438 237 q 496 129 501 184 l 492 93 q 449 13 486 39 q 343 -13 412 -13 z "},"¡":{"ha":788,"x_min":236,"x_max":582,"o":"m 448 1023 q 549 997 516 1023 q 576 917 582 971 l 572 881 q 528 799 567 826 q 422 773 490 773 q 323 799 354 773 q 297 881 292 826 l 301 917 q 344 997 307 971 q 448 1023 381 1023 m 491 631 l 456 0 l 236 0 l 336 631 l 491 631 z "},"‼":{"ha":788,"x_min":51,"x_max":718,"o":"m 492 379 l 527 1010 l 718 1010 l 620 379 l 492 379 m 140 379 l 174 1010 l 365 1010 l 268 379 l 140 379 m 520 -13 q 466 -6 489 -13 q 429 13 443 0 q 408 46 414 27 q 407 93 403 66 l 410 129 q 423 177 413 157 q 451 211 433 198 q 491 231 467 225 q 547 237 515 237 q 600 231 578 237 q 636 211 622 225 q 655 177 650 198 q 658 129 660 157 l 654 93 q 641 46 650 66 q 615 13 631 27 q 574 -6 597 0 q 520 -13 551 -13 m 168 -13 q 114 -6 136 -13 q 77 13 91 0 q 56 46 62 27 q 54 93 51 66 l 58 129 q 71 177 61 157 q 98 211 81 198 q 139 231 115 225 q 194 237 163 237 q 247 231 225 237 q 283 211 270 225 q 302 177 297 198 q 304 129 307 157 l 301 93 q 287 46 297 66 q 261 13 278 27 q 222 -6 245 0 q 168 -13 198 -13 z "},"?":{"ha":788,"x_min":77,"x_max":765,"o":"m 263 374 l 254 497 q 497 575 431 530 q 571 697 563 620 l 574 731 q 553 847 582 807 q 437 888 524 888 q 309 847 345 888 q 253 693 273 806 l 77 706 q 189 949 102 875 q 449 1023 275 1023 q 688 946 611 1023 q 753 744 765 869 l 747 692 q 623 485 732 554 q 263 374 514 415 m 292 -13 q 191 13 223 -13 q 165 93 159 39 l 169 129 q 212 211 174 184 q 318 237 250 237 q 418 211 386 237 q 444 129 449 184 l 441 93 q 397 13 434 39 q 292 -13 360 -13 z "}}}
